<?xml version="1.0" encoding="utf-8"?>
<!-- Generator: Adobe Illustrator 21.1.0, SVG Export Plug-In . SVG Version: 6.00 Build 0)  -->
<svg version="1.1" xmlns="http://www.w3.org/2000/svg" xmlns:xlink="http://www.w3.org/1999/xlink" x="0px" y="0px"
	 viewBox="0 0 321 321" style="enable-background:new 0 0 321 321;" xml:space="preserve">
<style type="text/css">
	.st0{fill:#006AB6;}
	.st1{display:none;}
	.st2{fill:#FFF200;}
	.st3{fill:none;stroke:#050505;stroke-miterlimit:10;}
	.st4{fill:none;stroke:#050505;stroke-width:2;stroke-miterlimit:10;}
	.st5{display:inline;fill:none;stroke:#000000;stroke-miterlimit:10;}
</style>
<g id="Слой_3">
	<rect x="-18" y="-6" class="st0" width="351" height="338"/>
</g>
<g id="Слой_1">
	<g id="Слой_1_1_" class="st1">
		
			<image style="display:inline;overflow:visible;enable-background:new    ;" width="261" height="343" xlink:href="E730E30E.jpeg"  transform="matrix(1 0 0 1 125.6183 -25.374)">
		</image>
	</g>
	<g id="Слой_2">
		<g id="XMLID_1_">
			<g>
				<path class="st2" d="M279.7,150.8c4.9,0.9,9.6,5.6,8.4,10.5c-0.5,2-1.9,3.7-3.4,5.2c-8.7,8.3-22.1,10.2-30.9,18.5
					c-3.1,2.9-5.5,6.5-8.4,9.7c-9.5,10.7-23.3,16.8-34.6,25.5l-0.6-1.3l-4.3-15c0.1-4.7,0.3-9.6-1.9-13.8c-1-1.9-2.6-3.8-3.6-5.6
					l-1.3-4.5l-0.2-0.6c0.3-0.1,0.6-0.2,0.8-0.3l0.2,0.2c0-0.1,0-0.1-0.1-0.2c21.7-8.4,43.4-16.8,65.2-25.3
					C269.8,151.7,274.8,149.9,279.7,150.8z M250.5,187.9l-1.2-2.7C248.8,186.2,249.4,187.6,250.5,187.9z"/>
				<path class="st2" d="M249.3,185.2l1.2,2.7C249.4,187.6,248.8,186.2,249.3,185.2z"/>
				<path class="st2" d="M180.2,181.7l14.1,14.8c-0.6-2.4-0.8-5-1.4-7.4c-0.7-2.4-2-4.7-3.6-6.6l0,0c-3.5-3.9-8.7-6.3-13.9-6
					L180.2,181.7z M210.2,218.8l0.6,1.3c-3.8,2.9-7.3,6.1-10.3,9.8c-2.8,3.5-5.1,7.4-7.5,11.1l-1.8-0.5l-67.6-1.6
					c4.7,9.5,15.7,13.6,25.9,16.3c3.1,0.8,6.3,1.6,9.5,1.7c3.3,1.5,6.6,2.7,10,3.8l0.3,0.2c-0.5,0.6-0.9,1.2-1.2,1.8
					c-5-2.4-10.2-3.5-15.7-4l-74.5-19.3c-1-8.5-3.3-16.8-5-25.1c-2.2-10.7-3.4-21.7-4.5-32.7l34.4-8.9l0,0c1.2-0.2,2.5-0.5,3.6-0.9
					l2.3-0.2c0.1,1.1,0.2,2.2,0.3,3.4c0.1,2.8,0.1,5.7,1.3,8.3c0.7,1.5,1.7,2.7,2.9,3.8l-1.8-0.5c1.7,4.1,5,7.5,9.2,9.2
					c2,0.8,4.2,1.2,6.2,0.6c2-0.6,3.8-2.4,3.9-4.6l-4-1.1c2.1-0.1,4.3-0.4,6.4-0.7l-5.8-8.5l6.6-2.4l2.6-0.4
					c0.4,2.7,0.9,5.4,1.3,8.1c0,0.3,0,0.7,0.2,1l0,0c0.1,0.4,0.1,0.8,0.2,1.2c0.3,1.7,0.6,3.6,2,4.7l-1.5,0.4
					c-1.1-1-2.1-2.2-2.9-3.5c0.3,1.4,0.9,2.7,1.8,3.8l-1.4,0.4c0.9,0.3,1.8,0.7,2.7,1c3.2,3,8.2,4.2,12.2,2.2c0.1,0,0.2-0.1,0.2-0.1
					c1.6-0.2,3.2-0.7,4.7-1.4l0,0c2.7-0.1,5.1-0.8,6.4-3.1c0.8-1.4,0.9-3.1,0.9-4.7c0.2-7.2,0-14.5-0.6-21.7
					c-0.5-5.9-1.2-11.9-0.4-17.8l17.4,13.7l14.5,12.3l1.3,12c-2.3-7.7-6.7-14.8-12.8-20.1l13,21.9l0.9,8.9
					c-0.3,3.6-0.1,7.2,1.1,10.7l-1.1-10.7c0.3-4.9,1.4-10,1.5-14.9c0-1.6-0.1-3.1-0.2-4.6l1.1,0.9c0,0,0,0,0.1,0l0.2,0.6
					c-0.1,1.6,0.5,3.1,1.3,4.5l5.5,19.4c0,0.3,0,0.7,0,1C205.9,209.8,206.5,215.4,210.2,218.8z M130.9,197.5c-0.3-0.1-0.7-0.2-1-0.2
					c0.1-0.9,0-1.9-0.3-2.8c-0.4,1-0.8,2-1.2,3c-0.2,0-0.3,0.1-0.5,0.2h-2.1c-0.1,0.6-0.1,1.1-0.1,1.7c-1,1.1-1.7,2.4-2,3.8
					c-0.8,3.3-0.4,6.9-1.8,10c-1.1,2.4-3,5.3-1.2,7.2c1.3-2.7,2.5-5.4,3.8-8.1c0.6-1.2,1.1-2.4,1.4-3.7
					C128,205.1,129.6,201.4,130.9,197.5z M104.2,221.6l12.3-23.2C111.6,205.7,107.5,213.5,104.2,221.6z M111.5,189.3L101,201.6
					C105.2,198.1,108.7,193.9,111.5,189.3z"/>
				<path class="st2" d="M206,203.7l4.3,15c-3.7-3.4-4.3-9-4.3-14C205.9,204.4,206,204.1,206,203.7z"/>
				<path class="st2" d="M204.1,190c2.2,4.1,2,9.1,1.9,13.8l-5.5-19.4C201.5,186.2,203.1,188,204.1,190z"/>
				<path class="st2" d="M199.2,179.8l1.3,4.5C199.6,182.9,199.1,181.4,199.2,179.8z"/>
				<path class="st2" d="M199.9,178.8c0,0.1,0,0.1,0.1,0.2L199.9,178.8C199.8,178.8,199.9,178.8,199.9,178.8z"/>
				<path class="st2" d="M199.9,178.8c0,0-0.1,0-0.1,0.1l-2.1-1.6c-1-8.7-4.4-17.1-6.1-25.8l-1.1-10.1c-0.1-2.6-0.2-5.2-0.8-7.8
					l0.8,7.8c0,1.2,0.1,2.4,0.2,3.6c0.2,2.2,0.5,4.3,0.9,6.5l2.4,22.9L179.6,163l-17.3-14.6c0.3-2,0.8-4,1.4-6
					c2.5-0.9,4.9-2.2,7.1-3.9c-2.1,2.6-4.6,4.9-7.3,6.7c4.1,1.8,7.9-3.4,12.3-4.1c0.1,0,0.3,0,0.4,0c0,0.2,0,0.4,0,0.6
					c0,0.1,0.1,0.1,0.1,0.1l-11.7,5.9c7.2-2.6,14.1-6.1,20.4-10.3l-8.5,4.3c0.1-0.1,0.1-0.2,0.1-0.3c-0.1-0.1-0.2-0.2-0.4-0.2
					c0.1-2.2,0.1-4.5,0.1-6.7l-0.9,1c-0.1-0.3-0.2-0.7-0.3-1c2.6-2.9,4.5-6.4,5.6-10.2l-16.8,17.6c1.1-3.6,2.5-7.2,3.6-10.8
					c1.9-5.8,3.2-12.1,1.7-18.1l19.4-0.3l2.1-0.1C191.7,135,193.7,157.3,199.9,178.8z"/>
				<path class="st2" d="M197.8,178.3c0.2,1.5,0.2,3.1,0.2,4.6c-0.1,4.9-1.1,10-1.5,14.9l-0.9-8.9l0.5,0.8c-0.2-0.9-0.4-1.7-0.7-2.6
					l-1.3-12L197.8,178.3z"/>
				<path class="st2" d="M197.8,178.3l-3.7-3.1l-0.1-0.9l3.7,2.9C197.8,177.6,197.8,177.9,197.8,178.3z"/>
				<path class="st2" d="M197.7,177.2l-3.7-2.9l-2.4-22.9C193.3,160.1,196.7,168.5,197.7,177.2z"/>
				<path class="st2" d="M196.5,197.9l1.1,10.7C196.4,205.1,196.3,201.5,196.5,197.9z"/>
				<path class="st2" d="M196.1,189.7l-0.5-0.8l-0.2-1.8C195.7,188,195.9,188.9,196.1,189.7z"/>
				<path class="st2" d="M195.4,187.2l0.2,1.8l-13-21.9C188.7,172.3,193.2,179.4,195.4,187.2z"/>
				<path class="st2" d="M194.3,196.5l-14.1-14.8c3,0.3,6,0.6,9,0.8l0,0c1.7,1.9,2.9,4.1,3.6,6.6
					C193.5,191.5,193.6,194.1,194.3,196.5z"/>
				<path class="st2" d="M193.1,241c-3.1,4.8-6.5,9.3-11.4,12.3c-3.3,2-7.1,3.1-10,5.5c-0.8,0.7-1.6,1.4-2.2,2.3l-0.3-0.2l-3.6-4.5
					c2.5-0.6,5-1.6,7.3-2.7c6.8-3.3,13.1-7.7,18.4-13L193.1,241z"/>
				<path class="st2" d="M190.6,141.4l1.1,10.1c-0.4-2.1-0.7-4.3-0.9-6.5C190.6,143.8,190.6,142.6,190.6,141.4z"/>
				<path class="st2" d="M123.7,238.9l67.6,1.6c-5.3,5.3-11.6,9.8-18.4,13c-2.3,1.1-4.8,2.1-7.3,2.7l-0.3-0.4c-1-0.1-2-0.1-3-0.1
					l7.7-4.5c-3,0.9-5.7,2.4-7.9,4.5c-1.5,0-2.9,0.2-4.4,0.5c0.5,0.2,1,0.5,1.5,0.7c-3.2-0.1-6.4-0.9-9.5-1.7
					C139.4,252.5,128.3,248.4,123.7,238.9z M185.9,243.2c-6.8,1.3-12.8,4.9-19.1,7.6c-0.6,0.3-1.3,0.5-1.9,0.8
					c-3.6,0.9-7.2,1.5-10.9,2l-7.3-0.1c5.9,1.9,12.3,0.5,18.2-1.8C172.2,249.7,179.3,246.9,185.9,243.2z"/>
				<path class="st2" d="M190.6,112.6l-2.1,0.1c-5.3-0.5-10.6-1.1-15.9-1.6c-1.3-0.1-2.9-0.1-3.9,0.6c-1.8-5.3-6.2-9.8-11.7-10.3
					c0.3-1,0.4-2.1,0.4-3.2c0-22.7-6.9-45.1-6.3-67.8c0.2-5.9,0.9-12,3.9-17.1s8.6-9,14.5-8.3c9.8,1.1,14.1,12.8,15.6,22.5
					C189.6,55.6,189.3,84.3,190.6,112.6z M161.2,77.5l26.6,5.7c-1.9-3.7-5.9-5.9-10-6.7c-4.1-0.8-8.3-0.3-12.4,0.2
					C163.9,76.8,162.5,77,161.2,77.5z M153.1,46.9l30.3,1C173.9,43.9,162.9,43.5,153.1,46.9z"/>
				<path class="st2" d="M190.6,141.4l-0.8-7.8C190.4,136.1,190.5,138.7,190.6,141.4z"/>
				<path class="st2" d="M189.2,182.5c-3-0.3-6-0.6-9-0.8l-4.9-5.1C180.5,176.3,185.7,178.7,189.2,182.5z"/>
				<path class="st2" d="M188.5,112.7l-19.4,0.3l0,0c-0.1-0.4-0.2-0.9-0.4-1.3c1-0.7,2.6-0.8,3.9-0.6
					C178,111.6,183.2,112.2,188.5,112.7z"/>
				<path class="st2" d="M187.8,83.2l-26.6-5.7c1.3-0.5,2.8-0.7,4.2-0.8c4.1-0.5,8.3-0.9,12.4-0.2C181.8,77.3,185.8,79.5,187.8,83.2
					z"/>
				<path class="st2" d="M176.5,141.7l8.5-4.3c-6.4,4.2-13.3,7.7-20.4,10.3l11.7-5.9C176.3,141.8,176.4,141.8,176.5,141.7z"/>
				<path class="st2" d="M183.4,47.9l-30.3-1C162.9,43.5,173.9,43.9,183.4,47.9z"/>
				<path class="st2" d="M163.8,141.9l16.8-17.6c-1.1,3.8-3,7.3-5.6,10.2c-0.2-0.5-0.5-0.9-0.9-1.2c-1,1.9-2.1,3.6-3.4,5.3
					c-2.2,1.6-4.5,2.9-7.1,3.9C163.7,142.2,163.8,142.1,163.8,141.9z"/>
				<path class="st2" d="M179.6,162.9l-17.4-13.7c0-0.2,0-0.3,0-0.5c0-0.1,0-0.3,0.1-0.4L179.6,162.9z"/>
				<path class="st2" d="M166.7,250.8c6.3-2.7,12.4-6.3,19.1-7.6c-6.6,3.7-13.7,6.6-21,8.4C165.5,251.3,166.1,251,166.7,250.8z"/>
				<path class="st2" d="M176.6,141.4c0.1,0.1,0,0.2-0.1,0.3l-0.3,0.1c0,0-0.1,0-0.1-0.1c0-0.2,0-0.4,0-0.6
					C176.3,141.2,176.5,141.2,176.6,141.4z"/>
				<path class="st2" d="M176.2,141.8l0.3-0.1C176.4,141.8,176.3,141.8,176.2,141.8z"/>
				<path class="st2" d="M176.3,134.4c0,2.2-0.1,4.5-0.1,6.7c-0.1,0-0.3,0-0.4,0c-4.4,0.6-8.2,5.8-12.3,4.1c2.8-1.8,5.3-4.1,7.3-6.7
					c1.6-1.2,3-2.5,4.3-4c0.1,0.3,0.3,0.7,0.3,1l-3.8,4.6c-0.1,0-0.2,0-0.2,0c0.3-0.6,0.7-1.3,0.9-2c-1-0.2-1.8,1.2-1.2,2
					c0.1,0,0.2,0,0.3,0c-0.2,0.4-0.4,0.7-0.6,1l-2.2,2.7c0.9-0.8,1.6-1.7,2.2-2.7l0.8-1c1.5,0,2.9-0.9,3.5-2.3
					c0.3-0.7,0.4-1.5,0.3-2.3L176.3,134.4z"/>
				<path class="st2" d="M175.4,135.5c0.1,0.8,0.1,1.6-0.3,2.3c-0.6,1.3-2.1,2.3-3.5,2.3L175.4,135.5z"/>
				<path class="st2" d="M175.1,134.5c-1.3,1.5-2.7,2.8-4.3,4c1.3-1.6,2.4-3.4,3.4-5.3C174.6,133.6,174.9,134,175.1,134.5z"/>
				<path class="st2" d="M171.1,140c-0.7-0.7,0.2-2.2,1.2-2c-0.3,0.7-0.6,1.4-0.9,2C171.3,140.1,171.2,140.1,171.1,140z"/>
				<path class="st2" d="M171.6,140.1l-0.8,1c0.2-0.3,0.4-0.7,0.6-1C171.5,140.1,171.5,140.1,171.6,140.1z"/>
				<path class="st2" d="M168.5,143.8l2.2-2.7C170.1,142.1,169.4,143,168.5,143.8z"/>
				<path class="st2" d="M169.9,251.2l-7.7,4.5c-0.1,0-0.2,0-0.3,0C164.2,253.6,167,252.1,169.9,251.2z"/>
				<path class="st2" d="M169.1,113.1c1.5,5.9,0.2,12.2-1.7,18.1c-1.2,3.6-2.5,7.2-3.6,10.8l-0.6,0.6c0.2-0.1,0.3-0.1,0.4-0.2
					c-0.6,2-1,3.9-1.4,6L128,119.5c-0.1-1.7-0.3-3.4-0.3-5.1c1,0.8,1.9,1.8,2.6,2.9c1.1-2.8,2.9-5.3,5.1-7.3l14.3-5.8h0.1
					c2.3,0,5,0.2,6.5-1.6c0.3-0.3,0.5-0.7,0.7-1.1c5.4,0.5,9.9,5.1,11.7,10.3c-0.5,0.3-0.8,0.7-0.9,1.3L169.1,113.1z"/>
				<path class="st2" d="M169.1,113L169.1,113h-1.3c0.1-0.6,0.4-1,0.9-1.3C168.9,112.2,169,112.6,169.1,113z"/>
				<path class="st2" d="M165.5,256.2l3.6,4.5c-3.4-1.1-6.7-2.4-10-3.8c0.8,0,1.6,0,2.3,0C162.9,256.8,164.2,256.6,165.5,256.2z"/>
				<path class="st2" d="M168.6,263l-0.4-0.1l0,0C168.3,262.9,168.5,262.9,168.6,263z"/>
				<path class="st2" d="M168.2,262.8C168.2,262.9,168.2,262.9,168.2,262.8L165,262c0-0.1,0-0.2,0-0.3l-0.9,0.1l-2.3-0.6
					c-0.1-0.2-0.1-0.4-0.2-0.6c-0.1,0.1-0.2,0.3-0.3,0.4l-8.6-2.2C158,259.3,163.3,260.5,168.2,262.8z"/>
				<path class="st2" d="M165,262.1l3.2,0.8c-4.3,7.7-2.2,18.8-3.8,28.2c-1.5,8.4-6.8,15.5-13.8,20.3c1-1.4,1.7-3.1,2.3-4.8
					c1.6-0.7,2.7-2.3,3.2-4c4.4-6.4,6.2-14.7,4.5-22.4c0.2,4.7-1.2,9.5-3.9,13.4c0-1.4-0.1-2.7-0.1-4c0.4-4,1.5-7.9,3.1-11.5
					C162.1,272.8,165.7,267.7,165,262.1z"/>
				<path class="st2" d="M165.2,255.8l0.3,0.4c-1.3,0.3-2.7,0.6-4.1,0.7c-0.8,0.1-1.6,0.1-2.3,0c-0.5-0.2-1-0.5-1.5-0.7
					c1.4-0.3,2.9-0.4,4.4-0.5c-0.2,0.1-0.3,0.3-0.4,0.4l0.7-0.4C163.2,255.7,164.2,255.7,165.2,255.8z"/>
				<path class="st2" d="M165,262.1c0.7,5.6-2.9,10.8-5.2,16c-1.6,3.6-2.7,7.5-3.1,11.5c-0.2-6.8-0.3-13.6-0.4-20.4
					c0.9,0.4,2,0.7,2.7,0c0.4-0.5,0.3-1.2,0.3-1.9c-0.1-1.4,0.2-2.8,0.7-4.1c1.5,2.2,2.4,4.8,2.6,7.5c0.4-2.9,0.2-5.8-0.6-8.6
					l2.1-0.2L165,262.1z"/>
				<path class="st2" d="M165,261.7c0,0.1,0,0.2,0,0.3l-0.9-0.2L165,261.7z"/>
				<path class="st2" d="M161.7,261.2l2.3,0.6l-2.1,0.2C161.9,261.8,161.8,261.5,161.7,261.2z"/>
				<path class="st2" d="M163.2,142.5l0.6-0.6c0,0.1-0.1,0.3-0.1,0.4C163.5,142.4,163.4,142.5,163.2,142.5z"/>
				<path class="st2" d="M162.7,166.9c0.6,7.2,0.8,14.5,0.6,21.7c0,1.6-0.1,3.3-0.9,4.7c-1.3,2.2-3.7,3-6.4,3.1
					c1.5-0.8,2.8-1.8,3.8-3.1c-1.2,1.3-2.7,2.4-4.3,3.1c-0.6,0-1.3,0-1.9-0.1c2.8-2.3,4.9-5.5,7.7-7.9l-6.7,1.6
					c0.4-3.8,0.1-7.9-3-9.9c-2.9-1.9-6.8-0.7-9.8,1.1c-2,1.2-4,3.3-4,5.5c-0.4-2.7-0.8-5.4-1.3-8.1c-1.5-9.8-3-19.6-4.6-29.3
					c-1.4-8.9-2.8-17.9-3.6-26.9l33.9,26.7C161.5,155.1,162.2,161,162.7,166.9z M153.9,163.3l-12.7,0.4
					C145.5,164.1,149.7,163.9,153.9,163.3z"/>
				<path class="st2" d="M162,262c0.8,2.8,1,5.8,0.6,8.6c-0.2-2.7-1.1-5.3-2.6-7.5c0.1-0.3,0.3-0.6,0.5-1L162,262z"/>
				<path class="st2" d="M162.3,148.3c0,0.1,0,0.3-0.1,0.4c0,0.2,0,0.3,0,0.5l-33.9-26.7c-0.1-1-0.2-2-0.3-3L162.3,148.3z"/>
				<path class="st2" d="M162.3,255.7l-0.7,0.4c0.1-0.1,0.3-0.3,0.4-0.4C162.1,255.7,162.2,255.7,162.3,255.7z"/>
				<path class="st2" d="M162,262l-1.5,0.2c0.2-0.4,0.5-0.8,0.8-1.1l0.5,0.1C161.8,261.5,161.9,261.8,162,262z"/>
				<path class="st2" d="M161.5,260.7c0.1,0.2,0.1,0.4,0.2,0.6l-0.5-0.1C161.3,260.9,161.4,260.8,161.5,260.7z"/>
				<path class="st2" d="M154.5,190.1l6.7-1.6c-2.8,2.4-4.9,5.6-7.7,7.9c-0.8-0.1-1.5-0.2-2.2-0.3c-2.6-0.4-5.2-0.8-7.9-1.3
					c-1.2-0.2-2.4-0.4-3.3-1.1l0,0L151,191l3.3,0.8C154.4,191.2,154.5,190.6,154.5,190.1z"/>
				<path class="st2" d="M152.6,258.8l8.6,2.2c-0.3,0.4-0.5,0.7-0.8,1.1l-1.1,0.1c-0.5-0.6-1-1.2-1.5-1.8c-0.4,0.6-0.8,1.3-1,2
					l-7.2,0.8c-0.7-0.6-1.4-1.2-2.3-1.6c2.9,0.2,5.8-0.4,8.3-2c-1.9-0.5-3.9-0.9-5.9-1.1C150.7,258.7,151.6,258.8,152.6,258.8z"/>
				<path class="st2" d="M160.7,280.2c1.6,7.7-0.1,15.9-4.5,22.4c0.1-0.4,0.2-0.7,0.3-1.1c0.4-2.1,0.2-4.4,0.1-6.6
					c-0.1-1.8,0-3.6,0.2-5.4c0,1.4,0,2.7,0.1,4C159.4,289.7,160.8,284.9,160.7,280.2z"/>
				<path class="st2" d="M159.4,262.3l1.1-0.1c-0.2,0.3-0.3,0.6-0.5,1C159.8,262.9,159.6,262.6,159.4,262.3z"/>
				<path class="st2" d="M159.4,262.3c0.2,0.3,0.4,0.6,0.6,0.9c-0.6,1.3-0.8,2.7-0.7,4.1c0,0.6,0.1,1.4-0.3,1.9
					c-0.6,0.7-1.8,0.4-2.7,0c0-0.1,0-0.2,0-0.3c0-2.1-0.1-4.3,0.6-6.3L159.4,262.3z"/>
				<path class="st2" d="M159.4,262.3l-2.5,0.3c0.2-0.7,0.6-1.4,1-2C158.4,261.1,158.9,261.7,159.4,262.3z"/>
				<path class="st2" d="M156.5,101.4c0.2,0,0.3,0,0.5,0c-0.2,0.4-0.4,0.8-0.7,1.1c-1.5,1.8-4.2,1.6-6.5,1.6h-0.1L156.5,101.4z"/>
				<path class="st2" d="M149.7,263.3l7.2-0.8c-0.7,2-0.6,4.2-0.6,6.3c0,0.1,0,0.2,0,0.3c0,0,0,0-0.1,0c-1.3-0.6-2.6-1.1-3.8-1.7
					v-0.9c0,0.3-0.1,0.6-0.1,0.9c-6.2-2.8-12.3-5.5-18.5-8.3c0.6-0.1,1.2-0.2,1.8-0.3c4.8-0.2,9.6-0.4,14.2-0.1c2,0.3,4,0.6,5.9,1.1
					c-2.4,1.5-5.4,2.2-8.3,2c-1.3-0.6-2.7-1-4.1-1c1.3,0.6,2.7,0.9,4.1,1C148.2,262.2,149,262.7,149.7,263.3z"/>
				<path class="st2" d="M156.3,269.2c0.1,6.8,0.3,13.6,0.4,20.4c-0.2,1.8-0.3,3.6-0.2,5.4c0.1,2.2,0.3,4.4-0.1,6.6
					c-0.1,0.4-0.2,0.7-0.3,1.1c-0.9,1.4-2,2.7-3.2,3.9c0.3-0.9,0.6-1.8,0.8-2.7c-1.5-1-3.6-0.2-5.3,0.6c-0.9,0.4-1.9,0.9-2.8,1.4
					L134,304c1.9-5,2.2-10.7,2.1-16.1c-0.2-7.7-1.2-15.6,0.9-23l-7.6-0.2l-2.5-0.5l0.5-5.1c2.7-0.1,5.4-0.2,8.1-0.3
					c-0.6,0.1-1.2,0.2-1.8,0.3c6.2,2.8,12.3,5.5,18.5,8.3c-0.9,7.1-1.9,14.2-2.8,21.3c-0.4,3-0.5,6.5,1.9,8.2
					c0.8-2.5,1.4-5.1,1.6-7.7l0.3,9.9c0-4.8,0-9.5,0-14.3c0,1.5-0.1,2.9-0.3,4.4l-0.6-21.8C153.7,268,155,268.6,156.3,269.2
					L156.3,269.2z"/>
				<path class="st2" d="M159.7,193.2c-1,1.3-2.3,2.4-3.8,3.1l0,0c-0.2,0-0.3,0-0.5,0C157,195.6,158.5,194.5,159.7,193.2z"/>
				<path class="st2" d="M153.9,253.5c3.7-0.4,7.3-1.1,10.9-2c-5.8,2.3-12.2,3.7-18.2,1.8L153.9,253.5z"/>
				<path class="st2" d="M155.4,196.4c0.2,0,0.3,0,0.5,0c-1.4,0.7-3,1.2-4.7,1.4c0.1,0,0.1-0.1,0.2-0.1
					C152.8,197.4,154.1,197,155.4,196.4z"/>
				<path class="st2" d="M156.1,302.6c-0.5,1.7-1.6,3.3-3.2,4c0,0,0-0.1,0.1-0.1C154.1,305.3,155.2,304,156.1,302.6z"/>
				<path class="st2" d="M151.6,180.2c3,2,3.3,6.1,3,9.9l-3.4,0.9l-13.1-3.2l0,0c-0.1-0.3-0.1-0.6-0.2-1c0-2.2,2-4.2,4-5.5
					C144.8,179.5,148.7,178.3,151.6,180.2z"/>
				<path class="st2" d="M151.1,190.9l3.4-0.9c-0.1,0.6-0.1,1.1-0.2,1.6L151.1,190.9z"/>
				<path class="st2" d="M153.5,196.3c0.6,0.1,1.3,0.1,1.9,0.1c-1.3,0.6-2.6,1.1-4,1.3C152.2,197.3,152.9,196.8,153.5,196.3z"/>
				<path class="st2" d="M141.2,163.7l12.7-0.4C149.7,163.9,145.5,164.1,141.2,163.7z"/>
				<path class="st2" d="M153.2,284.9c0,4.8,0,9.5,0,14.3l-0.3-9.9C153.1,287.8,153.2,286.3,153.2,284.9z"/>
				<path class="st2" d="M153.8,303.7c-0.3,0.9-0.5,1.8-0.8,2.7c-0.1,0.1-0.1,0.1-0.2,0.2c0.1,0,0.1,0,0.2-0.1
					c-0.6,1.7-1.3,3.4-2.3,4.8c-2.6,1.8-5.4,3.2-8.4,4.3c-0.1,0-0.3,0-0.4,0c-6.9,0.4-13.9-0.1-20.7-1.5c2.3-0.1,4.5-0.1,6.8-0.2
					c-8.5,0-17.1-2.1-24.6-6.2c1.1,0.3,2.2,0.7,3.3,1c1.9,0.7,3.9,1.3,6,1.5c-2-0.5-4-0.9-6-1.5c-2.7-1-5.3-2.4-7.8-3.7
					c1.4,1,2.9,1.9,4.5,2.7c-1.2-0.3-2.3-0.7-3.4-1c-4.3-3.5-8.5-7-12.8-10.5c-0.2-0.1-0.4-0.3-0.6-0.4l33,5.6
					c0,3.4-0.1,6.7-0.1,10.1c2.9-2,2.7-5.9,3.1-9.6l5.3,0.9c0,2,0.1,4,0.5,5.9c0.1,0.8,0.6,1.9,1.4,1.8c0.5,0,0.8-0.4,1.1-0.8
					c1.4-1.8,2.5-3.8,3.3-5.9l11.6,1.9c-5.4,2.6-10.8,5.2-16.3,7.8c5.3,0.3,10.8-1.5,14.9-4.9c-3,2.6-6.5,4.8-10.2,6.3
					c2.8-0.9,5.5-2.2,8.1-3.7c-0.3,0.3-0.5,0.6-0.8,0.9c3-1,5.6-2.9,7.6-5.3c-0.5,1.1-1.2,2.1-2.1,3c-2.5,1.9-5.3,3.5-8.2,4.6
					c3.2-0.5,6.1-2.2,8.2-4.6c1.3-1,2.6-2,3.7-3.2l-2.1-0.3c0.9-0.9,1.7-1.7,2.5-2.7c-1.2,0.8-2.4,1.6-3.5,2.5l-1.9-0.3
					c0.9-0.4,1.9-0.9,2.8-1.4C150.2,303.5,152.2,302.7,153.8,303.7z"/>
				<path class="st2" d="M152.4,267.4l0.6,21.8c-0.3,2.6-0.8,5.2-1.6,7.7c-2.4-1.7-2.3-5.3-1.9-8.2c0.9-7.1,1.9-14.2,2.8-21.3
					C152.3,267.4,152.3,267.4,152.4,267.4z"/>
				<path class="st2" d="M152.9,306.4c0,0,0,0.1-0.1,0.1c-0.1,0-0.1,0.1-0.2,0.1C152.8,306.6,152.9,306.5,152.9,306.4z"/>
				<path class="st2" d="M127.4,259.1c-1.2,0-2.3,0.1-3.4,0.1c-2.5,0-5,0-7.5-0.2c4.4-1.1,8.9-1.5,13.4-1.1l-44.5-12.3
					c-2.4-1.8-4.9-3.6-7.3-5.4c0-0.2,0-0.4-0.1-0.6l74.5,19.3c-0.9-0.1-1.9-0.1-2.8-0.2c-4.7-0.6-9.5-0.6-14.2,0.1
					C132.8,258.9,130.1,259,127.4,259.1z"/>
				<path class="st2" d="M152.4,266.5v0.9c0,0-0.1,0-0.1-0.1C152.3,267.1,152.3,266.8,152.4,266.5z"/>
				<path class="st2" d="M151.3,196c0.7,0.1,1.4,0.2,2.2,0.3c-0.6,0.5-1.3,1-2.1,1.4c-0.6,0.1-1.2,0.2-1.8,0.2c-0.4,0-0.8,0-1.3,0
					c-1,0-1.9-0.2-2.9-0.3c-2.5-0.6-4.9-1.8-6.8-3.6l1.5-0.4l0,0c0.9,0.7,2.1,0.9,3.3,1.1C146.1,195.2,148.7,195.6,151.3,196z"/>
				<path class="st2" d="M151.4,197.7c-0.1,0-0.1,0.1-0.2,0.1c-0.5,0.1-1.1,0.1-1.6,0.1C150.2,197.9,150.8,197.8,151.4,197.7z"/>
				<path class="st2" d="M151.2,197.8c-0.1,0.1-0.1,0.1-0.2,0.1c-4,1.9-9,0.7-12.2-2.2c2.2,0.8,4.4,1.5,6.6,1.9
					c0.5,0.1,1,0.2,1.6,0.3c0.9,0.1,1.7,0.1,2.6,0.1C150.2,197.9,150.7,197.8,151.2,197.8z"/>
				<path class="st2" d="M151.1,190.9l-10.9,2.7c-1.4-1.1-1.7-3-2-4.7c-0.1-0.4-0.1-0.8-0.2-1.2L151.1,190.9z"/>
				<path class="st2" d="M148.5,306.2l2.1,0.3c-1.2,1.2-2.4,2.2-3.7,3.2c0.8-0.9,1.5-1.9,2.1-3c-1.9,2.5-4.6,4.3-7.6,5.3
					c0.3-0.3,0.5-0.6,0.8-0.9C144.5,309.7,146.6,308,148.5,306.2z"/>
				<path class="st2" d="M149.8,104.1l-14.3,5.8C139.4,106.3,144.5,104.1,149.8,104.1z"/>
				<path class="st2" d="M148.4,197.9c0.4,0,0.8,0,1.3,0c-0.9,0.1-1.7,0-2.6-0.1c-0.5-0.1-1.1-0.1-1.6-0.3
					C146.4,197.7,147.4,197.9,148.4,197.9z"/>
				<path class="st2" d="M151,303.5c-0.8,0.9-1.6,1.8-2.5,2.7l-1-0.2C148.7,305.1,149.8,304.3,151,303.5z"/>
				<path class="st2" d="M147.6,306l1,0.2c-1.9,1.9-4.1,3.5-6.4,5C143.8,309.3,145.6,307.5,147.6,306z"/>
				<path class="st2" d="M150.6,311.3c-1,1.4-2.2,2.6-3.7,3.3c-1.4,0.7-3,0.9-4.6,1C145.2,314.6,148,313.1,150.6,311.3z"/>
				<path class="st2" d="M145.6,305.7l1.9,0.3c-1.9,1.5-3.8,3.3-5.4,5.1c-2.5,1.6-5.3,2.8-8.1,3.7c3.7-1.5,7.2-3.7,10.2-6.3
					c-4.1,3.4-9.5,5.2-14.9,4.9C134.8,310.9,140.2,308.3,145.6,305.7z"/>
				<path class="st2" d="M143.4,260.8c1.4,0,2.8,0.4,4.1,1C146,261.6,144.6,261.3,143.4,260.8z"/>
				<path class="st2" d="M138.7,314.3c2.9-1.2,5.7-2.7,8.2-4.6C144.8,312.1,141.8,313.8,138.7,314.3z"/>
				<path class="st2" d="M149.7,258.7c-4.7-0.2-9.4-0.1-14.2,0.1C140.2,258.1,145,258.1,149.7,258.7z"/>
				<path class="st2" d="M145.5,197.6c-2.3-0.4-4.5-1.1-6.6-1.9c-0.5-0.4-0.9-0.9-1.3-1.4l1.1-0.3
					C140.6,195.7,142.9,197,145.5,197.6z"/>
				<path class="st2" d="M86.4,301.6c4.3,1.9,8.7,3.5,13.1,4.9c0.2,0.1,0.4,0.2,0.5,0.3c0,0-0.1-0.1-0.2-0.1c1.1,0.4,2.3,0.7,3.4,1
					c7.5,4.1,16.1,6.3,24.6,6.2c-2.3,0.1-4.5,0.1-6.8,0.2c6.8,1.4,13.8,1.9,20.7,1.5c0.1,0,0.3,0,0.4,0c-5.9,2.2-12.3,2.9-18.5,1.7
					c-4.3-0.8-8.5-2.4-12.6-4c-8.5-3.2-17-6.5-25.5-9.7c-1.7-0.6-3.4-1.3-4.5-2.7c-1.2-1.4-1.5-3.4-1.7-5.2c0-0.4-0.1-0.8-0.1-1.2
					h0.1l7.2,1.2c0.2,0.1,0.4,0.3,0.6,0.4c4.3,3.5,8.5,7,12.8,10.5c-0.1,0-0.3-0.1-0.4-0.1c-2.3-1-4.5-2.4-6.6-3.8
					c0.3,0,0.7,0,1-0.1c-1.2-0.5-2.3-1-3.5-1.6c-2.9-1.8-5.9-3.5-9.2-4.1c3.1,1.4,6.2,2.7,9.2,4.1c0.9,0.5,1.7,1.1,2.5,1.6
					C90.7,302.8,88.5,302.4,86.4,301.6z"/>
				<path class="st2" d="M138.6,194l-1.1,0.3c-0.8-1.1-1.5-2.4-1.8-3.8C136.5,191.8,137.5,193,138.6,194z"/>
				<path class="st2" d="M137.8,186.8c0,0.3,0.1,0.7,0.2,1C137.9,187.4,137.8,187.1,137.8,186.8z"/>
				<path class="st2" d="M137.6,194.3c0.4,0.5,0.8,1,1.3,1.4c-0.9-0.3-1.8-0.7-2.7-1L137.6,194.3z"/>
				<path class="st2" d="M129.5,264.4l7.6,0.2c-2.1,7.4-1.1,15.3-0.9,23c0.2,5.4-0.2,11.1-2.1,16.1l-6.3-1.1
					C127.7,289.9,133,276.7,129.5,264.4z"/>
				<path class="st2" d="M132,149.3c1.5,9.8,3,19.6,4.6,29.3L134,179c-2.6-2.6-6.6-3.7-10.2-2.9l-26.1-38.6h-1.6
					c0-6.9,0.3-14.3,4.1-20c2.8-4.3,7.6-6.8,12.7-7.4l15.5,12.2C129.2,131.4,130.6,140.4,132,149.3z"/>
				<path class="st2" d="M127.7,113.1l7.8-3.2c-2.2,2-4,4.5-5.1,7.3c-0.8-1.1-1.7-2.1-2.6-2.9C127.7,113.9,127.7,113.5,127.7,113.1z
					"/>
				<path class="st2" d="M127.8,302.7l6.3,1.1c-0.8,2.1-1.9,4.1-3.3,5.9c-0.3,0.4-0.7,0.7-1.1,0.8c-0.8,0-1.3-1-1.4-1.8
					C127.9,306.6,127.8,304.6,127.8,302.7z"/>
				<path class="st2" d="M133.9,179.1l-6.6,2.4l-3.6-5.3C127.3,175.4,131.3,176.5,133.9,179.1z"/>
				<path class="st2" d="M127.3,181.5l5.8,8.5c-2.1,0.3-4.3,0.6-6.4,0.7l-11.8-3.2l0.5-1.7L127.3,181.5z"/>
				<path class="st2" d="M126.6,190.7l4,1.1c-0.1,2.1-1.8,3.9-3.9,4.6c-2,0.6-4.3,0.2-6.2-0.6c-4.1-1.7-7.5-5.1-9.2-9.2l1.8,0.5
					c2,1.7,4.6,2.8,7.2,3.3C122.5,190.7,124.5,190.8,126.6,190.7z M115.9,191.7l10,2.8C122.7,193,119.3,192.1,115.9,191.7z"/>
				<path class="st2" d="M129.9,197.4c0.3,0,0.7,0.1,1,0.2c-1.3,3.9-2.9,7.6-4.9,11.1c0.1-0.3,0.2-0.7,0.2-1
					c0.3-1.5,0.1-3.1-0.1-4.6c0.7-1.8,1.5-3.5,2.2-5.3h1.5C129.9,197.6,129.9,197.5,129.9,197.4z"/>
				<path class="st2" d="M129.6,194.6c0.3,0.9,0.4,1.8,0.3,2.8c-0.5,0-1,0.1-1.5,0.2C128.8,196.6,129.2,195.6,129.6,194.6z"/>
				<path class="st2" d="M129.9,197.4c0,0.1,0,0.3-0.1,0.4h-1.5c0-0.1,0.1-0.1,0.1-0.2C128.9,197.4,129.4,197.3,129.9,197.4z"/>
				<path class="st2" d="M85.4,245.6l44.5,12.3c-4.5-0.4-9,0-13.4,1.1c-5.4-0.4-10.6-1.4-15.6-3.5c-5.1-2.2-9.7-5.6-14.2-8.9
					C86.2,246.2,85.8,245.9,85.4,245.6z"/>
				<path class="st2" d="M129.5,264.4c3.5,12.4-1.8,25.5-1.7,38.3l-5.3-0.9c0.2-1.9,0.5-3.7,1.5-5.2l2.9-32.4L129.5,264.4z"/>
				<path class="st2" d="M128.4,197.6c0,0.1-0.1,0.1-0.1,0.2h-0.4C128.1,197.7,128.2,197.6,128.4,197.6z"/>
				<path class="st2" d="M128.3,122.5l-15.5-12.3c1.4-0.2,2.8-0.2,4.2-0.1l11.1,9.4C128.2,120.5,128.3,121.5,128.3,122.5z"/>
				<path class="st2" d="M128.3,197.8c-0.7,1.8-1.5,3.6-2.2,5.3c-0.1-1.2-0.3-2.4-0.3-3.7c0.6-0.7,1.3-1.3,2.1-1.6H128.3z"/>
				<path class="st2" d="M128.1,119.5l-11.1-9.4c3.9,0.3,7.8,1.7,10.8,4.2C127.8,116.1,128,117.8,128.1,119.5z"/>
				<path class="st2" d="M125.9,197.8h2.1c-0.8,0.4-1.5,0.9-2.1,1.6C125.8,198.9,125.8,198.3,125.9,197.8z"/>
				<path class="st2" d="M127.4,259.1l-0.5,5.1l-2.9,32.4c-1,1.5-1.3,3.3-1.5,5.2l-2.9-0.5c0.1-3.6,0.1-7.2,0.2-10.9
					c0.1-5.6,0.2-11.4,2.1-16.7C123.6,268.8,126.9,264.3,127.4,259.1z"/>
				<path class="st2" d="M123.7,176.2l3.6,5.3l-12,4.3c0.4-4.1,3.3-7.9,7.2-9.2C122.9,176.4,123.3,176.3,123.7,176.2z"/>
				<path class="st2" d="M114.8,187.5l11.8,3.2c-2.1,0.1-4.2,0.1-6.3-0.3c-2.6-0.5-5.2-1.6-7.2-3.3L114.8,187.5z"/>
				<path class="st2" d="M126.1,203.1c0.2,1.5,0.3,3.1,0.1,4.6c-0.1,0.3-0.1,0.7-0.2,1c-0.5,0.8-1,1.7-1.5,2.5
					c-0.9-1.5-0.3-3.4,0.4-5C125.3,205.1,125.7,204.1,126.1,203.1z"/>
				<path class="st2" d="M126.1,203.1c-0.4,1-0.8,2-1.3,3.1c-0.7,1.6-1.3,3.6-0.4,5c0.5-0.8,1-1.7,1.5-2.5c-0.3,1.3-0.9,2.5-1.4,3.7
					c-1.3,2.7-2.5,5.4-3.8,8.1c-1.8-1.9,0.2-4.8,1.2-7.2c1.4-3.1,1-6.7,1.8-10c0.3-1.4,1-2.7,2-3.8
					C125.8,200.6,126,201.9,126.1,203.1z"/>
				<path class="st2" d="M124,259.2c1.1,0,2.3,0,3.4-0.1c-0.5,5.2-3.8,9.7-5.6,14.6c-1.9,5.3-2,11.1-2.1,16.7
					c0,3.6-0.1,7.2-0.2,10.9l-33-5.6c-1.6-1.2-3.6-2.3-5.4-2.1l-0.1-0.5c3.5-11.6,5.1-23.9,4.5-36l1.4-1.6c0.2,0.2,0.5,0.4,0.8,0.6
					c2,1.4,4.3,2.2,6.6,3c0.5,0.2,1,0.4,1.4,0.5l-3.2-0.2c1.7,0.5,3.1,1.8,4.5,2.8C104.9,268.2,117.4,266.8,124,259.2L124,259.2
					L124,259.2z"/>
				<path class="st2" d="M125.9,194.5l-10-2.8C119.3,192.1,122.7,193,125.9,194.5z"/>
				<path class="st2" d="M124,259.2v0.2c-5.2,1.8-10.8,3.6-16.1,2.8c0.3-0.1,0.6-0.3,1-0.5c1-0.5,2-0.9,3-1.3l2,0.1
					c-0.5-0.1-0.9-0.2-1.4-0.3c1.3-0.5,2.7-0.9,4.1-1.3C119,259.1,121.5,259.2,124,259.2z"/>
				<path class="st2" d="M97.6,137.6l26.1,38.6c-0.4,0.1-0.8,0.2-1.2,0.4c-3.9,1.4-6.8,5.1-7.2,9.2l-0.5,1.7l-1.6-0.4
					c-1.2-1-2.2-2.3-2.9-3.8c-1.1-2.6-1.1-5.5-1.3-8.3c-0.1-1.1-0.1-2.3-0.3-3.4c-0.4-4.3-1.1-8.6-2.3-12.8
					C104.7,151.4,101.6,144.2,97.6,137.6z"/>
				<path class="st2" d="M119.6,301.3l2.9,0.5c-0.4,3.7-0.1,7.6-3.1,9.6C119.5,308,119.5,304.6,119.6,301.3z"/>
				<path class="st2" d="M116.5,198.4l-12.3,23.2C107.5,213.5,111.6,205.7,116.5,198.4z"/>
				<path class="st2" d="M113.9,260.5l-2-0.1c0.2-0.1,0.4-0.2,0.6-0.2C112.9,260.3,113.4,260.4,113.9,260.5z"/>
				<path class="st2" d="M116.5,258.9c-1.4,0.4-2.7,0.8-4.1,1.3c-7.5-1.8-14.8-4.6-21.7-8.2c-1-0.5-2.1-1.1-3.1-1.7
					c-2.2-1.2-4.3-2.5-6.5-3.6c0.1,0.3,0.2,0.7,0.4,0.9l-0.4,0.2c-0.7-1.3-1.4-2.7-2-4.1l6.3,1.8c0.4,0.3,0.8,0.6,1.3,0.9
					c4.5,3.3,9.1,6.7,14.2,8.9C105.9,257.6,111.1,258.6,116.5,258.9z"/>
				<path class="st2" d="M112.4,260.2c-0.2,0.1-0.4,0.2-0.6,0.2l-10.2-0.5c-3.8-2.3-7-5.8-10.9-7.8l0,0
					C97.6,255.6,104.9,258.4,112.4,260.2z"/>
				<path class="st2" d="M101.7,259.9l10.2,0.5c-1,0.4-2,0.8-3,1.3c-0.3,0.1-0.6,0.3-1,0.5c-1.1-0.1-2.1-0.4-3.2-0.8
					C103.7,261,102.6,260.5,101.7,259.9z"/>
				<path class="st2" d="M101,201.5l10.5-12.3C108.7,193.9,105.2,198.1,101,201.5z"/>
				<path class="st2" d="M107.9,262.2c5.3,0.7,10.9-1,16.1-2.8c-6.5,7.5-19,8.9-26.9,2.9c-1.4-1.1-2.8-2.4-4.5-2.8l3.2,0.2
					c2.3,0.8,4.7,1.7,7,2.6c0.9,0.3,1.9,0.7,2.9,0.6C106.4,262.8,107.2,262.5,107.9,262.2z"/>
				<path class="st2" d="M108.9,171.7l-2.3,0.2l-3.6,0.9l0,0c-3.6,0.6-7.5,0.2-11.2,0.2c-6.8,0.1-13.5,1.7-19.6,4.7
					c-1.6,0.8-3.3,2-3.7,3.7c-0.7-7.2-1.3-14.4-2.1-21.6l2-0.2L90.2,144c2.3,7.1,8.3,12.9,15.5,15l0.9-0.2
					C107.7,163,108.5,167.3,108.9,171.7z"/>
				<path class="st2" d="M106.6,308.7c2,0.5,4,1,6,1.5C110.6,309.9,108.6,309.4,106.6,308.7z"/>
				<path class="st2" d="M106.6,158.8l-0.9,0.2l-15.5-15l5.1-3.6l0.1-2.3c0.2,0,0.4,0,0.7,0c0-0.2,0-0.4,0-0.5h1.6
					C101.6,144.2,104.7,151.4,106.6,158.8z"/>
				<path class="st2" d="M103,172.8l3.6-0.9C105.4,172.4,104.2,172.7,103,172.8z"/>
				<path class="st2" d="M98.8,305c2.5,1.3,5.1,2.7,7.8,3.7c-1.1-0.3-2.2-0.6-3.3-1C101.8,306.9,100.3,306,98.8,305z"/>
				<path class="st2" d="M107.9,262.2c-0.7,0.3-1.5,0.6-2.2,0.6c-1,0-1.9-0.3-2.9-0.6c-2.3-0.9-4.7-1.7-7-2.6l5.9,0.3
					c1,0.6,2,1.1,3.1,1.5C105.8,261.8,106.8,262,107.9,262.2z"/>
				<path class="st2" d="M90.2,144l15.5,15C98.5,157,92.5,151.2,90.2,144L90.2,144z"/>
				<path class="st2" d="M102.9,172.9l-34.4,8.9c0-0.1,0-0.2,0-0.3c0.3-1.7,2.1-2.9,3.7-3.7c6.1-3,12.8-4.6,19.6-4.7
					C95.5,173,99.3,173.4,102.9,172.9z"/>
				<path class="st2" d="M101.7,259.9l-5.9-0.3c-0.5-0.2-1-0.4-1.4-0.5c-2.3-0.8-4.6-1.7-6.6-3c-0.3-0.2-0.5-0.4-0.8-0.6
					c-2.5-2-4.4-4.7-5.9-7.6l0.4-0.2c1.1,2,4.2,2.5,6.6,3.3c0.9,0.3,1.8,0.7,2.6,1.1C94.6,254.1,97.8,257.6,101.7,259.9z"/>
				<path class="st2" d="M100,306.8c-0.2-0.1-0.4-0.2-0.5-0.3c0.1,0.1,0.3,0.1,0.4,0.1C99.9,306.7,100,306.8,100,306.8z"/>
				<path class="st2" d="M99.5,306.5c-4.4-1.4-8.8-3.1-13.1-4.9c2.1,0.8,4.3,1.2,6.5,1.1C95,304.1,97.2,305.5,99.5,306.5z"/>
				<path class="st2" d="M95.4,138.1l-0.1,2.3c-11.4,1.6-21.8,9-26.9,19.3l-2,0.2c-1.2-10.7-2.8-21.3-5.6-31.6l0.7-0.2l20.3-13.2
					l0.9-0.3c1.9,5.7,3.9,11.3,6.2,16.8C90.2,134.4,92.2,137.9,95.4,138.1z"/>
				<path class="st2" d="M95.3,140.4l-5.1,3.6l-0.1-0.1c0,0.1,0,0.1,0.1,0.2l-21.8,15.6C73.5,149.4,83.9,142,95.3,140.4z"/>
				<path class="st2" d="M90.4,301.1c1.2,0.5,2.4,1,3.5,1.6c-0.3,0-0.7,0.1-1,0.1C92.1,302.2,91.2,301.6,90.4,301.1z"/>
				<path class="st2" d="M90.7,252L90.7,252c-0.9-0.4-1.7-0.8-2.7-1.1c-2.4-0.8-5.4-1.3-6.6-3.3c-0.2-0.3-0.3-0.6-0.4-0.9
					c2.2,1.1,4.3,2.4,6.5,3.6C88.7,250.9,89.7,251.5,90.7,252z"/>
				<path class="st2" d="M90.4,301.1c-3.1-1.4-6.1-2.7-9.2-4.1C84.5,297.6,87.5,299.2,90.4,301.1z"/>
				<path class="st2" d="M90.1,143.9l0.1,0.1h-0.1C90.1,144,90.1,144,90.1,143.9z"/>
				<path class="st2" d="M87,255.5l-1.4,1.6l-4.5,36l0.1,0.5c-0.7,0.1-1.3,0.3-1.8,0.9h-0.1c-1.2-10.3-1.7-20.7-1.3-31
					c0.3-6.9,0.9-13.8,0.4-20.7c-0.1-0.9-0.1-1.7-0.2-2.6c2.4,1.8,4.9,3.6,7.3,5.4l-6.3-1.8c0.6,1.4,1.3,2.7,2,4.1
					C82.7,250.8,84.5,253.5,87,255.5z"/>
				<path class="st2" d="M86.5,295.7l-7.2-1.2c0.5-0.5,1.2-0.8,1.8-0.9C82.9,293.4,84.9,294.5,86.5,295.7z"/>
				<path class="st2" d="M85.6,257.1c0.6,12.1-0.9,24.4-4.5,36L85.6,257.1z"/>
				<path class="st2" d="M82.7,114.6l-0.9,0.3c-7.6,2.8-14.7,7.3-20.3,13.2l-0.7,0.2c-1.1-4.1-2.5-8.2-4-12.3
					c-0.7-1.7-1.4-3.5-2.1-5.2l20-9.8c-7.7-0.4-15.5,3.3-20,9.6c-4.9-11.1-10.3-22.3-8.4-34.1c0.7-4,2.3-8.1,5.4-10.7
					c3.1-2.6,7.9-3.5,11.3-1.2l2.7,2.3c-2.5-1.2-5.4-1.4-7.8,0l16.2,12.8c0.4,1.6,0.6,3.3,0.9,4.9C76.9,94.7,79.4,104.8,82.7,114.6z
					"/>
				<path class="st2" d="M81.8,114.9l-20.3,13.2C67.2,122.2,74.2,117.7,81.8,114.9z"/>
				<path class="st2" d="M78,239.6c0,0.2,0,0.4,0.1,0.6c-0.4-0.3-0.9-0.6-1.3-1L78,239.6z"/>
				<path class="st2" d="M74.6,101.1l-20,9.8c0-0.1,0-0.1-0.1-0.2C59,104.4,66.8,100.7,74.6,101.1z"/>
				<path class="st2" d="M74.1,79.6L58,66.9c2.4-1.4,5.3-1.2,7.8,0l5,4.2C72.5,73.6,73.5,76.6,74.1,79.6z"/>
				<path class="st2" d="M70.6,70.9c0.1,0.1,0.1,0.2,0.2,0.3l-5-4.2C67.7,67.8,69.4,69.2,70.6,70.9z"/>
				<path class="st2" d="M68.5,181.5c0,0.1,0,0.2,0,0.3h-0.1C68.5,181.7,68.5,181.6,68.5,181.5z"/>
				<path class="st2" d="M54.6,110.8l-0.3,0.1c0.1-0.1,0.1-0.2,0.2-0.3C54.6,110.7,54.6,110.8,54.6,110.8z"/>
			</g>
			<g>
				<path class="st3" d="M157.1,101.4c0.3-1,0.4-2.1,0.4-3.2c0-22.7-6.9-45.1-6.3-67.8c0.2-5.9,0.9-12,3.9-17.1s8.6-9,14.5-8.3
					c9.8,1.1,14.1,12.8,15.6,22.5c4.5,28,4.2,56.6,5.6,85c1,22.4,3.1,44.7,9.3,66.2"/>
				<path class="st3" d="M135.5,109.9c3.9-3.6,9-5.8,14.3-5.8"/>
				<path class="st3" d="M117,110.1c3.9,0.3,7.8,1.7,10.8,4.2"/>
				<path class="st3" d="M65.8,66.9c1.9,0.9,3.6,2.3,4.8,3.9c0.1,0.1,0.1,0.2,0.2,0.3"/>
				<path class="st3" d="M54.5,110.7c-4.7-11.2-10.1-22.4-8.2-34.2c0.7-4,2.3-8.1,5.4-10.7c3.1-2.6,7.9-3.5,11.3-1.2"/>
				<path class="st3" d="M68.5,181.5c-0.7-7.2-1.3-14.4-2.1-21.6c-1.2-10.7-2.8-21.3-5.6-31.6c-1.1-4.1-2.5-8.2-4-12.3
					c-0.7-1.7-1.4-3.5-2.1-5.2"/>
				<path class="st3" d="M78,239.6c-1-8.5-3.3-16.8-5-25.1c-2.2-10.7-3.4-21.7-4.5-32.7"/>
				<path class="st3" d="M142.3,315.6c-5.9,2.2-12.3,2.9-18.5,1.7c-4.3-0.8-8.5-2.4-12.6-4c-8.5-3.2-17-6.5-25.5-9.7
					c-1.7-0.6-3.4-1.3-4.5-2.7c-1.2-1.4-1.5-3.4-1.7-5.2c0-0.4-0.1-0.8-0.1-1.2c-1.2-10.3-1.7-20.7-1.3-31
					c0.3-6.9,0.9-13.8,0.4-20.7c-0.1-0.9-0.1-1.7-0.2-2.6"/>
				<path class="st3" d="M168.2,262.9c-4.3,7.7-2.2,18.8-3.8,28.2c-1.5,8.4-6.8,15.5-13.8,20.3"/>
				<path class="st3" d="M198.9,179.2L198.9,179.2c0.3-0.1,0.6-0.2,0.9-0.3c0,0,0.1,0,0.1-0.1c21.7-8.4,43.4-16.8,65.2-25.3
					c4.7-1.8,9.7-3.7,14.6-2.8s9.6,5.6,8.4,10.5c-0.5,2-1.9,3.7-3.4,5.2c-8.7,8.3-22.1,10.2-30.9,18.5c-3.1,2.9-5.5,6.5-8.4,9.7
					c-9.5,10.7-23.3,16.8-34.6,25.5c-3.8,2.9-7.3,6.1-10.3,9.8c-2.8,3.5-5.1,7.4-7.5,11.1c-3.1,4.8-6.5,9.3-11.4,12.3
					c-3.3,2-7.1,3.1-10,5.5c-0.8,0.7-1.6,1.4-2.2,2.3c-0.5,0.6-0.9,1.2-1.2,1.8"/>
				<path class="st3" d="M168.7,111.7c-1.8-5.3-6.2-9.8-11.7-10.3c-0.2,0-0.3,0-0.5,0"/>
				<path class="st3" d="M163.8,141.9c1.1-3.6,2.5-7.2,3.6-10.8c1.9-5.8,3.2-12.1,1.7-18.1"/>
				<path class="st3" d="M155.9,196.4c2.7-0.1,5.1-0.8,6.4-3.1c0.8-1.4,0.9-3.1,0.9-4.7c0.2-7.2,0-14.5-0.6-21.7
					c-0.5-5.9-1.2-11.9-0.4-17.8c0-0.2,0-0.3,0-0.5c0-0.1,0-0.3,0.1-0.4c0.3-2,0.8-4,1.4-6"/>
				<path class="st3" d="M153.5,196.3c0.6,0.1,1.3,0.1,1.9,0.1"/>
				<path class="st3" d="M138,187.8c0.1,0.4,0.1,0.8,0.2,1.2c0.3,1.7,0.6,3.6,2,4.7"/>
				<path class="st3" d="M127.7,113.1c0,0.4,0,0.8,0.1,1.3c0.1,1.7,0.2,3.4,0.3,5.1c0.1,1,0.2,2,0.3,3c0.8,9,2.2,17.9,3.6,26.9
					c1.5,9.8,3,19.6,4.6,29.3c0.4,2.7,0.9,5.4,1.3,8.1"/>
				<path class="st3" d="M113.2,187c-1.2-1-2.2-2.3-2.9-3.8c-1.1-2.6-1.1-5.5-1.3-8.3c-0.1-1.1-0.1-2.3-0.3-3.4
					c-0.4-4.3-1.1-8.6-2.3-12.8c-1.9-7.5-5-14.6-9-21.2"/>
				<path class="st3" d="M133.1,190c-2.1,0.3-4.3,0.6-6.4,0.7"/>
				<path class="st3" d="M54.3,111c0.1-0.1,0.1-0.2,0.2-0.3c4.5-6.3,12.3-10,20-9.6"/>
				<path class="st3" d="M61.5,128.1c5.6-5.9,12.7-10.4,20.3-13.2"/>
				<path class="st3" d="M68.4,159.7c5.2-10.3,15.6-17.7,26.9-19.3"/>
				<path class="st3" d="M90.1,143.9c0,0.1,0,0.1,0.1,0.2c2.3,7.1,8.3,12.9,15.5,15"/>
				<path class="st3" d="M103,172.8c1.2-0.2,2.5-0.5,3.6-0.9"/>
				<path class="st3" d="M68.5,181.8c0-0.1,0-0.2,0-0.3c0.3-1.7,2.1-2.9,3.7-3.7c6.1-3,12.8-4.6,19.6-4.7c3.7-0.1,7.5,0.3,11.2-0.2"
					/>
				<line class="st3" x1="103" y1="172.8" x2="102.9" y2="172.9"/>
				<path class="st3" d="M111.5,186.6c1.7,4.1,5,7.5,9.2,9.2c2,0.8,4.2,1.2,6.2,0.6c2-0.6,3.8-2.4,3.9-4.6"/>
				<path class="st3" d="M125.9,197.8c-0.1,0.6-0.1,1.1-0.1,1.7c0,1.2,0.2,2.4,0.3,3.7c0.2,1.5,0.3,3.1,0.1,4.6
					c-0.1,0.3-0.1,0.7-0.2,1c-0.3,1.3-0.9,2.5-1.4,3.7c-1.3,2.7-2.5,5.4-3.8,8.1c-1.8-1.9,0.2-4.8,1.2-7.2c1.4-3.1,1-6.7,1.8-10
					c0.3-1.4,1-2.7,2-3.8c0.6-0.7,1.3-1.3,2.1-1.6c0.1-0.1,0.3-0.1,0.5-0.2c0.5-0.2,1-0.2,1.5-0.2c0.3,0,0.7,0.1,1,0.2
					c-1.3,3.9-2.9,7.6-4.9,11.1c-0.5,0.8-1,1.7-1.5,2.5c-0.9-1.5-0.3-3.4,0.4-5c0.4-1,0.8-2,1.3-3.1c0.7-1.8,1.5-3.5,2.2-5.3
					c0-0.1,0.1-0.1,0.1-0.2c0.4-1,0.8-2,1.2-3c0.3,0.9,0.4,1.8,0.3,2.8c0,0.1,0,0.3-0.1,0.4"/>
				<path class="st3" d="M104.2,221.6c3.3-8.1,7.4-15.9,12.3-23.2"/>
				<path class="st3" d="M101,201.5c4.2-3.4,7.7-7.6,10.5-12.3"/>
				<path class="st3" d="M149.7,258.7c0.9,0,1.9,0.1,2.8,0.2c5.4,0.5,10.7,1.6,15.7,4c0.1,0,0.2,0.1,0.3,0.1"/>
				<path class="st3" d="M116.5,258.9c2.5,0.2,5,0.2,7.5,0.2c1.1,0,2.3,0,3.4-0.1c2.7-0.1,5.4-0.2,8.1-0.3"/>
				<path class="st3" d="M76.8,239.2c0.4,0.3,0.9,0.6,1.3,1c2.4,1.8,4.9,3.6,7.3,5.4"/>
				<path class="st3" d="M210.2,218.8c-3.7-3.4-4.3-9-4.3-14c0-0.3,0-0.7,0-1c0.1-4.7,0.3-9.6-1.9-13.8c-1-1.9-2.6-3.8-3.6-5.6
					c-0.8-1.4-1.4-2.9-1.3-4.5"/>
				<path class="st3" d="M237.2,165.8c2.4,1.6,4.9,3.1,7.3,4.7"/>
				<path class="st3" d="M250.5,187.9c-1.1-0.3-1.7-1.7-1.2-2.7"/>
				<path class="st3" d="M209.9,187.8c0.4,0.7,0.9,1.3,1.3,2"/>
				<path class="st3" d="M205.2,179.1c0.2,0.2,0.5,0.4,0.7,0.7"/>
				<path class="st3" d="M153.1,46.9c9.8-3.3,20.8-3,30.3,1"/>
				<path class="st3" d="M161.2,77.5c1.3-0.5,2.8-0.7,4.2-0.8c4.1-0.5,8.3-0.9,12.4-0.2c4.1,0.8,8.1,3,10,6.7"/>
				<path class="st3" d="M167.8,113.1c0.1-0.6,0.4-1,0.9-1.3c1-0.7,2.6-0.8,3.9-0.6c5.3,0.5,10.6,1.1,15.9,1.6"/>
				<path class="st3" d="M170.8,138.5c-2.2,1.6-4.5,2.9-7.1,3.9c-0.1,0.1-0.3,0.1-0.4,0.2"/>
				<path class="st3" d="M180.7,124.3c-1.1,3.8-3,7.3-5.6,10.2"/>
				<path class="st3" d="M185,137.4c-6.4,4.2-13.3,7.7-20.4,10.3"/>
				<path class="st3" d="M171.4,140.1c-0.2,0.4-0.4,0.7-0.6,1c-0.6,1-1.4,1.9-2.2,2.7"/>
				<path class="st3" d="M171.4,140.1c-0.1,0-0.2,0-0.3,0c-0.7-0.7,0.2-2.2,1.2-2C172,138.8,171.7,139.4,171.4,140.1z"/>
				<path class="st3" d="M176.3,134.4c0,2.2-0.1,4.5-0.1,6.7c0,0.2,0,0.4,0,0.6c0,0.1,0.1,0.1,0.1,0.1c0.1,0,0.2,0,0.3-0.1
					s0.1-0.2,0.1-0.3c-0.1-0.1-0.2-0.2-0.4-0.2c-0.1,0-0.3,0-0.4,0c-4.4,0.6-8.2,5.8-12.3,4.1c2.8-1.8,5.3-4.1,7.3-6.7
					c1.3-1.6,2.4-3.4,3.4-5.3c0.4,0.3,0.7,0.8,0.9,1.2c0.1,0.3,0.3,0.7,0.3,1c0.1,0.8,0.1,1.6-0.3,2.3c-0.6,1.3-2.1,2.3-3.5,2.3
					c-0.1,0-0.2,0-0.2,0"/>
				<path class="st4" d="M165.5,256.2c2.5-0.6,5-1.6,7.3-2.7c6.8-3.3,13.1-7.7,18.4-13"/>
				<path class="st4" d="M123.7,238.9c4.7,9.5,15.7,13.6,25.9,16.3c3.1,0.8,6.3,1.6,9.5,1.7"/>
				<path class="st4" d="M164.8,251.6c-5.8,2.3-12.2,3.7-18.2,1.8"/>
				<path class="st4" d="M164.8,251.6c7.3-1.8,14.4-4.6,21-8.4c-6.8,1.3-12.8,4.9-19.1,7.6C166.1,251,165.5,251.3,164.8,251.6z"/>
				<path class="st4" d="M153.9,253.5c3.7-0.4,7.3-1.1,10.9-2"/>
				<path class="st4" d="M162,255.7c2.2-2.1,5-3.7,7.9-4.5"/>
				<path class="st4" d="M169.1,260.8c-3.4-1.1-6.7-2.4-10-3.8c-0.5-0.2-1-0.5-1.5-0.7c1.4-0.3,2.9-0.4,4.4-0.5c0.1,0,0.2,0,0.3,0
					c1,0,2,0,3,0.1"/>
				<path class="st4" d="M147.4,261.8c0.8,0.4,1.6,0.9,2.3,1.6"/>
				<path class="st4" d="M147.4,261.8c-1.4-0.1-2.8-0.4-4.1-1C144.8,260.8,146.2,261.1,147.4,261.8z"/>
				<path class="st4" d="M152.2,267.4c-6.2-2.8-12.3-5.5-18.5-8.3c0.6-0.1,1.2-0.2,1.8-0.3c4.7-0.7,9.5-0.7,14.2-0.1
					c2,0.3,4,0.6,5.9,1.1c-2.4,1.5-5.4,2.2-8.3,2"/>
				<path class="st4" d="M152.9,306.4c1.2-1.2,2.3-2.5,3.2-3.9c4.4-6.4,6.2-14.7,4.5-22.4c0.2,4.7-1.2,9.5-3.9,13.4
					c0-1.4-0.1-2.7-0.1-4c-0.2-6.8-0.3-13.6-0.4-20.4c0-0.1,0-0.2,0-0.3c0-2.1-0.1-4.3,0.6-6.3c0.2-0.7,0.6-1.4,1-2
					c0.6,0.6,1.1,1.1,1.5,1.8c0.2,0.3,0.4,0.6,0.6,0.9c1.5,2.2,2.4,4.8,2.6,7.5c0.4-2.9,0.2-5.8-0.6-8.6c-0.1-0.3-0.2-0.6-0.3-0.8
					c-0.1-0.2-0.1-0.4-0.2-0.6c-0.1,0.1-0.2,0.3-0.3,0.4c-0.3,0.4-0.5,0.7-0.8,1.1c-0.2,0.3-0.3,0.6-0.5,1c-0.6,1.3-0.8,2.7-0.7,4.1
					c0,0.6,0.1,1.4-0.3,1.9c-0.6,0.7-1.8,0.4-2.7,0c0,0,0,0-0.1,0c-1.3-0.6-2.6-1.1-3.8-1.7"/>
				<path class="st4" d="M165,261.7c0,0.1,0,0.2,0,0.3c0.7,5.6-2.9,10.8-5.2,16c-1.6,3.6-2.7,7.5-3.1,11.5c-0.2,1.8-0.3,3.6-0.2,5.4
					c0.1,2.2,0.3,4.4-0.1,6.6c-0.1,0.4-0.2,0.7-0.3,1.1c-0.5,1.7-1.6,3.3-3.2,4"/>
				<path class="st4" d="M161.2,188.4c-2.8,2.4-4.9,5.6-7.7,7.9c-0.6,0.5-1.3,1-2.1,1.4c-0.1,0-0.1,0.1-0.2,0.1
					c-0.1,0.1-0.1,0.1-0.2,0.1c-4,1.9-9,0.7-12.2-2.2c-0.5-0.4-0.9-0.9-1.3-1.4c-0.8-1.1-1.5-2.4-1.8-3.8c0.8,1.3,1.7,2.5,2.9,3.5
					c1.9,1.8,4.3,3,6.8,3.6c0.5,0.1,1,0.2,1.6,0.3c0.9,0.1,1.7,0.1,2.6,0.1c0.6,0,1.2-0.1,1.8-0.2c1.4-0.3,2.7-0.7,4-1.3
					c1.6-0.8,3.1-1.9,4.3-3.1c-1,1.3-2.3,2.4-3.8,3.1l0,0c-1.4,0.7-3,1.2-4.7,1.4c-0.5,0.1-1.1,0.1-1.6,0.1c-0.4,0-0.8,0-1.3,0
					c-1,0-1.9-0.2-2.9-0.3c-2.3-0.4-4.5-1.1-6.6-1.9c-0.9-0.3-1.8-0.7-2.7-1"/>
				<path class="st4" d="M125.9,194.5c-3.2-1.4-6.5-2.4-10-2.8"/>
				<path class="st4" d="M112.4,260.2c1.3-0.5,2.7-0.9,4.1-1.3c4.4-1.1,8.9-1.5,13.4-1.1"/>
				<path class="st4" d="M107.9,262.2c0.3-0.1,0.6-0.3,1-0.5c1-0.5,2-0.9,3-1.3"/>
				<path class="st4" d="M79.1,243.8c0.6,1.4,1.3,2.7,2,4.1c1.5,2.9,3.4,5.6,5.9,7.6c0.2,0.2,0.5,0.4,0.8,0.6c2,1.4,4.3,2.2,6.6,3
					c0.5,0.2,1,0.4,1.4,0.5"/>
				<path class="st4" d="M146.9,309.7c1.3-1,2.6-2,3.7-3.2"/>
				<path class="st4" d="M146.9,309.7c-2.1,2.4-5.1,4.1-8.2,4.6C141.6,313.2,144.4,311.6,146.9,309.7z"/>
				<path class="st4" d="M106.6,308.7c-2.7-1-5.3-2.4-7.8-3.7c1.4,1,2.9,1.9,4.5,2.7c7.5,4.1,16.1,6.3,24.6,6.2
					c-2.3,0.1-4.5,0.1-6.8,0.2c6.8,1.4,13.8,1.9,20.7,1.5c0.1,0,0.3,0,0.4,0c1.6-0.1,3.2-0.3,4.6-1c1.6-0.7,2.8-1.9,3.7-3.3
					c1-1.4,1.7-3.1,2.3-4.8c0,0,0-0.1,0.1-0.1c0.3-0.9,0.6-1.8,0.8-2.7c-1.5-1-3.6-0.2-5.3,0.6c-0.9,0.4-1.9,0.9-2.8,1.4
					c-5.4,2.6-10.8,5.2-16.3,7.8c5.3,0.3,10.8-1.5,14.9-4.9c-3,2.6-6.5,4.8-10.2,6.3c2.8-0.9,5.5-2.2,8.1-3.7c2.3-1.4,4.4-3.1,6.4-5
					c0.9-0.9,1.7-1.7,2.5-2.7c-1.2,0.8-2.4,1.6-3.5,2.5c-1.9,1.5-3.8,3.3-5.4,5.1c-0.3,0.3-0.5,0.6-0.8,0.9c3-1,5.6-2.9,7.6-5.3
					c-0.5,1.1-1.2,2.1-2.1,3"/>
				<path class="st4" d="M106.6,308.7c2,0.5,4,1,6,1.5C110.6,309.9,108.6,309.4,106.6,308.7z"/>
				<path class="st4" d="M86.4,301.6c4.3,1.9,8.7,3.5,13.1,4.9c0.1,0.1,0.3,0.1,0.4,0.1c1.1,0.4,2.3,0.7,3.4,1s2.2,0.7,3.3,1"/>
				<path class="st4" d="M90.4,301.1c1.2,0.5,2.4,1,3.5,1.6c-0.3,0-0.7,0.1-1,0.1c-2.2,0.1-4.4-0.3-6.5-1.1
					c-0.3-0.1-0.5-0.2-0.8-0.3"/>
				<path class="st4" d="M90.4,301.1c-2.9-1.8-5.9-3.5-9.2-4.1C84.2,298.4,87.3,299.7,90.4,301.1z"/>
				<path class="st4" d="M79.3,294.5c0.5-0.5,1.2-0.8,1.8-0.9c1.7-0.2,3.8,0.9,5.4,2.1c0.2,0.1,0.4,0.3,0.6,0.4
					c4.3,3.5,8.5,7,12.8,10.5c0,0,0.1,0.1,0.2,0.1c-0.2-0.1-0.4-0.2-0.5-0.3c-2.3-1-4.5-2.4-6.6-3.8c-0.8-0.5-1.7-1.1-2.5-1.6"/>
				<path class="st4" d="M154.3,191.7c0.1-0.5,0.1-1.1,0.2-1.6c0.4-3.8,0.1-7.9-3-9.9c-2.9-1.9-6.8-0.7-9.8,1.1c-2,1.2-4,3.3-4,5.5
					c0,0.3,0,0.7,0.2,1l0,0"/>
				<path class="st4" d="M115.3,185.8c0.4-4.1,3.3-7.9,7.2-9.2c0.4-0.1,0.8-0.3,1.2-0.4c3.6-0.8,7.6,0.3,10.2,2.9"/>
				<path class="st4" d="M189.7,133.6c0.6,2.5,0.7,5.2,0.8,7.8c0,1.2,0.1,2.4,0.2,3.6c0.2,2.2,0.5,4.3,0.9,6.5
					c1.7,8.6,5,17.1,6.1,25.8c0.1,0.4,0.1,0.7,0.1,1.1c0.2,1.5,0.2,3.1,0.2,4.6c-0.1,4.9-1.1,10-1.5,14.9c-0.3,3.6-0.1,7.2,1.1,10.7
					"/>
				<path class="st4" d="M189.2,182.5c-3.5-3.9-8.7-6.3-13.9-6"/>
				<path class="st4" d="M194.3,196.5c-0.6-2.4-0.8-5-1.4-7.4c-0.7-2.4-2-4.7-3.6-6.6"/>
				<path class="st4" d="M196.1,189.7c-0.2-0.9-0.4-1.7-0.7-2.6c-2.3-7.7-6.7-14.8-12.8-20.1"/>
				<path class="st4" d="M189.2,182.5L189.2,182.5c-3-0.3-6-0.6-9.1-0.8c-2.8-0.3-5.5-0.5-8.3-0.8"/>
				<path class="st4" d="M141.2,163.7c4.2,0.4,8.5,0.2,12.7-0.4"/>
				<path class="st4" d="M92.6,259.4c1.7,0.5,3.1,1.8,4.5,2.8c7.9,6,20.4,4.6,26.9-2.9c-5.2,1.8-10.8,3.6-16.1,2.8
					c-1.1-0.1-2.1-0.4-3.2-0.8s-2.1-0.9-3.1-1.5c-3.8-2.3-7-5.8-10.9-7.8c-0.8-0.4-1.7-0.8-2.6-1.1c-2.4-0.8-5.4-1.3-6.6-3.3
					c-0.2-0.3-0.3-0.6-0.4-0.9c2.2,1.1,4.3,2.4,6.5,3.6c1,0.6,2.1,1.1,3.1,1.7c6.9,3.6,14.2,6.3,21.7,8.2c0.5,0.1,0.9,0.2,1.4,0.3"
					/>
				<path class="st3" d="M152.4,266.5c0,0.3-0.1,0.6-0.1,0.9c-0.9,7.1-1.9,14.2-2.8,21.3c-0.4,3-0.5,6.5,1.9,8.2
					c0.8-2.5,1.4-5.1,1.6-7.7c0.2-1.5,0.3-2.9,0.3-4.4c0,4.8,0,9.5,0,14.3"/>
				<path class="st3" d="M127.4,259.1c-0.5,5.2-3.8,9.7-5.6,14.6c-1.9,5.3-2,11.1-2.1,16.7c0,3.6-0.1,7.2-0.2,10.9
					c0,3.4-0.1,6.7-0.1,10.1c2.9-2,2.7-5.9,3.1-9.6c0.2-1.9,0.5-3.7,1.5-5.2"/>
				<line class="st3" x1="127.4" y1="259.1" x2="127.4" y2="259.1"/>
				<path class="st3" d="M129.5,264.4c3.5,12.4-1.8,25.5-1.7,38.3c0,2,0.1,4,0.5,5.9c0.1,0.8,0.6,1.9,1.4,1.8c0.5,0,0.8-0.4,1.1-0.8
					c1.4-1.8,2.5-3.8,3.3-5.9c1.9-5,2.2-10.7,2.1-16.1c-0.2-7.7-1.2-15.6,0.9-23"/>
				<path class="st3" d="M85.6,257.1c0.6,12.1-0.9,24.4-4.5,36"/>
			</g>
		</g>
		<text transform="matrix(1 0 0 1 326.9362 128.1277)" style="fill:#FFFFFF; font-family:'ArialMT'; font-size:121px;">Банк </text>
		
			<text transform="matrix(1 0 0 1 326.9362 128.1277)" style="fill:none;stroke:#FFFFFF;stroke-miterlimit:10; font-family:'ArialMT'; font-size:121px;">Банк </text>
		<text transform="matrix(1 0 0 1 326.9362 273.3277)" style="fill:#FFFFFF; font-family:'ArialMT'; font-size:121px;">Чёткий</text>
		
			<text transform="matrix(1 0 0 1 326.9362 273.3277)" style="fill:none;stroke:#FFFFFF;stroke-miterlimit:10; font-family:'ArialMT'; font-size:121px;">Чёткий</text>
	</g>
</g>
<g id="Слой_2_1_" class="st1">
	<rect class="st5" width="321" height="321"/>
</g>
</svg>
