<?xml version="1.0" encoding="utf-8"?>
<!-- Generator: Adobe Illustrator 21.1.0, SVG Export Plug-In . SVG Version: 6.00 Build 0)  -->
<svg version="1.1" id="Слой_1" xmlns="http://www.w3.org/2000/svg" xmlns:xlink="http://www.w3.org/1999/xlink" x="0px" y="0px"
	 viewBox="0 0 500 100" style="enable-background:new 0 0 500 100;" xml:space="preserve">
<style type="text/css">
	.st0{fill:none;}
	.st1{fill:#D5F100;}
	.st2{fill:#37AEFF;}
	.st3{fill:#FFFFFF;}
</style>
<g>
	<path class="st0" d="M427.8-1c0.1,0.3,0.2,0.7,0.4,1h0.5C428.3-0.4,428-0.7,427.8-1z"/>
	<path class="st0" d="M439-14.7c-0.3,0-0.7-0.2-1.1-0.5c-0.6-0.1-1.1-0.1-1.6,0.5l1.2,1.6C438-13.9,438.6-14.4,439-14.7z"/>
	<polygon class="st0" points="501.5,-54.2 501.4,-54.2 501.5,-54.2 	"/>
	<path class="st0" d="M431.4-4.9c-0.1-0.2-0.2-0.4-0.3-0.6C430.8-5.3,431.1-5.2,431.4-4.9z"/>
	<path class="st0" d="M482.7-38.2c-0.7,0-1.2,0,0,0.1C482.7-38.2,482.7-38.2,482.7-38.2z"/>
	<path class="st0" d="M501.6-54.1c0.2,0,0-0.1-0.2-0.1C501.5-54.2,501.6-54.1,501.6-54.1C501.6-54,501.6-54.1,501.6-54.1z"/>
	<path class="st0" d="M438.1-0.2c0,0.1,0,0.2,0,0.2h0C438.2-0.1,438.1-0.2,438.1-0.2z"/>
	<path class="st0" d="M502-53.5c-0.1-0.2-0.2-0.4-0.4-0.5C501.6-53.7,501.3-53.3,502-53.5z"/>
	<path class="st1" d="M431.6,102.1l0.3,0.9h2C433.3,102.3,432.4,101.8,431.6,102.1z"/>
	<path class="st1" d="M430.9,103h0.5l-0.3-0.2C431,102.8,430.9,102.9,430.9,103z"/>
	<path class="st1" d="M502.1,60.4v-0.7C501.9,59.9,502,60.2,502.1,60.4z"/>
	<path class="st1" d="M408.9,101.5c1.9-0.9,3.5-2.1,5.1-3.4c1.6-1.3,3.1-2.7,4.8-3.8c1.7-1.1,3.5-2.1,5.7-2.4
		c0.3-0.5-0.4-1.1-0.9-1.4c2.6,1.2,0.5-1.8,1-2.6l3.7,1.8c0.2-1.4-1-1.9-1.3-2.5c3.1-2.8,8.3-2,10-5.5c1.6,0.5,1.3,2.5,2.7,2.2
		c-3.5-2.1,2.6-3.6,0.2-5.1c3.1,2.6,4.7-1.9,6.9,3c1.6-0.6,0-2.7-0.6-2.8c1.8-0.8,3.1-1.6,3.6-3.8c0.8,0.3,2.5-1.1,4.5-2.2
		c2-1.1,4.2-2,6-0.6c-2.3-1.7-0.6-1.2-0.1-2.8l-2-1.5l2.4-1c0.4-0.4,0.5-0.4,0.6-0.2c0.4-0.1,0.5,1.2,1.8,1.2
		c1.6-0.7,1.1-1.9,1.3-3.4l-0.4-0.2l0.9-0.7c0.8-0.3-1.6,3.5,1.4,3.2c-0.3-0.6-0.2-4.1,1.2-2.9c-1.3,0.6-0.4,1.9,0.4,2.3l1.9-0.8
		l-2-2.3c1.3-0.7,2.7-1.2,4.1-1.7c0.7-0.2,1.4-0.5,2.1-0.7c0.2-0.1,0.3-0.1,0.4-0.1l0.3,0l0.6-0.1c1.7-0.3,3.7-0.7,5.2-1.6
		c1.4,0.7,2.1,0.4,2.9,0.2c0.8-0.2,1.9-0.4,4.2,0.5l-0.6-0.1c-0.3,0.4,0.7,0.7,1.9,0.8c1.2,0.1,2.6,0,2.8-0.4
		c-1.4,0.1-2.2-0.6-3.2-1.1c-1-0.5-2.1-0.8-3.4-0.4c-0.3-0.5-0.7-1-1.2-1.5c-5-1.5-4.5-1.6-2.6-1.9c0.9-0.2,2.2-0.4,3.1-0.7
		c0.9-0.3,1.4-0.7,0.4-1.1c0.5,0.1,1.2,0.1,1.6,0.1c-1.8-0.6-0.8-1.5,0.1-2.4c0.8-0.9,1.6-1.7,0.4-1.5l3.5-1.1
		c-2.5,0.2-4.1,0.4-5.2,0.6c-10.6,5.1-22.4,7.5-34.1,6.8c-20.3-1.2-38.9-11.2-58.7-16.2c-77.6-19.8-159.5,38.8-236.9,18.2
		c-13-3.5-25.5-9.1-38.6-12c-13.1-2.9-26.7-3.1-40.1-2.7c-27,0.8-54.4,3.7-79.6,13.3V103h405.7c-0.2-0.1-0.4-0.1-0.6-0.2
		C404.8,102.9,407,102.4,408.9,101.5z"/>
	<path class="st1" d="M502.1,38.3v-1.1c-0.4,0.3-0.7,0.6-1.1,1C501.4,38.3,501.8,38.3,502.1,38.3z"/>
	<path class="st1" d="M461.8,67.6l-0.6-0.3C461.3,67.9,461.3,68.5,461.8,67.6z"/>
	<path class="st2" d="M116.9,45.5c13.2,2.9,25.6,8.6,38.6,12c77.4,20.5,159.3-38,236.9-18.2c19.7,5,38.4,15,58.7,16.2
		c11.7,0.7,23.5-1.7,34.1-6.8c-0.4,0.1-0.8,0.1-1,0.1c-0.9,0-0.9-0.2-0.9-0.9c0.5-0.2,1.5-0.5,1.8-0.9c-2.6,0.8-4.9,1.7-5.4,1.2
		l0.8-0.4l-2.1-0.2c3-2.4,1-1.9-0.6-1.5c-1.7,0.5-2.8,1-1.4-2.1c-0.7,0.7-1.5,1.1-2.1,1.4c-0.3,0.1-0.6,0.3-0.9,0.4
		c-0.3,0.1-0.4,0.3-0.8,0.4c-0.1,0.4-0.3,0.7-0.8,0.9c0-0.4,0.3-0.7,0.8-0.9c0.1-0.3,0.1-0.5,0-0.9c-2.2,2.8-3.5-2-5.1-2
		c-1.1,0.5-1,1.6-0.9,2.7c-1.2-3-5.9,1.4-6.3,0.2c-1.3-0.6,0.1-2.4,0.1-3.8c-2.2,0-1.1,5.4-3.2,2.3c0.4-0.2,1-0.2,0.9-0.6
		c-0.9-0.8-0.9-8.1-2.4-7l0.4,1.2c-2.3,1-3.2-6-4.6-2.1l-0.3,1.9c-2.6-3.3-1.6,0.4-4.3-2.7l0.1-0.3c-1.5,0-1.7-2.6-3.2,0.2l0.4,0.5
		c-1.9-0.2-2-0.5-3.7-1.2c-0.3,0.2-1.3,0.4-1.4-0.3c-0.4,1.2-1.6,1.2-2.8,0.8c-1.2-0.4-2.5-1.3-3-1.5c1.8,0.2,1.3-1.1,1.2-2.2
		c-1.5,1.7-2.7,1.5-3.4-0.5c-0.9,1.4-1.8,2.8-2.9,3.6c-1.2,0.8-2.7,1.1-4.5,0c0.8,0,1.8,0.3,1.9-0.5c0.1-0.7-1.1-0.6-1.6-0.7
		c0.1-0.7,1.4-0.4,1.8-1.5c-2,0.5-3-0.2-3.8-1.2c-0.8-1-1.4-2.2-2.9-3.4c1.5,0.4,1.4-0.8,2.1-1.7c-0.9,0.5-1.3,0.2-1.5-0.3
		c-0.4-1.4,1.1-4-1.6-1.8c-0.1-1.9-0.3-3.8-0.4-5.7c-0.1-1.9-0.1-3.9,0.2-5.7c0.5-3.6,1.9-6.6,3.8-7.1c0.7,0,0.8-0.6,0.8-1.3
		c0-0.7-0.1-1.6,0.2-2.1l1.3,1c-0.3-1.5-0.2-2.2-0.1-2.8H-2.8v56.1c25.3-9.6,52.6-12.5,79.6-13.3C90.2,42.5,103.8,42.6,116.9,45.5z"
		/>
	<path class="st2" d="M432.1,30.1c1.1,0,2.1-0.1,3-0.3c-0.1-0.5-0.3-1.4-0.4-2.4c-0.4,0.3-0.9,0.5-1.3,0.7
		C432.6,28.9,431.9,29.6,432.1,30.1z"/>
	<path class="st2" d="M468.4,27.5c0-1.2-1.2-0.2-1.7,0.1C467.3,28.4,467.4,29.5,468.4,27.5z"/>
	<path class="st2" d="M434.6,23.8c0-0.8-0.2-1.2-0.7-0.8C433.9,23.6,434.2,23.8,434.6,23.8z"/>
	<path class="st2" d="M500.5,38.1c0.2,0,0.3,0.1,0.5,0.1c0.4-0.3,0.7-0.6,1.1-1v-1.7c-0.4,0.4-1.3,0.8-1.9,1.2
		C499.3,37.2,498.8,37.7,500.5,38.1z"/>
	<path class="st3" d="M520.6-87.2c0.2-0.4-1.4-0.6-1.7-0.7C519.1-87.1,521.1-87.2,520.6-87.2z"/>
	<polygon class="st3" points="522.3,-78.8 521.7,-79.1 522.9,-77.5 	"/>
	<path class="st3" d="M520.3-76.7c-0.1,0.8-0.1,1.8-0.1,2.8c-0.1,0.9-0.3,1.8-0.9,2.1c1.4,0.3,1.6-0.4,1.7-1.2
		c0-0.8-0.2-1.9,0.5-2.3l0.7,0L520.3-76.7z"/>
	<path class="st3" d="M512.8-71.9c-0.1,0-0.2,0-0.3,0c-0.1,0.1-0.2,0.3-0.4,0.6C513.2-70.9,512.5-70.1,512.8-71.9z"/>
	<path class="st3" d="M512.5-71.9C512.8-72.5,511.4-71.9,512.5-71.9L512.5-71.9z"/>
	<path class="st3" d="M511.3-68.6l-0.3-1.4c-0.7-0.2-1.2,0.5-1.5,0C509.4-68.9,510.1-68.7,511.3-68.6z"/>
	<path class="st3" d="M512.6-66.7l-0.1-0.7C512.2-67.4,512-67.3,512.6-66.7z"/>
	<path class="st3" d="M512.3-68.7l0.2,1.4c0.5,0.1,1.3,0.6,0-0.6C513.1-67.4,512.6-68,512.3-68.7z"/>
	<path class="st3" d="M514.9-68.3c0.4-0.9,0-1.6-0.5-1.8c-0.5-0.2-1.1,0.1-1.4,1C513.8-69.2,514.6-69.6,514.9-68.3z"/>
	<path class="st3" d="M522.4-71.6c0.3,0.5-1.4,1.1-0.6,1.4l1.1-0.4L522.4-71.6z"/>
	<path class="st3" d="M508.7-64.3c-0.6,0.1-1.3,0.4-2.1-0.1c0.4,0.4,1.5,0.7,2.2,1.1L508.7-64.3z"/>
	<path class="st3" d="M508.8-63.3l0.2,1.5C509.6-62.5,509.3-62.9,508.8-63.3z"/>
	<path class="st3" d="M515.1-64.8c-0.3-0.9-0.6-1.9-0.9-2.8c0.2,1,0.5,2.1,0.7,3.1L515.1-64.8z"/>
	<polygon class="st3" points="504,-61.2 503.3,-62.6 504.2,-60.3 	"/>
	<path class="st3" d="M502.3-58.9c-0.6-1.1-1.9-0.9-2.1-1.7c-0.3,0.7,0,1.8,0.2,2.9C500.5-58.5,501-58.9,502.3-58.9z"/>
	<path class="st3" d="M500.7-56.1c0-0.4-0.1-1-0.3-1.6C500.4-57.3,500.5-56.8,500.7-56.1z"/>
	<path class="st3" d="M507.5-60.4c-0.3-0.2-1.2-0.6-1.9-0.4l1.6,0.7C507.3-60.2,507.4-60.3,507.5-60.4z"/>
	<path class="st3" d="M506.5-59.4c0.1-0.1,0.3-0.3,0.7-0.7l-0.1,0C506.8-59.7,506.6-59.5,506.5-59.4z"/>
	<path class="st3" d="M507.6-60.5C507.5-60.5,507.5-60.4,507.6-60.5C507.7-60.3,507.7-60.3,507.6-60.5z"/>
	<path class="st3" d="M512.1-63.1c0.4,1.1,0.3,2.9,2.4,2.6C513.8-61.6,512.7-61.4,512.1-63.1z"/>
	<path class="st3" d="M510.7-60.3c-0.4-0.3-1-0.5-1.2-1c0.1,0.6,0.1,1.2,0.1,1.8C510-59.8,510.3-60.1,510.7-60.3z"/>
	<polygon class="st3" points="509.6,-58.8 509.6,-59.6 509.2,-59.3 	"/>
	<path class="st3" d="M503.3-56.5c0.2,0.9-0.2,1.3-0.5,1.9c0.7-0.3,1.4-0.7,1.8-1.2C504.2-56.2,503.7-57.1,503.3-56.5z"/>
	<path class="st3" d="M505.3-58.1c0,0.1,0,0.1,0,0.2C505.5-57.9,505.6-57.9,505.3-58.1z"/>
	<path class="st3" d="M498.4-49.9c-0.1-0.1-0.1-0.2-0.2-0.2l-0.1,0.1C498.2-50.1,498.3-50,498.4-49.9z"/>
	<path class="st3" d="M504.9-55.7c0.6-0.2,0.5-0.7,0.3-1.3c-0.1,0.4-0.3,0.8-0.6,1.1C504.7-55.6,504.8-55.5,504.9-55.7z"/>
	<path class="st3" d="M500-54.3c0.5,0.1,0.9,0.1,1.3,0C500.8-54.5,499.8-54.7,500-54.3z"/>
	<path class="st3" d="M504.9-58.1c0,0,0-0.1,0-0.1C504.5-58.4,504.6-58.3,504.9-58.1z"/>
	<path class="st3" d="M504.9-58.1c0,0.4,0.2,0.8,0.3,1.2c0.1-0.3,0.2-0.7,0.1-1C505.2-58,505-58.1,504.9-58.1z"/>
	<path class="st3" d="M498.9-47.4c0.9,0.4,3.5-0.4,3.6,1.4c-0.7,1.7-1.4,0.5-2.6,0.4c0.9,0.5,1,1.4,1.1,2.4c0.1,1,0.2,2.2,1.3,3.1
		c0.2-0.6,0.4-1.2,0.5-1.8c0.3,0.3,0.4,1.2,1,1.3c-1-1.3-0.8-3.4,1.3-3c0.2-1.8-4.1-5-6.8-6.4C498.8-49.4,499.3-48.9,498.9-47.4z"/>
	<path class="st3" d="M500.2-51.7l0,0.3l0.2-0.5c-0.6,0.2-1.3,0-2.7-0.4c-0.1,1.1,0.2,1.7,0.5,2.1C498.9-50.7,499.5-51.2,500.2-51.7
		z"/>
	<path class="st3" d="M502-53.5c1,1.5,0.6,2.9,2.4,3.7c1-1.2-0.3-1.8-0.2-2.9c-1.4,2-0.2-1.2-2.1-0.6c0.1-0.5,0.3-0.9,0.6-1.2
		c-0.4,0.2-0.9,0.3-1.4,0.3c0,0,0.1,0,0.1,0l0,0l0,0c0.2,0.1,0.3,0.1,0.2,0.1c0,0,0,0,0,0.1C501.8-53.8,501.9-53.7,502-53.5
		c-0.7,0.2-0.4-0.2-0.4-0.5c-0.1-0.1-0.1-0.1-0.2-0.2l0,0c-0.3,0.8-0.7,1.5-1,2.3C500.9-52.1,501.4-52.5,502-53.5z"/>
	<path class="st3" d="M516.7-57.3c-0.2,0-0.3-0.1-0.4-0.2C516.4-57.2,516.4-57,516.7-57.3z"/>
	<path class="st3" d="M514.7-58.8l0.1,0.3c-0.9,0.4-2.6,0.3-3.3,0c1.2,0.6,2.2,1.1,3.7,1.4c-0.1-0.3-0.5-0.8,0-1.2
		c0.7-0.1,0.7,0.5,1.1,0.8C516.2-58,516.1-59.2,514.7-58.8z"/>
	<path class="st3" d="M511.5-58.4c-0.1-0.1-0.2-0.1-0.3-0.2C511.2-58.6,511.3-58.5,511.5-58.4z"/>
	<path class="st3" d="M508.9-54.6l-0.7,2.1l1.8,0.2l-0.7-0.6C510.3-53.5,509.3-54.1,508.9-54.6z"/>
	<polygon class="st3" points="497.4,-50.6 496.3,-52.1 497.2,-49.4 	"/>
	<polygon class="st3" points="495.6,-48.7 494.6,-50 494.7,-48.8 	"/>
	<path class="st3" d="M478.6,30l1.2-0.2C479.2,29.9,478.9,29.9,478.6,30z"/>
	<path class="st3" d="M473.6,28.6l-0.3,0.7C473.6,28.9,473.8,28.7,473.6,28.6z"/>
	<path class="st3" d="M433.4,28.1c0.4-0.2,0.8-0.4,1.3-0.7c0-0.2,0-0.4,0-0.6C434.3,27.3,433.8,27.7,433.4,28.1z"/>
	<path class="st3" d="M438.4,22.3c-0.1-0.4-0.3-0.9-0.6-1.4C438,21.3,438.2,21.8,438.4,22.3z"/>
	<path class="st3" d="M511.2,43.7c0.8,0.1,1.5,0.2,2.2,0.4C512.8,42.8,512.1,43.6,511.2,43.7z"/>
	<path class="st3" d="M473.7-32.9c-1-0.2-1.7-0.2-2.2,0C472.8-32.5,474.2-31.6,473.7-32.9z"/>
	<path class="st3" d="M471.5,47.2c0.5-0.2,0.7-0.5,0.8-0.9C471.8,46.5,471.5,46.8,471.5,47.2z"/>
	<path class="st3" d="M471.5-32.9c-1-0.3-1.9-0.3-1.9,1.1c0.2,0.1,0.4,0.1,0.6,0.2C470.5-32.2,470.8-32.7,471.5-32.9z"/>
	<path class="st3" d="M433.8,104.3c-0.1,0-0.2,0-0.3-0.1C433.6,104.5,433.7,104.4,433.8,104.3z"/>
	<path class="st3" d="M401.9,105.1c0.2-0.2,0.5-0.5,0.8-0.8C402.5,104.3,402.3,104.5,401.9,105.1z"/>
	<path class="st3" d="M486.9-42.9C487.3-43.4,486.9-43.2,486.9-42.9L486.9-42.9z"/>
	<path class="st3" d="M493.2-39c0,0.2,0.1,0.5,0.3,0.8C493.3-38.6,493.2-38.8,493.2-39z"/>
	<path class="st3" d="M469.5-19.5C469.5-19.5,469.4-19.5,469.5-19.5C469.7-19.3,469.7-19.3,469.5-19.5z"/>
	<path class="st3" d="M487.2-42.8c0.2,0,0.4,0.1,0.9,0C487.8-42.8,487.5-42.8,487.2-42.8z"/>
	<path class="st3" d="M487.5-43.4c0.2,0,0.3-0.1,0.5-0.1C487.9-43.8,487.7-43.9,487.5-43.4z"/>
	<path class="st3" d="M486.9-42.9c-0.1,0.1-0.3,0.3-0.6,0.5c0.2-0.2,0.5-0.3,0.8-0.4C487-42.8,486.9-42.9,486.9-42.9z"/>
	<path class="st3" d="M473,75.7c-0.1,0-0.1,0-0.2-0.1C472.7,76.6,472.8,76.4,473,75.7z"/>
	<path class="st3" d="M435.3,7.9C435.3,7.9,435.3,7.8,435.3,7.9c-0.1-0.1-0.1-0.1-0.1-0.1L435.3,7.9z"/>
	<path class="st3" d="M435.4,9.7c-0.4-0.4-0.6-0.7-0.8-1c-0.1-0.3-0.2-0.5-0.2-0.6c0-0.3,0.3-0.3,0.7-0.3c-1.3-1-2.7-2-4-3
		C432.5,6.6,433.9,8.2,435.4,9.7z"/>
	<path class="st3" d="M502.3,35.1c-0.1,0-0.1,0-0.2,0v0.4C502.2,35.4,502.3,35.2,502.3,35.1z"/>
	<path class="st3" d="M484.8-38.6c0-0.3-0.1-0.5-0.4-0.7c0.2,0.5-0.2,0.7-0.7,0.9C484.1-38,484.5-37.9,484.8-38.6z"/>
	<path class="st3" d="M505.1,61.7c-1.3,0-2.7-0.6-3.1-1.3v4C502.3,63.1,503.3,62.8,505.1,61.7z"/>
	<path class="st3" d="M434.4,103.5c-0.3,0-0.4,0.6-0.6,0.8c1.1,0.3,1.8-0.6,2.4-1.3h-2.3C434.1,103.2,434.3,103.3,434.4,103.5z"/>
	<polygon class="st3" points="432.1,103.5 431.9,103 431.4,103 	"/>
	<path class="st3" d="M431.1-5.5C431.1-5.5,431.1-5.5,431.1-5.5C431.1-5.5,431.1-5.5,431.1-5.5C431.1-5.5,431.1-5.5,431.1-5.5z"/>
	<path class="st3" d="M450.7,2l3.7-0.9c-0.2-0.4-0.3-0.7-0.4-1h-2.7C451.8,0.8,451,1.7,450.7,2z"/>
	<path class="st3" d="M475.9,29.8l0.2,0C476.1,29.8,476,29.7,475.9,29.8z"/>
	<path class="st3" d="M435.3,7.8c0.6,0,1.3,0,1.3-1.4c-0.5-0.1-3.4-2.6-3.2-3.2c1.6,0.8,2,1,2.5,1.1c0.5,0.1,0.9,0.2,2.3,0.8
		c-0.8-0.2-3-4.3-2.1-4.7c0.3,0.6,2.6,3.7,2.6,4.3c-0.3-1.5-0.4-3.1-0.5-4.7h-9.5c1,1,2.3,2.2,3.5,3.4C433.9,5,435.2,6.7,435.3,7.8z
		"/>
	<path class="st3" d="M441.1,3.9c-0.7-0.6,1.7-0.9,2-1.6l-1.4-0.4c0.8-0.2,1.1-0.9,1.1-1.9h-4.7C438.4,1.1,440.1,3.1,441.1,3.9z"/>
	<path class="st3" d="M437.4,21.6c0,0.3-0.1,0.7-0.2,1C437.5,22.4,437.6,22.1,437.4,21.6z"/>
	<path class="st3" d="M510.8,43.7C510.8,43.7,510.8,43.7,510.8,43.7c0.2,0.1,0.3,0.1,0.4,0.1L510.8,43.7z"/>
	<path class="st3" d="M465.7-9.1c-0.5-0.1-0.9-0.3-1.2-0.5C464.7-9.2,465-8.9,465.7-9.1z"/>
	<path class="st3" d="M491.5-46.1c-0.3-0.3-0.7-0.6-0.7-0.9l-0.6,1C490.7-46.3,491.1-46.1,491.5-46.1z"/>
	<path class="st3" d="M506.8-45c0-0.3,0.3-0.3,0.2-0.6l-0.7-0.6C505.9-45.6,505.9-44.7,506.8-45z"/>
	<path class="st3" d="M497.6-43.2c0,0-0.1,0.1-0.1,0.1c-1.3-1.9-1.5-0.7-1.7,0.4C496.9-41.5,497.2-42.4,497.6-43.2z"/>
	<path class="st3" d="M498.3-43.9c-0.5-0.8-0.4,0.1-0.6,0.5C497.9-43.6,498.1-43.8,498.3-43.9z"/>
	<path class="st3" d="M486.2-40.8c0.6,0.1-1-1.9-0.4-1.4C485-44.2,485-38.7,486.2-40.8z"/>
	<polygon class="st3" points="499.7,-39 498.2,-40.3 498.8,-38.8 	"/>
	<path class="st3" d="M493.1-35.8l1.5-0.4c-0.2-0.3-0.2-0.5-0.1-0.8C493.8-36.5,492.8-36.3,493.1-35.8z"/>
	<path class="st3" d="M495.3-38c-0.2,0.2-0.6,0.5-0.7,1C494.9-37.2,495.2-37.5,495.3-38z"/>
	<polygon class="st3" points="498.5,-37.3 497.9,-37.3 497,-36.8 	"/>
	<path class="st3" d="M478.9-26.5c0.2,0.7,0.8,0.8,1.2,0.3c0.1-0.6,0.5-1.1-0.1-1.6L478.9-26.5z"/>
	<path class="st3" d="M486.9-25.5c-0.6-0.1-0.9-0.5-1.4-0.9l1.3,2.1L486.9-25.5z"/>
	<path class="st3" d="M483.2-22.6c0.2,0.7-1,2.9,0.7,1.7C483.6-21.6,484.7-22.9,483.2-22.6z"/>
	<path class="st3" d="M446.1,3.9c2,0.1-0.8-2.4,1.2-2.1c-0.1-1.1-1.6-0.3-1.6-1.2C445.1,2,444.4,1.8,446.1,3.9z"/>
	<path class="st3" d="M445.8,0L445.8,0c0-0.1,0-0.1,0.1-0.2C445.8-0.1,445.8-0.1,445.8,0z"/>
	<path class="st3" d="M445.6,0.6c0.1-0.2,0.1-0.4,0.2-0.6h0C445.7,0.3,445.6,0.5,445.6,0.6z"/>
	<polygon class="st3" points="397,106.7 397,106 395.5,106 	"/>
	<path class="st3" d="M396,110.2c0.2-0.3,0.4-0.8,1-0.4l-1.8-1.9L396,110.2z"/>
	<path class="st3" d="M465.4,23.3l-0.5-1.7l-0.3,0.6C464.6,23,464.8,23.1,465.4,23.3z"/>
	<path class="st3" d="M481.6,28.1c0,0.8,0,1.6-0.1,2.4c0.2-0.7,0.4-1.5,0.6-2.2L481.6,28.1z"/>
	<path class="st3" d="M507.4,33.8c-0.3-0.3-0.8-0.4-1.3-0.6c-0.3-0.1-0.5-0.2-0.8-0.3C506.3,33.8,504.6,35.5,507.4,33.8z"/>
	<path class="st3" d="M505.3,32.9c-0.1-0.1-0.3-0.2-0.6-0.3C504.9,32.7,505.1,32.8,505.3,32.9z"/>
</g>
</svg>
