<?xml version="1.0" encoding="utf-8"?>
<!-- Generator: Adobe Illustrator 21.1.0, SVG Export Plug-In . SVG Version: 6.00 Build 0)  -->
<svg version="1.1" id="Слой_1" xmlns="http://www.w3.org/2000/svg" xmlns:xlink="http://www.w3.org/1999/xlink" x="0px" y="0px"
	 viewBox="0 0 50 50" style="enable-background:new 0 0 50 50;" xml:space="preserve">
<style type="text/css">
	.st0{fill:url(#SVGID_1_);}
	.st1{fill:#FFFFFF;}
	.st2{fill:url(#SVGID_2_);}
	.st3{fill:url(#SVGID_3_);}
	.st4{fill:url(#SVGID_4_);}
	.st5{fill:url(#SVGID_5_);}
	.st6{fill:url(#SVGID_6_);}
	.st7{fill:url(#SVGID_7_);}
	.st8{fill:url(#SVGID_8_);}
	.st9{fill:url(#SVGID_9_);}
	.st10{fill:url(#SVGID_10_);}
	.st11{fill:url(#SVGID_11_);}
	.st12{fill:url(#SVGID_12_);}
	.st13{fill:url(#SVGID_13_);}
	.st14{fill:url(#SVGID_14_);}
	.st15{fill:url(#SVGID_15_);}
	.st16{fill:url(#SVGID_16_);}
	.st17{fill:url(#SVGID_17_);}
	.st18{fill:url(#SVGID_18_);}
	.st19{fill:url(#SVGID_19_);}
	.st20{fill:url(#SVGID_20_);}
	.st21{fill:url(#SVGID_21_);}
	.st22{fill:url(#SVGID_22_);}
	.st23{fill:url(#SVGID_23_);}
	.st24{fill:url(#SVGID_24_);}
	.st25{fill:url(#SVGID_25_);}
	.st26{fill:url(#SVGID_26_);}
	.st27{fill:url(#SVGID_27_);}
	.st28{fill:url(#SVGID_28_);}
	.st29{fill:url(#SVGID_29_);}
	.st30{fill:url(#SVGID_30_);}
</style>
<g>
	<linearGradient id="SVGID_1_" gradientUnits="userSpaceOnUse" x1="28.6906" y1="21.3142" x2="33.9422" y2="21.3142">
		<stop  offset="0" style="stop-color:#FFFFFF"/>
		<stop  offset="1" style="stop-color:#000000"/>
	</linearGradient>
	<path class="st0" d="M33.9,15.2c-0.9,1.7-1.8,3.4-2.9,5.1c-0.7,1.1-1.4,2.2-1.9,3.3c-0.5,1.2-0.7,2.5-0.3,3.8"/>
	<g>
		<g>
			<g>
				<path class="st1" d="M33.6,18.5c0.3-0.6,0.5-1.3,0.6-1.9c0.1-0.4,0.1-0.9-0.1-0.9c-0.2,0-0.4,0.1-0.6,0.2
					c-1.1,0.7-2.2,2-3.2,3.2c-0.8,1-1.7,1.9-2.4,3.3c-0.7,1.3-1.3,3.1-0.9,5"/>
				<g>
					<path d="M34,18.5c0.9-2.1,0.9-3.8-0.8-2.8c-1.4,0.8-2.8,2.4-4.1,4.2c-0.7,0.9-1.5,2-2,3.3c-0.5,1.3-0.8,2.9-0.4,4.3
						c0.2,0.9,0.8,0.2,0.7-0.4c-0.3-1.6,0.1-3.1,0.7-4.3c0.6-1.2,1.4-2.2,2.1-3c0.6-0.7,1.8-2.1,2.6-2.9c0.9-0.7,1.4-0.8,0.5,1.4
						C33,18.9,33.8,19,34,18.5z"/>
				</g>
			</g>
			<g>
				<path class="st1" d="M33.6,18.3c0.2,0.6-0.3,1.8-0.8,2.7c-0.6,1.2-1.3,2.2-1.9,2.7c-0.3,0.2-0.5,0.3-0.7,0.4
					c-1.3,0.6-2.6,1.5-3.3,3.3"/>
				<g>
					<path d="M33.2,18.5c0.1,0.7-0.4,1.7-0.8,2.5c-0.9,1.7-1.4,2.3-2.6,3c-1.2,0.7-2.5,1.5-3.2,3.2c-0.3,0.8,0.5,1,0.6,0.6
						c0.4-1.4,1.3-2.3,2.3-2.9c0.7-0.4,1.4-0.5,2.1-1.3c0.5-0.5,1.2-1.4,1.7-2.6c0.5-1.1,0.9-2.2,0.8-2.9
						C34,17.7,33.2,17.9,33.2,18.5z"/>
				</g>
			</g>
			<g>
				<path class="st1" d="M33.6,18.5c-0.8,0.3-1.8,1.1-2.7,1.9c-0.8,0.6-1.7,1.3-2.5,2.2c-0.8,0.9-1.5,2.1-1.6,3.8"/>
				<g>
					<path d="M33.6,18.1c-1.3,0.5-2.4,1.7-3.8,2.7c-0.7,0.6-1.5,1.2-2.1,2.1c-0.6,0.9-1.2,2.1-1.3,3.6c0,0.9,0.7,0.5,0.7-0.2
						c0.1-1.1,0.5-2.1,1-2.8c0.5-0.8,1.1-1.3,1.7-1.9c1.3-1,2.6-2.2,3.8-2.7C34.3,18.6,34,17.9,33.6,18.1z"/>
				</g>
			</g>
		</g>
	</g>
</g>
<g>
	<linearGradient id="SVGID_2_" gradientUnits="userSpaceOnUse" x1="37.2408" y1="33.2476" x2="39.0563" y2="33.2476">
		<stop  offset="0" style="stop-color:#FFFFFF"/>
		<stop  offset="1" style="stop-color:#000000"/>
	</linearGradient>
	<path class="st2" d="M39,29.6c0.1,0.9-0.5,1.6-0.9,2.4c-0.8,1.5-1.1,3.2-0.9,4.9"/>
	<g>
		<g>
			<g>
				<path class="st1" d="M39.8,31.8c0.2-0.4,0.2-1,0.1-1.4c-0.1-0.4-0.3-0.6-0.5-0.6c-0.2,0-0.3,0.2-0.4,0.3
					c-0.7,0.5-1.4,0.8-2.1,1.8c-1.1,1.3-1.7,3.2-1.5,5.1"/>
				<g>
					<path d="M40.2,31.8c0.2-0.7,0.2-1.8-0.2-2.1c-0.4-0.4-0.8-0.1-1.3,0.2c-0.4,0.3-0.8,0.4-1.3,0.8c-0.5,0.3-1,1-1.4,1.7
						c-0.8,1.4-1.1,3.2-0.9,4.6c0,0.4,0.7,0.1,0.7-0.2c-0.1-1.6,0.3-3.2,1.1-4.4c0.2-0.3,0.5-0.6,0.8-0.9c0.3-0.3,0.7-0.5,1-0.7
						c0.3-0.2,0.5-0.3,0.7-0.2c0.2,0.1,0.3,0.5,0,1.3C39.3,32,40.1,32.2,40.2,31.8z"/>
				</g>
			</g>
			<g>
				<path class="st1" d="M39.8,31.7c0.1,0.2,0.1,0.5,0.1,0.8c-0.1,0.3-0.1,0.5-0.2,0.7c-0.2,0.5-0.3,1.1-0.7,1.4
					c-0.2,0.1-0.4,0.2-0.6,0.3c-1.1,0.4-2.1,1.1-3,2"/>
				<g>
					<path d="M39.4,31.7c0.1,0.2,0.1,0.5,0,0.8c0,0.2-0.1,0.5-0.2,0.7c-0.2,0.8-0.4,1.2-1.3,1.7c-1,0.5-2,1.1-2.9,1.9
						c-0.4,0.4,0.3,0.5,0.5,0.3c0.7-0.7,1.5-1.3,2.3-1.7c0.6-0.3,1.2-0.4,1.6-0.9c0.3-0.3,0.5-0.8,0.6-1.2c0.1-0.4,0.3-1.2,0.1-1.7
						C40,31.3,39.3,31.4,39.4,31.7z"/>
				</g>
			</g>
			<g>
				<path class="st1" d="M39.8,31.8c-0.7,0.1-1.4,0.4-2.1,0.9c-1.1,0.8-2.1,2-2.4,3.7"/>
				<g>
					<path d="M39.7,31.5c-0.5,0.1-1,0.3-1.5,0.5c-0.5,0.2-0.9,0.6-1.3,0.9c-0.9,0.8-1.7,2-1.9,3.5c-0.1,0.5,0.7,0.3,0.7-0.1
						c0.2-1.2,0.8-2.2,1.5-2.9c0.4-0.4,0.8-0.7,1.2-0.9c0.4-0.2,0.9-0.4,1.4-0.4C40.4,32,40,31.4,39.7,31.5z"/>
				</g>
			</g>
		</g>
	</g>
</g>
<g>
	<linearGradient id="SVGID_3_" gradientUnits="userSpaceOnUse" x1="19.3023" y1="40.1719" x2="22.536" y2="40.1719">
		<stop  offset="0" style="stop-color:#FFFFFF"/>
		<stop  offset="1" style="stop-color:#000000"/>
	</linearGradient>
	<path class="st3" d="M22.5,38.1c-1.4,1.1-2.5,2.5-3.2,4.1"/>
	<g>
		<g>
			<g>
				<path class="st1" d="M22.6,39.8c0.1-0.2,0.2-0.5,0.2-0.8c0-0.2,0-0.5-0.2-0.6c-0.1-0.1-0.3-0.2-0.4-0.2
					c-0.7-0.1-1.5,0.1-2.1,0.4c-1,0.6-1.9,1.5-2.4,2.5"/>
				<g>
					<path d="M22.9,40c0.3-0.7,0.3-1.7-0.9-2c-0.9-0.2-2,0.1-2.8,0.8c-0.9,0.6-1.5,1.6-1.9,2.4c-0.1,0.3,0.6,0.4,0.7,0.2
						c0.5-0.9,1.2-1.7,2.1-2.3c0.4-0.2,1.1-0.6,1.7-0.6c0.6,0,0.9,0.3,0.5,1.1C22.2,39.8,22.8,40.2,22.9,40z"/>
				</g>
			</g>
			<g>
				<path class="st1" d="M22.6,39.7c0.2,0.4,0,0.8-0.2,1.1c-0.2,0.4-0.4,0.7-0.9,0.8c-0.2,0-0.4,0-0.6-0.1c-1.1-0.2-2.2-0.3-3.3-0.3
					"/>
				<g>
					<path d="M22.3,39.6c0.1,0.4,0,0.8-0.2,1c-0.3,0.6-0.5,0.8-1.5,0.7c-1-0.1-2.1-0.3-3.1-0.3c-0.5,0,0,0.4,0.3,0.4
						c0.9,0,1.7,0,2.6,0.2c0.6,0.1,1.2,0.3,1.7,0.1c0.7-0.2,1.1-1.1,0.9-1.9C22.8,39.6,22.2,39.3,22.3,39.6z"/>
				</g>
			</g>
			<g>
				<path class="st1" d="M22.6,39.8c-0.6-0.3-1.2-0.3-1.8-0.2c-1,0.1-2.1,0.5-3,1.3"/>
				<g>
					<path d="M22.5,39.6c-0.8-0.3-1.7-0.2-2.5-0.1c-0.9,0.2-1.8,0.6-2.5,1.3c-0.2,0.2,0.5,0.5,0.7,0.3c0.6-0.6,1.3-0.9,2.1-1.1
						c0.8-0.2,1.6-0.3,2.4,0C23.1,40.2,22.8,39.7,22.5,39.6z"/>
				</g>
			</g>
		</g>
	</g>
</g>
<g>
	<linearGradient id="SVGID_4_" gradientUnits="userSpaceOnUse" x1="7.96" y1="42.3256" x2="10.7571" y2="42.3256">
		<stop  offset="0" style="stop-color:#FFFFFF"/>
		<stop  offset="1" style="stop-color:#000000"/>
	</linearGradient>
	<path class="st4" d="M10.8,40.8c-1.1,0.9-2.1,1.9-2.8,3.1"/>
	<g>
		<g>
			<g>
				<path class="st1" d="M10.9,42.3c0.1-0.2,0.1-0.4,0.1-0.7c0-0.2,0-0.4-0.2-0.6c-0.1-0.1-0.2-0.2-0.4-0.2
					c-0.6-0.2-1.3-0.1-1.9,0.1c-0.9,0.3-1.7,1-2.2,1.8"/>
				<g>
					<path d="M11.2,42.6c0.2-0.6,0.2-1.5-0.9-2c-0.8-0.3-1.7-0.2-2.5,0.3c-0.8,0.4-1.4,1.1-1.8,1.7c-0.1,0.2,0.6,0.5,0.6,0.3
						c0.5-0.7,1.1-1.3,1.9-1.6c0.3-0.1,1-0.3,1.5-0.3c0.5,0.1,0.8,0.4,0.5,1C10.6,42.3,11.2,42.7,11.2,42.6z"/>
				</g>
			</g>
			<g>
				<path class="st1" d="M10.9,42.2c0.2,0.4,0.1,0.7-0.1,1c-0.2,0.3-0.4,0.6-0.8,0.5c-0.2,0-0.4-0.1-0.5-0.2c-1-0.4-2-0.6-3.1-0.8"
					/>
				<g>
					<path d="M10.6,42.1c0.1,0.4,0,0.7-0.1,0.9c-0.3,0.4-0.5,0.6-1.4,0.3c-0.9-0.3-1.9-0.6-2.9-0.8c-0.5-0.1,0,0.3,0.3,0.4
						c0.8,0.1,1.6,0.3,2.4,0.6c0.5,0.2,1.1,0.4,1.6,0.4c0.6-0.1,1-0.8,0.7-1.6C11.1,42.2,10.5,41.8,10.6,42.1z"/>
				</g>
			</g>
			<g>
				<path class="st1" d="M10.9,42.3c-0.5-0.3-1.1-0.4-1.7-0.4c-0.9,0-2,0.1-2.7,0.6"/>
				<g>
					<path d="M10.8,42.1c-0.8-0.4-1.5-0.5-2.3-0.4c-0.8,0-1.7,0.2-2.3,0.7c-0.2,0.1,0.4,0.5,0.6,0.4c0.6-0.4,1.2-0.5,1.9-0.6
						c0.7,0,1.5,0,2.2,0.4C11.4,42.8,11.1,42.2,10.8,42.1z"/>
				</g>
			</g>
		</g>
	</g>
</g>
<g>
	<linearGradient id="SVGID_5_" gradientUnits="userSpaceOnUse" x1="8.784" y1="25.3211" x2="12.7699" y2="25.3211">
		<stop  offset="0" style="stop-color:#FFFFFF"/>
		<stop  offset="1" style="stop-color:#000000"/>
	</linearGradient>
	<path class="st5" d="M12.8,22.8c-0.4,0.5-0.7,1-1.1,1.5c-0.9,1.2-1.8,2.5-2.9,3.6"/>
	<g>
		<g>
			<g>
				<path class="st1" d="M13,24.7c0.1-0.3,0.2-0.6,0.2-1c0-0.2-0.1-0.5-0.3-0.6c-0.1-0.1-0.3-0.1-0.5-0.1c-0.8,0.1-1.5,0.5-2.2,1
					c-1,0.7-1.9,1.5-2.7,2.3"/>
				<g>
					<path d="M13.4,24.8c0.4-1,0.2-2.1-1.1-2c-1,0.1-2,0.7-2.8,1.3c-0.8,0.7-1.6,1.4-2.1,2c-0.2,0.2,0.4,0.6,0.6,0.4
						c0.7-0.7,1.5-1.5,2.4-2.1c0.7-0.5,3.2-2.1,2.4,0.1C12.6,24.8,13.3,25.1,13.4,24.8z"/>
				</g>
			</g>
			<g>
				<path class="st1" d="M13,24.6c0.2,0.4,0,1-0.3,1.4c-0.3,0.5-0.7,1.1-1.3,1.2c-0.2,0-0.4,0-0.7,0c-1.1-0.2-2.2-0.5-3.3-0.8"/>
				<g>
					<path d="M12.6,24.6c0.2,0.5-0.1,0.9-0.3,1.3c-0.4,0.8-0.8,1.2-1.9,1.1c-1.1-0.1-2.1-0.5-3.1-0.8C7,26,7.3,26.5,7.6,26.6
						c0.8,0.3,1.7,0.5,2.5,0.7c0.6,0.1,1.3,0.3,1.9,0.1c0.9-0.4,1.6-1.8,1.3-2.7C13.2,24.4,12.5,24.2,12.6,24.6z"/>
				</g>
			</g>
			<g>
				<path class="st1" d="M13,24.7c-0.7-0.1-1.4,0.1-2,0.3c-1.1,0.3-2.3,0.6-3.2,1.2"/>
				<g>
					<path d="M12.9,24.5c-1-0.1-1.9,0.2-2.7,0.5c-1,0.3-1.9,0.6-2.7,1c-0.2,0.1,0.3,0.6,0.6,0.5c0.7-0.4,1.5-0.7,2.3-0.9
						c0.9-0.3,1.8-0.6,2.7-0.5C13.6,25,13.2,24.5,12.9,24.5z"/>
				</g>
			</g>
		</g>
	</g>
</g>
<g>
	<linearGradient id="SVGID_6_" gradientUnits="userSpaceOnUse" x1="4.3256" y1="14.8724" x2="8.4188" y2="14.8724">
		<stop  offset="0" style="stop-color:#FFFFFF"/>
		<stop  offset="1" style="stop-color:#000000"/>
	</linearGradient>
	<path class="st6" d="M8.4,12.9c-1.4,1.3-2.8,2.6-4.1,3.9"/>
	<g>
		<g>
			<g>
				<path class="st1" d="M8.4,14.7c0.2-0.2,0.3-0.5,0.3-0.8c0-0.2,0-0.5-0.2-0.6c-0.1-0.1-0.3-0.1-0.4-0.2c-0.7-0.1-1.5,0.1-2.2,0.4
					c-1,0.4-2,1.1-2.8,1.9"/>
				<g>
					<path d="M8.7,15c0.4-0.8,0.4-1.9-0.8-2.1C6,12.5,4,14,2.8,15.1c-0.2,0.2,0.4,0.6,0.6,0.5c0.7-0.7,1.6-1.3,2.5-1.7
						c0.8-0.4,3.2-1.1,2.2,0.6C8,14.7,8.6,15.2,8.7,15z"/>
				</g>
			</g>
			<g>
				<path class="st1" d="M8.4,14.6c0.2,0.4-0.1,0.9-0.4,1.2c-0.3,0.4-0.7,0.8-1.2,0.8c-0.2,0-0.4-0.1-0.6-0.2
					c-1-0.4-2.1-0.8-3.2-1.2"/>
				<g>
					<path d="M8.1,14.5C8.2,15,8,15.4,7.7,15.7c-0.5,0.6-0.8,0.8-1.8,0.6c-1-0.3-2-0.7-3-1.1c-0.5-0.2-0.1,0.4,0.2,0.5l2.5,0.9
						c0.6,0.2,1.2,0.5,1.7,0.4c0.8-0.2,1.6-1.2,1.4-2.1C8.7,14.5,8,14.2,8.1,14.5z"/>
				</g>
			</g>
			<g>
				<path class="st1" d="M8.4,14.7c-0.6-0.3-1.3-0.2-1.9-0.2c-1.1,0.1-2.2,0.1-3.2,0.6"/>
				<g>
					<path d="M8.3,14.5c-0.9-0.3-1.7-0.2-2.6-0.2c-1,0.1-1.9,0.2-2.7,0.6c-0.3,0.1,0.3,0.6,0.6,0.5c0.7-0.3,1.5-0.5,2.3-0.5
						c0.8-0.1,1.7-0.2,2.6,0.1C8.9,15.2,8.6,14.6,8.3,14.5z"/>
				</g>
			</g>
		</g>
	</g>
</g>
<g>
	<linearGradient id="SVGID_7_" gradientUnits="userSpaceOnUse" x1="17.5744" y1="12.4584" x2="20.8031" y2="12.4584">
		<stop  offset="0" style="stop-color:#FFFFFF"/>
		<stop  offset="1" style="stop-color:#000000"/>
	</linearGradient>
	<path class="st7" d="M20.8,8.8c-1,2.5-2.4,4.7-3.2,7.3"/>
	<g>
		<g>
			<g>
				<path class="st1" d="M21.3,11c0.1-0.4,0.2-0.8,0.1-1.2c0-0.3-0.1-0.6-0.4-0.6c-0.2,0-0.3,0-0.5,0.1c-0.8,0.4-1.5,1.1-2.2,1.8
					c-1,1.1-1.9,2.5-2.5,4.2"/>
				<g>
					<path d="M21.7,11c0.3-1.4-0.1-2.5-1.4-1.9c-1,0.5-1.9,1.3-2.8,2.4c-0.8,1.1-1.6,2.4-2,3.7c-0.1,0.4,0.6,0.4,0.7,0.1
						c0.5-1.4,1.3-2.7,2.2-3.7c0.4-0.4,1.2-1.2,1.8-1.6c0.6-0.4,1.1-0.4,0.8,1C20.9,11.2,21.6,11.4,21.7,11z"/>
				</g>
			</g>
			<g>
				<path class="st1" d="M21.3,10.9c0.3,0.4,0.1,1.1-0.1,1.7c-0.3,0.7-0.6,1.4-1.1,1.7c-0.2,0.1-0.4,0.1-0.7,0.2
					c-1.2,0.2-2.4,0.4-3.5,0.8"/>
				<g>
					<path d="M20.9,10.9c0.2,0.5,0,1.1-0.2,1.6c-0.4,1-0.7,1.5-1.8,1.8c-1.1,0.3-2.3,0.4-3.4,0.7c-0.5,0.2,0,0.5,0.3,0.4
						c0.9-0.3,1.8-0.5,2.8-0.7c0.6-0.1,1.3-0.1,1.9-0.6c0.8-0.7,1.5-2.5,1-3.5C21.5,10.5,20.8,10.6,20.9,10.9z"/>
				</g>
			</g>
			<g>
				<path class="st1" d="M21.3,11c-0.7,0.1-1.4,0.5-2.1,1c-1.1,0.7-2.3,1.5-3.2,2.8"/>
				<g>
					<path d="M21.2,10.7c-1,0.2-1.9,0.8-2.8,1.4c-1,0.7-1.9,1.4-2.7,2.6c-0.2,0.4,0.5,0.5,0.7,0.2c0.6-0.9,1.4-1.6,2.3-2.2
						c0.9-0.6,1.8-1.2,2.8-1.4C22,11.1,21.5,10.7,21.2,10.7z"/>
				</g>
			</g>
		</g>
	</g>
</g>
<g>
	<linearGradient id="SVGID_8_" gradientUnits="userSpaceOnUse" x1="39.8838" y1="13.0381" x2="40.4462" y2="13.0381">
		<stop  offset="0" style="stop-color:#FFFFFF"/>
		<stop  offset="1" style="stop-color:#000000"/>
	</linearGradient>
	<path class="st8" d="M40.4,10.2c0,1.9-0.8,3.7-0.5,5.6"/>
	<g>
		<g>
			<g>
				<path class="st1" d="M41.6,11.7c0-0.3-0.1-0.6-0.3-0.9c-0.1-0.2-0.3-0.4-0.6-0.4c-0.2,0-0.3,0.1-0.4,0.2c-0.6,0.4-1.1,1-1.4,1.6
					c-0.6,0.9-1.1,2.2-0.8,3.8"/>
				<g>
					<path d="M42,11.6c-0.1-0.5-0.3-1-0.7-1.2c-0.3-0.2-0.8-0.2-1.3,0.1c-0.8,0.5-1.4,1.2-1.8,2.1c-0.4,0.9-0.7,2.2-0.5,3.4
						c0.1,0.4,0.7,0,0.7-0.2c-0.2-1.3,0.2-2.4,0.7-3.3c0.2-0.4,0.7-1,1.1-1.4c0.4-0.4,0.9-0.5,1.1,0.6C41.3,11.9,42,11.9,42,11.6z"
						/>
				</g>
			</g>
			<g>
				<path class="st1" d="M41.6,11.6c0.4,0.3,0.4,0.8,0.4,1.3c0,0.5-0.1,1-0.5,1.3c-0.2,0.1-0.4,0.2-0.6,0.2c-1,0.3-2.1,0.8-2.9,1.6"
					/>
				<g>
					<path d="M41.3,11.7c0.4,0.3,0.4,0.8,0.4,1.2c0,0.8-0.1,1.1-1,1.5c-0.9,0.4-2,0.8-2.8,1.6c-0.4,0.4,0.3,0.4,0.5,0.2
						c0.7-0.6,1.5-1.1,2.2-1.4c0.5-0.2,1.2-0.3,1.5-0.7c0.2-0.3,0.4-0.7,0.4-1.2c0-0.5-0.2-1.1-0.5-1.4C41.7,11.3,41,11.5,41.3,11.7
						z"/>
				</g>
			</g>
			<g>
				<path class="st1" d="M41.6,11.7c-0.6,0.2-1.2,0.6-1.6,1c-0.8,0.7-1.7,1.4-2,2.9"/>
				<g>
					<path d="M41.4,11.5c-0.9,0.3-1.5,0.9-2.2,1.4c-0.7,0.6-1.4,1.4-1.6,2.7c-0.1,0.4,0.7,0.2,0.7-0.1c0.2-1,0.7-1.6,1.3-2.2
						c0.6-0.6,1.3-1.1,2.2-1.5C42.3,11.7,41.7,11.4,41.4,11.5z"/>
				</g>
			</g>
		</g>
	</g>
</g>
<g>
	<linearGradient id="SVGID_9_" gradientUnits="userSpaceOnUse" x1="44.774" y1="25.4665" x2="46.5442" y2="25.4665">
		<stop  offset="0" style="stop-color:#FFFFFF"/>
		<stop  offset="1" style="stop-color:#000000"/>
	</linearGradient>
	<path class="st9" d="M46.5,22.7c-0.9,1.7-1.5,3.6-1.8,5.6"/>
	<g>
		<g>
			<g>
				<path class="st1" d="M47.2,24.4c0-0.3,0-0.6,0-0.9c-0.1-0.2-0.2-0.4-0.4-0.5c-0.1-0.1-0.3,0-0.5,0c-0.7,0.2-1.4,0.7-1.9,1.4
					c-0.8,1-1.3,2.2-1.5,3.5"/>
				<g>
					<path d="M47.6,24.5c0.1-0.9-0.3-1.9-1.5-1.6c-1,0.2-1.8,0.9-2.4,1.9c-0.6,1-0.9,2.1-1.1,3.1c0,0.3,0.7,0.2,0.7,0
						c0.2-1.1,0.6-2.2,1.2-3.1c0.3-0.4,0.9-1,1.5-1.3c0.6-0.3,1-0.1,0.9,0.8C46.8,24.5,47.5,24.7,47.6,24.5z"/>
				</g>
			</g>
			<g>
				<path class="st1" d="M47.1,24.3c0.3,0.3,0.3,0.8,0.2,1.2c-0.1,0.5-0.2,1-0.7,1.2c-0.2,0.1-0.4,0.1-0.6,0.2
					c-1.1,0.2-2.2,0.5-3.2,0.9"/>
				<g>
					<path d="M46.8,24.3c0.3,0.4,0.2,0.8,0.1,1.1c-0.1,0.7-0.3,1.1-1.3,1.3c-1,0.3-2.1,0.5-3.1,0.9c-0.5,0.2,0.2,0.4,0.4,0.3
						c0.8-0.3,1.7-0.6,2.5-0.8c0.6-0.1,1.2-0.2,1.6-0.5c0.6-0.5,0.8-1.6,0.2-2.4C47.3,24.1,46.6,24,46.8,24.3z"/>
				</g>
			</g>
			<g>
				<path class="st1" d="M47.2,24.4c-0.7,0-1.3,0.3-1.8,0.6c-0.9,0.6-1.9,1.3-2.4,2.4"/>
				<g>
					<path d="M47,24.2c-0.9,0-1.7,0.5-2.4,1c-0.8,0.6-1.5,1.3-2,2.2c-0.1,0.3,0.6,0.3,0.7,0.1c0.4-0.8,1-1.4,1.7-1.9
						c0.7-0.5,1.5-1,2.4-1C47.8,24.6,47.3,24.2,47,24.2z"/>
				</g>
			</g>
		</g>
	</g>
</g>
<g>
	<linearGradient id="SVGID_10_" gradientUnits="userSpaceOnUse" x1="43.2179" y1="45.9076" x2="43.5247" y2="45.9076">
		<stop  offset="0" style="stop-color:#FFFFFF"/>
		<stop  offset="1" style="stop-color:#000000"/>
	</linearGradient>
	<path class="st10" d="M43.5,44.2c-0.3,1.1-0.4,2.2-0.3,3.3"/>
	<g>
		<g>
			<g>
				<path class="st1" d="M44.7,45.2c0-0.2-0.1-0.3-0.3-0.5c-0.1-0.1-0.3-0.3-0.5-0.3c-0.2,0-0.3,0-0.4,0c-0.6,0.1-1.1,0.5-1.4,1
					c-0.5,0.7-0.7,1.5-0.6,2.3"/>
				<g>
					<path d="M45,45.2c-0.2-0.5-0.9-1.1-1.9-0.9c-1.7,0.3-2.2,2.2-2.1,3.4c0,0.2,0.7,0,0.7-0.1c0-0.7,0.1-1.4,0.5-2
						c0.2-0.2,0.6-0.7,1-0.9c0.4-0.2,0.9-0.1,1.1,0.4C44.3,45.3,45.1,45.3,45,45.2z"/>
				</g>
			</g>
			<g>
				<path class="st1" d="M44.6,45.1c0.4,0.2,0.5,0.4,0.5,0.6c0,0.3,0.1,0.5-0.3,0.7c-0.1,0.1-0.3,0.1-0.5,0.2c-1,0.3-2,0.6-3,1"/>
				<g>
					<path d="M44.3,45.2c0.4,0.2,0.4,0.4,0.5,0.6c0.1,0.4,0,0.6-0.9,0.8c-0.9,0.3-1.9,0.6-2.8,1c-0.4,0.2,0.2,0.2,0.5,0.1
						c0.8-0.3,1.5-0.6,2.3-0.9c0.5-0.2,1.2-0.3,1.5-0.5c0.4-0.3,0.3-0.9-0.4-1.3C44.7,45,44,45,44.3,45.2z"/>
				</g>
			</g>
			<g>
				<path class="st1" d="M44.7,45.2c-0.6,0-1.1,0.2-1.5,0.5c-0.7,0.4-1.5,1-1.8,1.8"/>
				<g>
					<path d="M44.4,45.1c-0.9,0.1-1.5,0.4-2,0.8c-0.6,0.4-1.2,1-1.4,1.6c-0.1,0.2,0.6,0.1,0.7-0.1c0.2-0.5,0.7-1,1.2-1.3
						c0.5-0.4,1.1-0.7,2-0.8C45.3,45.3,44.7,45.1,44.4,45.1z"/>
				</g>
			</g>
		</g>
	</g>
</g>
<g>
	<linearGradient id="SVGID_11_" gradientUnits="userSpaceOnUse" x1="26.985" y1="46.9504" x2="29.4097" y2="46.9504">
		<stop  offset="0" style="stop-color:#FFFFFF"/>
		<stop  offset="1" style="stop-color:#000000"/>
	</linearGradient>
	<path class="st11" d="M29.4,45.4c-1,0.9-1.8,1.9-2.4,3.1"/>
	<g>
		<g>
			<g>
				<path class="st1" d="M29.7,46.9c0.1-0.2,0.1-0.4,0.1-0.6c0-0.2-0.1-0.4-0.2-0.6c-0.1-0.1-0.3-0.2-0.4-0.2
					c-0.6-0.2-1.3-0.1-1.8,0.2c-0.8,0.4-1.5,1-2,1.8"/>
				<g>
					<path d="M30,47.1c0.2-0.6,0-1.5-1.1-1.9c-1.7-0.6-3.3,0.9-3.9,2c-0.1,0.2,0.6,0.4,0.7,0.3c0.4-0.7,1-1.2,1.7-1.6
						c0.3-0.2,0.9-0.4,1.4-0.3c0.5,0.1,0.8,0.3,0.6,1C29.4,46.9,30,47.3,30,47.1z"/>
				</g>
			</g>
			<g>
				<path class="st1" d="M29.7,46.8c0.2,0.4,0.1,0.7,0,0.9c-0.1,0.3-0.3,0.6-0.7,0.5c-0.2,0-0.4-0.1-0.5-0.1c-1-0.3-2-0.5-3.1-0.7"
					/>
				<g>
					<path d="M29.4,46.7c0.2,0.4,0.1,0.7,0,0.9c-0.2,0.4-0.4,0.6-1.3,0.4c-0.9-0.2-1.9-0.5-2.9-0.6c-0.5-0.1,0.1,0.3,0.3,0.4
						c0.8,0.1,1.6,0.3,2.4,0.5c0.5,0.1,1.2,0.4,1.5,0.3c0.6-0.1,0.9-0.7,0.5-1.5C29.9,46.8,29.3,46.4,29.4,46.7z"/>
				</g>
			</g>
			<g>
				<path class="st1" d="M29.7,46.9c-0.5-0.3-1.1-0.3-1.6-0.3c-0.9,0-1.9,0.1-2.6,0.7"/>
				<g>
					<path d="M29.6,46.7c-0.8-0.4-1.5-0.4-2.2-0.3c-0.8,0.1-1.6,0.3-2.2,0.7c-0.2,0.1,0.5,0.4,0.7,0.3c0.5-0.4,1.2-0.5,1.9-0.6
						c0.7-0.1,1.4-0.1,2.2,0.3C30.3,47.3,29.9,46.8,29.6,46.7z"/>
				</g>
			</g>
		</g>
	</g>
</g>
<g>
	<linearGradient id="SVGID_12_" gradientUnits="userSpaceOnUse" x1="13.0875" y1="34.6602" x2="16.5013" y2="34.6602">
		<stop  offset="0" style="stop-color:#FFFFFF"/>
		<stop  offset="1" style="stop-color:#000000"/>
	</linearGradient>
	<path class="st12" d="M16.5,33.2c-0.6-0.1-1.1,0.3-1.5,0.7c-0.7,0.7-1.4,1.5-1.9,2.3"/>
	<g>
		<g>
			<g>
				<path class="st1" d="M16.2,34.5c0-0.1,0.1-0.3,0.1-0.5c0-0.2,0.1-0.3,0.1-0.6c0-0.2-0.1-0.3-0.3-0.4c-0.6-0.5-1.5-0.3-2.2-0.1
					c-1,0.4-1.9,1.1-2.4,2"/>
				<g>
					<path d="M16.5,34.8c0-0.2,0-0.5,0.1-0.8c0-0.3,0.1-0.8-0.4-1.2c-0.4-0.3-0.9-0.5-1.5-0.4c-0.3,0-0.5,0.1-0.8,0.2
						c-0.2,0.1-0.4,0.2-0.6,0.3c-0.8,0.5-1.5,1.2-2,1.9c-0.1,0.2,0.5,0.5,0.6,0.3c0.5-0.8,1.2-1.4,2.1-1.8c0.3-0.1,1.2-0.4,1.7-0.2
						c0.3,0.1,0.4,0.3,0.5,0.5c0,0.2,0,0.4-0.1,0.7C16,34.4,16.5,34.9,16.5,34.8z"/>
				</g>
			</g>
			<g>
				<path class="st1" d="M16.2,34.5c0.2,0.4,0.1,0.6-0.1,0.9c-0.2,0.3-0.5,0.6-0.9,0.6c-0.2,0-0.4-0.1-0.6-0.1
					c-1-0.3-2.1-0.6-3.2-0.8"/>
				<g>
					<path d="M16,34.3c0.1,0.4,0,0.6-0.2,0.9c-0.3,0.5-0.6,0.6-1.5,0.4c-0.9-0.2-2-0.6-3-0.7c-0.5-0.1,0,0.4,0.3,0.4
						c0.8,0.1,1.7,0.3,2.5,0.6c0.5,0.2,1.2,0.4,1.6,0.4c0.3,0,0.6-0.3,0.8-0.6c0.2-0.3,0.1-0.5-0.1-0.9C16.4,34.5,15.9,33.9,16,34.3
						z"/>
				</g>
			</g>
			<g>
				<path class="st1" d="M16.2,34.5c-0.4-0.5-1-0.5-1.6-0.5c-1,0-2.1,0.1-2.9,0.7"/>
				<g>
					<path d="M16.2,34.3c-0.6-0.6-1.5-0.6-2.3-0.5c-0.9,0.1-1.7,0.3-2.5,0.8c-0.2,0.2,0.4,0.5,0.6,0.4c0.6-0.4,1.3-0.6,2.1-0.6
						c0.7,0,1.6-0.1,2.2,0.5C16.6,35.1,16.3,34.5,16.2,34.3z"/>
				</g>
			</g>
		</g>
	</g>
</g>
<g>
	<linearGradient id="SVGID_13_" gradientUnits="userSpaceOnUse" x1="19.8875" y1="23.347" x2="21.1407" y2="23.347">
		<stop  offset="0" style="stop-color:#FFFFFF"/>
		<stop  offset="1" style="stop-color:#000000"/>
	</linearGradient>
	<path class="st13" d="M21.1,22c-0.5,0.9-1,1.8-1.3,2.8"/>
	<g>
		<g>
			<g>
				<path class="st1" d="M22,23.2c0-0.2,0-0.3-0.2-0.5c-0.1-0.1-0.2-0.3-0.4-0.4c-0.1-0.1-0.3-0.1-0.4-0.1c-0.6-0.1-1.1,0.1-1.6,0.4
					c-0.6,0.4-1.1,1-1.3,1.7"/>
				<g>
					<path d="M22.3,23.3c-0.1-0.5-0.5-1.2-1.6-1.4c-1.7-0.3-2.7,1.1-3,2.1c-0.1,0.2,0.7,0.3,0.7,0.2c0.2-0.6,0.6-1.1,1.1-1.5
						c0.2-0.2,0.7-0.4,1.2-0.4c0.5,0,0.8,0.2,0.9,0.7C21.6,23.2,22.3,23.4,22.3,23.3z"/>
				</g>
			</g>
			<g>
				<path class="st1" d="M21.9,23.1c0.3,0.3,0.3,0.5,0.3,0.8c0,0.2-0.1,0.5-0.5,0.5c-0.2,0-0.4,0-0.5,0c-1-0.1-2.1-0.2-3.1-0.2"/>
				<g>
					<path d="M21.6,23c0.3,0.3,0.3,0.5,0.3,0.7c-0.1,0.4-0.2,0.5-1.1,0.4c-0.9-0.1-2-0.2-2.9-0.2c-0.4,0,0.1,0.3,0.4,0.3
						c0.8,0,1.6,0,2.4,0.1c0.6,0.1,1.2,0.2,1.5,0.1c0.5-0.1,0.6-0.7,0-1.3C22,23,21.4,22.8,21.6,23z"/>
				</g>
			</g>
			<g>
				<path class="st1" d="M22,23.2c-0.6-0.2-1.1-0.1-1.6-0.1c-0.8,0.1-1.7,0.3-2.2,0.8"/>
				<g>
					<path d="M21.8,23c-0.8-0.2-1.5-0.1-2.1,0c-0.7,0.1-1.4,0.4-1.9,0.8c-0.1,0.1,0.6,0.3,0.7,0.2c0.4-0.3,1-0.6,1.6-0.7
						c0.6-0.1,1.3-0.2,2.1,0C22.6,23.4,22.1,23.1,21.8,23z"/>
				</g>
			</g>
		</g>
	</g>
</g>
<g>
	<linearGradient id="SVGID_14_" gradientUnits="userSpaceOnUse" x1="26.9095" y1="35.0828" x2="28.3459" y2="35.0828">
		<stop  offset="0" style="stop-color:#FFFFFF"/>
		<stop  offset="1" style="stop-color:#000000"/>
	</linearGradient>
	<path class="st14" d="M28.2,33.5c0.2,0.2,0.1,0.6-0.1,0.9c-0.4,0.8-0.8,1.5-1.2,2.3"/>
	<g>
		<g>
			<g>
				<path class="st1" d="M29.4,34.8c0.1-0.3,0-0.6-0.2-0.8c-0.1-0.2-0.4-0.3-0.6-0.3c-0.2,0-0.3,0-0.4,0.1c-0.5,0.2-1,0.2-1.4,0.5
					c-0.7,0.4-1.2,0.9-1.5,1.5"/>
				<g>
					<path d="M29.8,34.9c0.1-0.5-0.2-1-0.6-1.2c-0.4-0.2-0.9-0.2-1.3-0.1c-0.3,0.1-0.7,0.1-1,0.1c-0.3,0.1-0.6,0.3-0.9,0.4
						c-0.5,0.4-0.9,0.9-1.2,1.3c-0.1,0.1,0.6,0.4,0.7,0.3c0.3-0.5,0.7-1,1.3-1.4c0.1-0.1,0.3-0.2,0.5-0.3c0.2-0.1,0.4-0.1,0.7-0.2
						c0.2-0.1,0.4-0.1,0.6,0c0.2,0.1,0.4,0.3,0.3,0.8C29,34.9,29.7,35.1,29.8,34.9z"/>
				</g>
			</g>
			<g>
				<path class="st1" d="M29.4,34.7c0.2,0.2,0.2,0.4,0.2,0.6c0,0.2,0,0.3,0,0.5c-0.1,0.3-0.2,0.7-0.7,0.7c-0.2,0-0.4,0-0.6-0.1
					l-3.1-0.7"/>
				<g>
					<path d="M29.1,34.7c0.2,0.4,0.2,0.6,0.1,0.9c-0.1,0.5-0.3,0.7-1.2,0.5C27,36,26,35.7,25.1,35.5c-0.4-0.1,0.1,0.3,0.3,0.3
						l2.4,0.5c0.5,0.1,1.2,0.3,1.6,0.2c0.3-0.1,0.5-0.3,0.6-0.7c0-0.2,0-0.3,0-0.5c0-0.2-0.1-0.5-0.2-0.7
						C29.6,34.5,28.9,34.5,29.1,34.7z"/>
				</g>
			</g>
			<g>
				<path class="st1" d="M29.4,34.8c-0.3,0-0.6,0-0.9,0c-0.3,0-0.5,0-0.8,0.1c-0.9,0.1-1.8,0.2-2.4,0.6"/>
				<g>
					<path d="M29.3,34.6c-0.5,0.1-0.9,0-1.2,0c-0.4,0-0.7,0.1-1,0.1c-0.8,0.1-1.4,0.3-2,0.6c-0.2,0.1,0.5,0.4,0.7,0.3
						c0.5-0.3,1-0.4,1.7-0.5c0.7-0.1,1.3-0.2,2.2-0.1C30.1,35,29.6,34.5,29.3,34.6z"/>
				</g>
			</g>
		</g>
	</g>
</g>
<g>
	<linearGradient id="SVGID_15_" gradientUnits="userSpaceOnUse" x1="30.0048" y1="10.4552" x2="30.4159" y2="10.4552">
		<stop  offset="0" style="stop-color:#FFFFFF"/>
		<stop  offset="1" style="stop-color:#000000"/>
	</linearGradient>
	<path class="st15" d="M30.4,10.3c-0.2,0-0.3,0.1-0.4,0.3"/>
	<g>
		<g>
			<g>
				<path class="st1" d="M31.2,11.2c0,0-0.1-0.1-0.2-0.3c-0.1-0.1-0.2-0.2-0.4-0.4c-0.1-0.1-0.2-0.2-0.3-0.3
					c-0.5-0.4-0.8-0.6-1.1-0.7c-0.4-0.2-0.7-0.2-0.8,0"/>
				<g>
					<path d="M31.5,11.4c-0.2-0.2-0.6-0.7-1.4-1.4c-1.3-1.1-1.8-1-2-0.7c-0.1,0.1,0.6,0.4,0.6,0.4c0.1-0.2,0.3-0.2,0.7,0
						c0.1,0.1,0.5,0.2,0.8,0.5c0.3,0.3,0.6,0.5,0.8,0.8C31,11,31.6,11.5,31.5,11.4z"/>
				</g>
			</g>
			<g>
				<path class="st1" d="M31.2,11.1c0.3,0.3,0.4,0.4,0.4,0.4c0,0.1,0.1,0.1-0.2-0.1c-0.1-0.1-0.3-0.2-0.4-0.3
					c-0.8-0.6-1.7-1.2-2.6-1.6"/>
				<g>
					<path d="M31,11c0.3,0.3,0.3,0.3,0.4,0.4c0.1,0.1,0,0-0.7-0.5c-0.7-0.5-1.6-1.1-2.5-1.5c-0.4-0.1,0.1,0.2,0.3,0.3
						c0.8,0.3,1.4,0.7,2,1.2c0.4,0.3,1,0.7,1.2,0.8c0.3,0.3,0.1,0.1-0.4-0.4C31.3,11.2,30.8,10.8,31,11z"/>
				</g>
			</g>
			<g>
				<path class="st1" d="M31.2,11.2c-0.4-0.4-0.8-0.7-1.1-0.9c-0.6-0.4-1.3-0.8-1.7-0.8"/>
				<g>
					<path d="M31.1,11c-0.6-0.5-1.1-0.9-1.6-1.2c-0.5-0.3-1-0.5-1.4-0.6c-0.1,0,0.5,0.4,0.6,0.4c0.3,0.1,0.7,0.3,1.2,0.5
						c0.5,0.3,0.9,0.6,1.5,1.1C31.7,11.6,31.3,11.2,31.1,11z"/>
				</g>
			</g>
		</g>
	</g>
</g>
<g>
	<linearGradient id="SVGID_16_" gradientUnits="userSpaceOnUse" x1="15.6666" y1="44.2029" x2="16.6366" y2="44.2029">
		<stop  offset="0" style="stop-color:#FFFFFF"/>
		<stop  offset="1" style="stop-color:#000000"/>
	</linearGradient>
	<path class="st16" d="M16.6,43.3c-0.2,0.6-0.6,1.2-1,1.8"/>
	<g>
		<g>
			<g>
				<path class="st1" d="M17.7,44.3c0-0.1-0.1-0.3-0.2-0.5c-0.1-0.1-0.3-0.2-0.5-0.3c-0.2-0.1-0.3-0.1-0.4-0.1c-0.6,0-1,0-1.3,0.1
					c-0.5,0.1-0.8,0.2-1,0.4"/>
				<g>
					<path d="M18,44.4c-0.1-0.5-0.8-1-1.8-1.1c-1.6-0.2-2.1,0.1-2.3,0.4c0,0,0.5,0.5,0.6,0.4c0.2-0.2,0.4-0.3,0.9-0.4
						c0.2,0,0.6-0.1,1-0.1c0.4,0,0.9,0.1,1,0.6C17.4,44.3,18.1,44.5,18,44.4z"/>
				</g>
			</g>
			<g>
				<path class="st1" d="M17.6,44.2c0.4,0.2,0.4,0.5,0.4,0.7c0,0.2-0.2,0.5-0.6,0.4c-0.2,0-0.3-0.1-0.5-0.2c-1-0.4-1.9-0.8-2.7-1.4"
					/>
				<g>
					<path d="M17.3,44.2c0.3,0.3,0.3,0.5,0.3,0.6c-0.1,0.4-0.2,0.5-1.1,0.2c-0.9-0.3-1.8-0.8-2.6-1.3c-0.4-0.2,0.1,0.2,0.3,0.3
						c0.7,0.4,1.4,0.8,2.1,1.1c0.5,0.2,1.1,0.5,1.5,0.5c0.6-0.1,0.7-0.8,0-1.3C17.7,44.1,17.1,44,17.3,44.2z"/>
				</g>
			</g>
			<g>
				<path class="st1" d="M17.7,44.3c-0.6-0.1-1.1-0.1-1.5-0.2c-0.8-0.1-1.5-0.3-1.9-0.3"/>
				<g>
					<path d="M17.5,44.1c-0.8-0.2-1.4-0.2-2-0.3c-0.6-0.1-1.2-0.2-1.6-0.3c-0.1,0,0.5,0.4,0.6,0.4c0.3,0,0.8,0.1,1.4,0.2
						c0.6,0.1,1.2,0.1,2,0.2C18.3,44.5,17.8,44.2,17.5,44.1z"/>
				</g>
			</g>
		</g>
	</g>
</g>
<g>
	<linearGradient id="SVGID_17_" gradientUnits="userSpaceOnUse" x1="37.0114" y1="23.7624" x2="37.7104" y2="23.7624">
		<stop  offset="0" style="stop-color:#FFFFFF"/>
		<stop  offset="1" style="stop-color:#000000"/>
	</linearGradient>
	<path class="st17" d="M37.7,23.2c-0.1,0.4-0.4,0.8-0.7,1.2"/>
	<g>
		<g>
			<g>
				<path class="st1" d="M38.8,24c0-0.1-0.1-0.3-0.3-0.4c-0.1-0.1-0.3-0.2-0.5-0.3c-0.2,0-0.3-0.1-0.4-0.1c-0.6-0.1-0.9-0.1-1.2-0.2
					C36,23,35.7,22.9,35.7,23"/>
				<g>
					<path d="M39.2,24.1c-0.1-0.5-0.9-0.8-1.8-1c-1.6-0.3-1.8-0.4-1.9-0.4c0,0,0.1,0.1,0.3,0.3c0.1,0.1,0.3,0.2,0.3,0.2
						c0.1-0.1,0.3-0.1,0.6,0c0.2,0,0.5,0.1,0.9,0.1c0.4,0.1,0.8,0.1,1,0.5C38.5,24,39.2,24.2,39.2,24.1z"/>
				</g>
			</g>
			<g>
				<path class="st1" d="M38.8,23.9c0.4,0.2,0.4,0.5,0.4,0.7c0,0.2-0.1,0.4-0.5,0.3c-0.2,0-0.3-0.1-0.5-0.2
					c-0.9-0.5-1.7-1.1-2.5-1.7"/>
				<g>
					<path d="M38.5,23.9c0.3,0.2,0.4,0.4,0.3,0.6c0,0.3-0.2,0.4-1,0c-0.8-0.4-1.6-1-2.3-1.7c-0.3-0.3,0.1,0.2,0.3,0.3
						c0.6,0.5,1.2,1,1.9,1.4c0.5,0.3,1,0.6,1.4,0.6c0.5,0,0.7-0.7,0-1.2C38.9,23.9,38.2,23.7,38.5,23.9z"/>
				</g>
			</g>
			<g>
				<path class="st1" d="M38.8,24c-0.6-0.1-1-0.2-1.5-0.3c-0.7-0.2-1.4-0.5-1.7-0.7"/>
				<g>
					<path d="M38.6,23.9c-0.8-0.2-1.4-0.3-1.9-0.5c-0.6-0.2-1-0.5-1.3-0.7c-0.1-0.1,0.5,0.4,0.5,0.5c0.3,0.1,0.7,0.3,1.2,0.5
						c0.5,0.2,1.1,0.2,1.9,0.4C39.4,24.2,38.9,23.9,38.6,23.9z"/>
				</g>
			</g>
		</g>
	</g>
</g>
<g>
	<linearGradient id="SVGID_18_" gradientUnits="userSpaceOnUse" x1="3.8611" y1="35.2774" x2="5.1858" y2="35.2774">
		<stop  offset="0" style="stop-color:#FFFFFF"/>
		<stop  offset="1" style="stop-color:#000000"/>
	</linearGradient>
	<path class="st18" d="M5.2,33.2c0.1,0.6-0.2,1.3-0.4,1.9c-0.3,0.7-0.6,1.5-0.9,2.2"/>
	<g>
		<g>
			<g>
				<path class="st1" d="M6.4,34.5c0-0.3-0.1-0.6-0.3-0.9c-0.1-0.2-0.4-0.3-0.6-0.3c-0.2,0-0.3,0.1-0.4,0.2c-0.6,0.3-1,0.5-1.4,0.9
					C3,35,2.5,35.7,2.2,36.5"/>
				<g>
					<path d="M6.7,34.5c0-0.5-0.3-1.1-0.7-1.2c-0.4-0.2-0.8,0-1.3,0.2c-0.8,0.4-1.3,0.5-1.8,1.1c-0.5,0.6-0.9,1.2-1.1,1.8
						c-0.1,0.2,0.6,0.4,0.7,0.2c0.3-0.7,0.7-1.3,1.3-1.9C4,34.5,4.5,34.1,5,33.9c0.2-0.1,0.4-0.2,0.6-0.2C5.8,33.8,6,34,6,34.5
						C6,34.7,6.7,34.8,6.7,34.5z"/>
				</g>
			</g>
			<g>
				<path class="st1" d="M6.3,34.4c0.4,0.3,0.3,0.9,0.3,1.2c-0.1,0.4-0.2,0.8-0.7,0.9c-0.2,0-0.4,0-0.6,0l-3.2-0.2"/>
				<g>
					<path d="M6,34.5c0.3,0.3,0.3,0.8,0.2,1.1c-0.1,0.6-0.3,0.9-1.3,0.9c-1,0-2-0.1-3-0.1c-0.5,0,0.1,0.3,0.4,0.3l2.5,0.1
						c0.6,0,1.2,0.1,1.6-0.1c0.3-0.2,0.5-0.5,0.6-0.9c0.1-0.4,0-1-0.3-1.4C6.4,34.2,5.7,34.3,6,34.5z"/>
				</g>
			</g>
			<g>
				<path class="st1" d="M6.4,34.5c-0.6,0.1-1.2,0.3-1.7,0.5c-0.9,0.3-1.8,0.6-2.4,1.2"/>
				<g>
					<path d="M6.2,34.3c-0.9,0.2-1.6,0.4-2.3,0.7c-0.8,0.3-1.5,0.6-2,1.1c-0.2,0.1,0.5,0.4,0.7,0.2C3,36,3.6,35.7,4.3,35.4
						c0.7-0.3,1.4-0.5,2.3-0.7C7,34.6,6.5,34.2,6.2,34.3z"/>
				</g>
			</g>
		</g>
	</g>
</g>
<g>
	<linearGradient id="SVGID_19_" gradientUnits="userSpaceOnUse" x1="47.0885" y1="17.6972" x2="47.9849" y2="17.6972">
		<stop  offset="0" style="stop-color:#FFFFFF"/>
		<stop  offset="1" style="stop-color:#000000"/>
	</linearGradient>
	<path class="st19" d="M48,15.1c-0.1,1.7-0.9,3.4-0.9,5.1"/>
	<g>
		<g>
			<g>
				<path class="st1" d="M49.1,16.5c0-0.3-0.1-0.6-0.3-0.9c-0.1-0.2-0.3-0.4-0.5-0.4c-0.2,0-0.3,0.1-0.4,0.2
					c-0.6,0.4-1.1,0.8-1.5,1.4c-0.6,0.8-1.1,1.8-1.2,3.2"/>
				<g>
					<path d="M49.5,16.5c-0.1-0.5-0.3-1-0.6-1.2c-0.3-0.2-0.8-0.2-1.3,0.1c-0.8,0.4-1.4,1-1.9,1.8C45.2,18,44.9,19,44.8,20
						c0,0.3,0.7,0.2,0.7-0.1c0.1-1.1,0.5-2.1,1-2.8c0.2-0.3,0.7-0.9,1.2-1.2c0.4-0.3,0.9-0.4,1,0.6C48.8,16.8,49.5,16.7,49.5,16.5z"
						/>
				</g>
			</g>
			<g>
				<path class="st1" d="M49,16.4c0.4,0.3,0.4,0.8,0.4,1.2c0,0.5-0.1,1-0.6,1.2C48.7,19,48.5,19,48.3,19c-1.1,0.2-2.1,0.5-3.2,1"/>
				<g>
					<path d="M48.7,16.5c0.3,0.3,0.3,0.8,0.3,1.1c-0.1,0.7-0.2,1-1.1,1.3c-0.9,0.3-2,0.5-3,1c-0.4,0.2,0.2,0.4,0.4,0.2
						c0.8-0.4,1.6-0.7,2.4-0.9c0.6-0.1,1.2-0.2,1.6-0.5c0.3-0.2,0.4-0.7,0.4-1.1c0-0.5-0.1-1-0.5-1.3C49.2,16.2,48.5,16.3,48.7,16.5
						z"/>
				</g>
			</g>
			<g>
				<path class="st1" d="M49.1,16.5c-0.6,0.1-1.2,0.5-1.7,0.8c-0.9,0.6-1.8,1.2-2.2,2.3"/>
				<g>
					<path d="M48.9,16.4c-0.9,0.3-1.6,0.7-2.2,1.2c-0.7,0.5-1.4,1.1-1.8,2.1c-0.1,0.3,0.6,0.2,0.7,0c0.3-0.8,0.9-1.3,1.5-1.8
						c0.7-0.5,1.3-1,2.2-1.2C49.8,16.6,49.2,16.3,48.9,16.4z"/>
				</g>
			</g>
		</g>
	</g>
</g>
<g>
	<linearGradient id="SVGID_20_" gradientUnits="userSpaceOnUse" x1="36.0617" y1="7.8466" x2="38.6741" y2="7.8466">
		<stop  offset="0" style="stop-color:#FFFFFF"/>
		<stop  offset="1" style="stop-color:#000000"/>
	</linearGradient>
	<path class="st20" d="M38.7,6.8c-0.3,0-0.6,0.3-0.8,0.5c-0.5,0.6-1.1,1.1-1.8,1.5"/>
	<g>
		<g>
			<g>
				<path class="st1" d="M39,8.1c0-0.1,0-0.3-0.1-0.4c0-0.1,0-0.3-0.2-0.5c-0.1-0.1-0.2-0.2-0.3-0.3c-0.6-0.5-1.4-0.1-1.7-0.1
					c-0.7,0.1-1.2,0.3-1.6,0.5"/>
				<g>
					<path d="M39.2,8.3c-0.1-0.1-0.1-0.4-0.2-0.7c-0.1-0.3-0.2-0.7-0.7-1.1c-0.4-0.3-0.9-0.3-1.3-0.2c-0.4,0.1-0.6,0.1-0.9,0.2
						c-0.5,0.1-0.9,0.3-1.2,0.5c-0.1,0.1,0.3,0.6,0.4,0.6c0.4-0.2,0.9-0.4,1.4-0.6c0.1,0,0.3-0.1,0.5-0.1c0.2,0,0.5-0.1,0.8,0
						c0.5,0.1,0.6,0.5,0.6,1C38.7,7.9,39.3,8.4,39.2,8.3z"/>
				</g>
			</g>
			<g>
				<path class="st1" d="M38.9,8c0.1,0.2,0.2,0.3,0.2,0.4c0,0.1-0.1,0.3-0.2,0.5c-0.2,0.3-0.5,0.7-1,0.5c-0.2,0-0.3-0.2-0.5-0.3
					c-0.9-0.6-1.7-1.2-2.4-2"/>
				<g>
					<path d="M38.7,7.8c0.1,0.2,0.2,0.3,0.1,0.4c0,0.2-0.1,0.3-0.2,0.4c-0.3,0.5-0.6,0.6-1.4,0.2C36.4,8.4,35.7,7.7,35,7
						c-0.3-0.3,0,0.2,0.2,0.4C35.7,8,36.3,8.5,37,9c0.5,0.3,1,0.7,1.4,0.7c0.7,0,1.4-1.1,0.7-1.5C39,8,38.5,7.6,38.7,7.8z"/>
				</g>
			</g>
			<g>
				<path class="st1" d="M39,8.1c-0.5-0.4-1-0.4-1.5-0.5c-0.8-0.1-1.6-0.4-2.2-0.4"/>
				<g>
					<path d="M38.8,7.9c-0.3-0.3-0.7-0.4-1.1-0.4c-0.4-0.1-0.7-0.1-1-0.2c-0.7-0.2-1.3-0.3-1.8-0.4c-0.1,0,0.3,0.6,0.4,0.6
						c0.4,0,1,0.2,1.6,0.3c0.3,0.1,0.6,0.1,1,0.2c0.4,0.1,0.7,0.1,1.1,0.4C39.4,8.5,39,8.1,38.8,7.9z"/>
				</g>
			</g>
		</g>
	</g>
</g>
<g>
	<linearGradient id="SVGID_21_" gradientUnits="userSpaceOnUse" x1="7.3399" y1="8.1609" x2="8.4052" y2="8.1609">
		<stop  offset="0" style="stop-color:#FFFFFF"/>
		<stop  offset="1" style="stop-color:#000000"/>
	</linearGradient>
	<path class="st21" d="M8.4,7.6C8,7.9,7.6,8.3,7.3,8.8"/>
	<g>
		<g>
			<g>
				<path class="st1" d="M9,8.8C9,8.7,9,8.6,8.9,8.4C8.8,8.2,8.7,8,8.6,7.9C8.5,7.7,8.4,7.6,8.3,7.6C7.8,7.2,7.4,7.1,7,7.1
					c-0.6,0-1,0.2-1.3,0.6"/>
				<g>
					<path d="M9.3,9C9.2,8.7,8.9,8,8.1,7.3c-1.3-1-2.3-0.4-2.7,0.2C5.4,7.6,6,8,6.1,7.9c0.2-0.3,0.6-0.5,1.1-0.6
						c0.2,0,0.6,0.1,1,0.3c0.4,0.2,0.6,0.6,0.7,0.9C8.8,8.6,9.3,9.1,9.3,9z"/>
				</g>
			</g>
			<g>
				<path class="st1" d="M9,8.7c0.3,0.3,0.3,0.5,0.3,0.6c0,0.1,0,0.2-0.4,0C8.8,9.2,8.6,9.1,8.4,9c-0.9-0.5-1.8-1-2.7-1.3"/>
				<g>
					<path d="M8.8,8.5C9,8.8,9,9,9,9.1c0,0.2-0.1,0.2-0.9-0.3C7.3,8.4,6.4,7.9,5.5,7.6C5.1,7.4,5.6,7.8,5.9,7.9
						c0.7,0.3,1.5,0.6,2.2,1c0.5,0.3,1,0.6,1.3,0.7c0.4,0.2,0.3,0-0.1-0.7C9.1,8.7,8.6,8.3,8.8,8.5z"/>
				</g>
			</g>
			<g>
				<path class="st1" d="M9,8.8C8.6,8.4,8.2,8.1,7.8,7.9c-0.7-0.3-1.5-0.5-2-0.3"/>
				<g>
					<path d="M8.9,8.6C8.3,8,7.7,7.8,7.2,7.6C6.6,7.3,6,7.3,5.5,7.4C5.3,7.5,6,7.8,6.1,7.8C6.5,7.7,7,7.8,7.5,8c0.5,0.2,1,0.4,1.6,1
						C9.5,9.3,9.1,8.8,8.9,8.6z"/>
				</g>
			</g>
		</g>
	</g>
</g>
<g>
	<linearGradient id="SVGID_22_" gradientUnits="userSpaceOnUse" x1="2.513" y1="26.4457" x2="4.1238" y2="26.4457">
		<stop  offset="0" style="stop-color:#FFFFFF"/>
		<stop  offset="1" style="stop-color:#000000"/>
	</linearGradient>
	<path class="st22" d="M4.1,24.8c-0.7,1-1.2,2.1-1.6,3.3"/>
	<g>
		<g>
			<g>
				<path class="st1" d="M4.8,26.2c0-0.2,0-0.4-0.1-0.6c-0.1-0.2-0.2-0.4-0.4-0.5C4.2,25,4.1,25,3.9,25c-0.7-0.1-1.2,0.2-1.7,0.5
					c-0.7,0.5-1.2,1.2-1.5,2"/>
				<g>
					<path d="M5.2,26.3c0-0.6-0.4-1.4-1.5-1.5c-1.7-0.2-2.9,1.4-3.3,2.5c-0.1,0.2,0.7,0.3,0.7,0.2c0.3-0.7,0.7-1.3,1.3-1.7
						c0.2-0.2,0.8-0.5,1.3-0.5c0.5,0,0.9,0.2,0.8,0.8C4.5,26.2,5.2,26.4,5.2,26.3z"/>
				</g>
			</g>
			<g>
				<path class="st1" d="M4.8,26.1C5.1,26.4,5.1,26.7,5,27c-0.1,0.3-0.2,0.6-0.6,0.6c-0.2,0-0.4,0-0.6,0c-1-0.1-2.1-0.2-3.2-0.2"/>
				<g>
					<path d="M4.5,26c0.3,0.3,0.2,0.6,0.2,0.8c-0.1,0.4-0.3,0.6-1.2,0.6c-0.9-0.1-2-0.2-3-0.1c-0.5,0,0.1,0.3,0.4,0.3
						c0.8,0,1.6,0,2.5,0.1c0.6,0.1,1.2,0.2,1.6,0.1c0.5-0.2,0.7-0.9,0.1-1.5C4.9,26,4.3,25.8,4.5,26z"/>
				</g>
			</g>
			<g>
				<path class="st1" d="M4.8,26.2c-0.6-0.2-1.1-0.1-1.6,0c-0.9,0.2-1.8,0.4-2.4,1"/>
				<g>
					<path d="M4.7,26c-0.8-0.2-1.5-0.1-2.2,0.1c-0.8,0.2-1.5,0.5-2,1c-0.2,0.2,0.6,0.3,0.7,0.2c0.4-0.4,1-0.7,1.7-0.8
						c0.7-0.2,1.3-0.3,2.2-0.1C5.4,26.5,4.9,26,4.7,26z"/>
				</g>
			</g>
		</g>
	</g>
</g>
<g>
	<linearGradient id="SVGID_23_" gradientUnits="userSpaceOnUse" x1="24.532" y1="17.9886" x2="25.7912" y2="17.9886">
		<stop  offset="0" style="stop-color:#FFFFFF"/>
		<stop  offset="1" style="stop-color:#000000"/>
	</linearGradient>
	<path class="st23" d="M24.5,16.6c0.7,0.8,1.1,1.7,1.3,2.7"/>
	<g>
		<g>
			<g>
				<path class="st1" d="M26,16.4c-0.2-0.1-0.4-0.2-0.6-0.2c-0.2,0-0.4,0.1-0.6,0.2c-0.1,0.1-0.2,0.2-0.2,0.4
					c-0.3,0.6-0.4,1-0.5,1.4c-0.2,0.6-0.2,1-0.2,1.3"/>
				<g>
					<path d="M26.3,16.2c-0.6-0.4-1.5-0.1-2,0.9c-0.8,1.4-0.8,2.1-0.8,2.6c0,0.1,0.7-0.1,0.7-0.1c0-0.4,0-0.7,0.1-1.3
						c0-0.2,0.2-0.7,0.3-1.1c0.2-0.4,0.5-0.8,1.1-0.5C25.9,16.7,26.4,16.3,26.3,16.2z"/>
				</g>
			</g>
			<g>
				<path class="st1" d="M25.9,16.4c0.4-0.1,0.7,0.1,0.9,0.3c0.2,0.3,0.4,0.7,0.2,1.1c-0.1,0.1-0.3,0.3-0.4,0.4
					c-0.9,0.6-1.8,1-2.8,1.4"/>
				<g>
					<path d="M25.8,16.7c0.4-0.1,0.7,0.1,0.8,0.3c0.3,0.4,0.4,0.8-0.3,1.3c-0.8,0.6-1.7,1-2.6,1.3c-0.4,0.1,0.2,0.1,0.5,0
						c0.8-0.2,1.5-0.6,2.2-1c0.5-0.3,1.1-0.6,1.2-1.1c0.2-0.7-0.5-1.6-1.4-1.3C25.9,16.2,25.5,16.7,25.8,16.7z"/>
				</g>
			</g>
			<g>
				<path class="st1" d="M26,16.4c-0.4,0.5-0.6,1-0.9,1.4c-0.4,0.7-1,1.3-1.3,1.7"/>
				<g>
					<path d="M25.8,16.5c-0.5,0.7-0.8,1.3-1.2,1.8c-0.4,0.6-0.8,1-1.1,1.3c-0.1,0.1,0.6,0,0.7-0.2c0.2-0.3,0.6-0.7,0.9-1.2
						c0.4-0.5,0.6-1.1,1.1-1.8C26.5,16,26,16.2,25.8,16.5z"/>
				</g>
			</g>
		</g>
	</g>
</g>
<g>
	<linearGradient id="SVGID_24_" gradientUnits="userSpaceOnUse" x1="3.4917" y1="48.7034" x2="3.7439" y2="48.7034">
		<stop  offset="0" style="stop-color:#FFFFFF"/>
		<stop  offset="1" style="stop-color:#000000"/>
	</linearGradient>
	<path class="st24" d="M3.7,48.4c-0.2,0.1-0.3,0.4-0.2,0.6"/>
	<g>
		<g>
			<g>
				<path class="st1" d="M4.9,48.6c-0.1,0-0.2,0-0.3-0.1c-0.1,0-0.3-0.1-0.5-0.1c-0.1,0-0.3,0-0.4,0c-0.7,0-1.1,0-1.4,0.1
					c-0.5,0.2-0.7,0.4-0.6,0.7"/>
				<g>
					<path d="M5.2,48.6c-0.1,0-0.4-0.1-0.7-0.1c-0.3,0-0.6-0.1-1.2-0.1c-0.9,0-1.4,0.1-1.7,0.3c-0.1,0.1-0.2,0.2-0.3,0.3
						c0,0.1,0,0.1-0.1,0.2c0,0.1,0,0.1,0,0.2c0,0.2,0.7-0.1,0.7-0.2c0-0.3,0.1-0.4,0.5-0.6c0.1-0.1,0.5-0.2,1-0.2c0.4,0,0.8,0,1,0.1
						C4.6,48.6,5.3,48.6,5.2,48.6z"/>
				</g>
			</g>
			<g>
				<path class="st1" d="M4.8,48.6c0.4,0,0.5,0.1,0.6,0.1c0.1,0,0.1,0-0.3,0c-0.1,0-0.3,0-0.5,0c-0.5,0-1,0.1-1.5,0.2
					c-0.5,0.1-1,0.1-1.5,0.4"/>
				<g>
					<path d="M4.5,48.6c0.4,0,0.4,0.1,0.5,0.1c0.1,0,0,0-0.8,0.1c-0.9,0.1-1.9,0.2-2.8,0.5c-0.4,0.2,0.2,0.1,0.5,0
						c0.4-0.2,0.7-0.3,1.1-0.3c0.4-0.1,0.8-0.1,1.2-0.2c0.5-0.1,1.2-0.1,1.5-0.1c0.4,0,0.2,0-0.5-0.1C4.9,48.6,4.3,48.5,4.5,48.6z"
						/>
				</g>
			</g>
			<g>
				<path class="st1" d="M4.9,48.6c-0.6,0-1,0-1.5,0c-0.8,0.1-1.5,0.3-1.8,0.5"/>
				<g>
					<path d="M4.7,48.6c-0.4,0-0.7,0-1,0c-0.3,0-0.6,0.1-0.9,0.1c-0.6,0.1-1.2,0.3-1.5,0.5c0,0,0.1,0.1,0.3,0c0.2,0,0.4-0.1,0.4-0.1
						c0.3-0.2,0.7-0.3,1.2-0.4c0.6-0.1,1.1-0.1,1.9-0.1C5.5,48.6,4.9,48.6,4.7,48.6z"/>
				</g>
			</g>
		</g>
	</g>
</g>
<g>
	<linearGradient id="SVGID_25_" gradientUnits="userSpaceOnUse" x1="32.8293" y1="42.6532" x2="34.7765" y2="42.6532">
		<stop  offset="0" style="stop-color:#FFFFFF"/>
		<stop  offset="1" style="stop-color:#000000"/>
	</linearGradient>
	<path class="st25" d="M32.8,41.2c0.4,1.1,1.1,2.2,1.9,3"/>
	<g>
		<g>
			<g>
				<path class="st1" d="M34.3,41.3c-0.1-0.1-0.3-0.2-0.5-0.2c-0.2,0-0.4,0-0.6,0c-0.1,0.1-0.3,0.2-0.3,0.3
					c-0.4,0.5-0.6,1.1-0.5,1.7c0,0.9,0.4,1.7,1.1,2.3"/>
				<g>
					<path d="M34.6,41.1c-0.4-0.3-1.3-0.4-2.1,0.4C32,42.1,31.8,43,32,43.8c0.2,0.8,0.7,1.5,1.1,2c0.1,0.2,0.6-0.5,0.5-0.6
						c-0.5-0.5-0.9-1.2-1-2c0-0.3,0-1,0.3-1.4c0.2-0.4,0.6-0.6,1.1-0.3C34.1,41.6,34.7,41.2,34.6,41.1z"/>
				</g>
			</g>
			<g>
				<path class="st1" d="M34.2,41.3c0.4-0.1,0.7,0.1,0.8,0.2c0.2,0.2,0.4,0.4,0.2,0.7c-0.1,0.1-0.2,0.3-0.3,0.5
					c-0.6,0.8-1.1,1.8-1.6,2.7"/>
				<g>
					<path d="M34,41.5c0.4-0.1,0.6,0.1,0.8,0.2c0.3,0.3,0.4,0.5-0.1,1.2c-0.5,0.8-1.1,1.7-1.5,2.6c-0.2,0.4,0.3,0,0.4-0.2
						c0.3-0.8,0.7-1.5,1.2-2.2c0.3-0.5,0.7-1,0.8-1.3c0.1-0.5-0.3-0.9-1.1-0.8C34.3,41.2,33.7,41.6,34,41.5z"/>
				</g>
			</g>
			<g>
				<path class="st1" d="M34.3,41.3c-0.5,0.4-0.7,0.9-0.9,1.3c-0.3,0.8-0.5,1.8-0.2,2.6"/>
				<g>
					<path d="M34.1,41.4c-0.7,0.6-0.9,1.2-1.1,1.9c-0.2,0.8-0.3,1.6,0,2.3c0.1,0.2,0.6-0.3,0.5-0.5c-0.2-0.6-0.1-1.2,0-1.9
						c0.2-0.7,0.4-1.3,1.1-1.8C34.9,41,34.3,41.2,34.1,41.4z"/>
				</g>
			</g>
		</g>
	</g>
</g>
<g>
	<linearGradient id="SVGID_26_" gradientUnits="userSpaceOnUse" x1="20.9243" y1="32.4851" x2="21.2956" y2="32.4851">
		<stop  offset="0" style="stop-color:#FFFFFF"/>
		<stop  offset="1" style="stop-color:#000000"/>
	</linearGradient>
	<path class="st26" d="M21.3,31.9c-0.3,0.3-0.4,0.8-0.4,1.2"/>
	<g>
		<g>
			<g>
				<path class="st1" d="M22.3,32.6c0,0-0.2-0.1-0.3-0.2c-0.1-0.1-0.3-0.2-0.5-0.3c-0.1-0.1-0.3-0.1-0.4-0.2c-0.6-0.2-1-0.1-1.4,0
					c-0.5,0.2-0.8,0.7-0.8,1.2"/>
				<g>
					<path d="M22.7,32.7c-0.3-0.1-0.8-0.6-1.8-1c-0.8-0.2-1.4-0.1-1.7,0.2c-0.4,0.3-0.5,0.8-0.5,1.2c0,0.1,0.7,0,0.7-0.1
						c0-0.4,0.2-0.7,0.6-1c0.2-0.1,0.6-0.2,1-0.1c0.4,0.1,0.8,0.3,1,0.5C22.1,32.5,22.7,32.8,22.7,32.7z"/>
				</g>
			</g>
			<g>
				<path class="st1" d="M22.3,32.6c0.4,0.2,0.5,0.2,0.5,0.3c0.1,0,0.1,0.1-0.3,0c-0.1,0-0.3,0-0.5,0c-1,0-2,0-3,0.3"/>
				<g>
					<path d="M22,32.5c0.3,0.2,0.4,0.2,0.5,0.3c0.1,0.1,0,0.1-0.9,0c-0.9,0-1.9,0.1-2.9,0.3c-0.4,0.1,0.2,0.1,0.5,0.1
						c0.8-0.2,1.6-0.3,2.3-0.3c0.5,0,1.2,0,1.5,0.1c0.4,0.1,0.2,0.1-0.5-0.3C22.4,32.6,21.7,32.3,22,32.5z"/>
				</g>
			</g>
			<g>
				<path class="st1" d="M22.3,32.6c-0.6-0.2-1-0.3-1.4-0.3c-0.7,0-1.5,0.2-1.9,0.6"/>
				<g>
					<path d="M22.1,32.5c-0.8-0.3-1.4-0.3-1.9-0.2c-0.7,0.1-1.2,0.3-1.5,0.7c-0.1,0.1,0.6,0.1,0.7,0c0.3-0.3,0.8-0.5,1.3-0.5
						c0.6-0.1,1.1,0,1.9,0.2C22.9,32.8,22.4,32.6,22.1,32.5z"/>
				</g>
			</g>
		</g>
	</g>
</g>
<g>
	<linearGradient id="SVGID_27_" gradientUnits="userSpaceOnUse" x1="43.3519" y1="39.0416" x2="45.4037" y2="39.0416">
		<stop  offset="0" style="stop-color:#FFFFFF"/>
		<stop  offset="1" style="stop-color:#000000"/>
	</linearGradient>
	<path class="st27" d="M43.4,36.2c0.6,2,1.3,3.9,2.1,5.8"/>
	<g>
		<g>
			<g>
				<path class="st1" d="M45,37c-0.2-0.3-0.4-0.5-0.6-0.7c-0.2-0.1-0.4-0.2-0.7-0.1c-0.1,0.1-0.3,0.2-0.3,0.3
					c-0.4,0.7-0.5,1.5-0.5,2.3c0,1.2,0.2,2.5,0.7,3.6"/>
				<g>
					<path d="M45.3,36.8c-0.6-0.8-1.5-1.3-2.2-0.2c-1.1,1.7-0.5,4.4,0.2,6c0.1,0.3,0.7-0.1,0.6-0.4c-0.4-1-0.6-2.1-0.7-3.2
						c-0.1-0.9,0.3-3.6,1.5-1.9C44.8,37.4,45.5,37,45.3,36.8z"/>
				</g>
			</g>
			<g>
				<path class="st1" d="M44.9,37c0.5,0,0.8,0.5,1,0.9c0.2,0.5,0.5,1,0.3,1.5c-0.1,0.2-0.2,0.4-0.4,0.5c-0.8,0.8-1.5,1.7-2.2,2.5"/>
				<g>
					<path d="M44.7,37.2c0.5,0.1,0.7,0.5,0.9,0.9c0.4,0.7,0.5,1.2-0.2,2c-0.6,0.8-1.4,1.6-2.1,2.4c-0.3,0.4,0.3,0.2,0.5,0
						c0.6-0.7,1.1-1.3,1.7-2c0.4-0.4,0.9-0.9,1-1.5c0.1-0.8-0.5-2.1-1.4-2.3C44.9,36.7,44.3,37.1,44.7,37.2z"/>
				</g>
			</g>
			<g>
				<path class="st1" d="M45,37c-0.5,0.4-0.7,1.1-1,1.7c-0.4,1.1-0.7,2.2-0.6,3.4"/>
				<g>
					<path d="M44.7,37c-0.7,0.7-0.9,1.6-1.2,2.4c-0.3,1-0.5,1.9-0.4,2.9c0,0.3,0.7,0,0.7-0.3c0-0.9,0.1-1.7,0.4-2.5
						c0.3-0.8,0.5-1.7,1.2-2.4C45.6,36.7,45,36.8,44.7,37z"/>
				</g>
			</g>
		</g>
	</g>
</g>
<g>
	<linearGradient id="SVGID_28_" gradientUnits="userSpaceOnUse" x1="24.5096" y1="6.8323" x2="24.6472" y2="6.8323">
		<stop  offset="0" style="stop-color:#FFFFFF"/>
		<stop  offset="1" style="stop-color:#000000"/>
	</linearGradient>
	<path class="st28" d="M24.6,6.5c0,0.2-0.1,0.4-0.1,0.7"/>
	<g>
		<g>
			<g>
				<path class="st1" d="M25.9,6.9c-0.1,0-0.2-0.1-0.4-0.2c-0.1,0-0.3-0.1-0.6-0.2c-0.2,0-0.3,0-0.4-0.1c-0.6-0.1-0.9,0-1.2,0
					c-0.4,0-0.7,0.1-0.7,0.3"/>
				<g>
					<path d="M26.3,7c-0.3-0.2-1-0.4-2-0.5c-1.5-0.2-1.9,0.1-2,0.2c0,0,0.7,0.2,0.7,0.1c0-0.1,0.2-0.2,0.6-0.2c0.3,0,1.4-0.1,2,0.3
						C25.6,6.9,26.3,7,26.3,7z"/>
				</g>
			</g>
			<g>
				<path class="st1" d="M25.8,6.9c0.4,0.1,0.5,0.2,0.6,0.3c0.1,0.1,0.1,0.2-0.3,0.1c-0.1,0-0.3,0-0.5-0.1c-1-0.1-2-0.3-3-0.4"/>
				<g>
					<path d="M25.5,6.8C25.9,7,26,7,26.1,7.1c0.1,0.1,0,0.1-0.9,0c-0.9-0.1-1.9-0.3-2.8-0.4c-0.4-0.1,0.2,0.1,0.4,0.1
						c0.8,0.1,1.6,0.2,2.3,0.3c0.5,0.1,1.2,0.2,1.5,0.2c0.4,0,0.3-0.2-0.5-0.4C25.9,6.9,25.3,6.8,25.5,6.8z"/>
				</g>
			</g>
			<g>
				<path class="st1" d="M25.9,6.9c-0.6-0.1-1-0.1-1.5-0.1c-0.7,0-1.4-0.1-1.8,0"/>
				<g>
					<path d="M25.7,6.8c-0.8-0.1-1.4-0.1-1.9-0.2c-0.6,0-1.1,0-1.5,0c-0.1,0,0.6,0.2,0.7,0.1c0.3,0,0.7,0,1.3,0c0.5,0,1.1,0,1.9,0.2
						C26.6,7,26,6.9,25.7,6.8z"/>
				</g>
			</g>
		</g>
	</g>
</g>
<g>
	<linearGradient id="SVGID_29_" gradientUnits="userSpaceOnUse" x1="12.8251" y1="12.1735" x2="14.6082" y2="12.1735">
		<stop  offset="0" style="stop-color:#FFFFFF"/>
		<stop  offset="1" style="stop-color:#000000"/>
	</linearGradient>
	<path class="st29" d="M14.6,10.2c-0.8,1.2-1.4,2.6-1.8,4"/>
	<g>
		<g>
			<g>
				<path class="st1" d="M15.3,11.6c0-0.2,0-0.4-0.1-0.7c-0.1-0.2-0.2-0.4-0.4-0.5c-0.1-0.1-0.3-0.1-0.4-0.1c-0.7,0-1.3,0.3-1.8,0.7
					c-0.7,0.6-1.3,1.5-1.6,2.4"/>
				<g>
					<path d="M15.6,11.8c0-0.7-0.3-1.5-1.5-1.6c-1.8,0-3.1,1.9-3.5,3.2c-0.1,0.2,0.7,0.3,0.7,0.1c0.3-0.8,0.7-1.5,1.3-2.1
						c0.3-0.2,0.9-0.6,1.4-0.7c0.5-0.1,0.9,0.1,0.8,0.8C14.9,11.7,15.6,11.9,15.6,11.8z"/>
				</g>
			</g>
			<g>
				<path class="st1" d="M15.2,11.6c0.3,0.3,0.3,0.7,0.2,1c-0.1,0.3-0.2,0.7-0.6,0.8c-0.2,0-0.4,0-0.6,0c-1.1,0-2.1,0-3.2,0.1"/>
				<g>
					<path d="M14.9,11.5c0.3,0.3,0.2,0.7,0.1,0.9c-0.1,0.5-0.3,0.8-1.2,0.8c-1,0-2,0-3,0.1c-0.5,0.1,0.1,0.3,0.4,0.3
						c0.8-0.1,1.7-0.1,2.5-0.1c0.6,0,1.2,0.1,1.6-0.1c0.6-0.3,0.7-1.1,0.2-1.8C15.4,11.4,14.7,11.3,14.9,11.5z"/>
				</g>
			</g>
			<g>
				<path class="st1" d="M15.3,11.6c-0.6-0.1-1.2,0-1.7,0.2c-0.9,0.3-1.9,0.7-2.4,1.4"/>
				<g>
					<path d="M15.1,11.5c-0.9-0.1-1.6,0.1-2.3,0.4c-0.8,0.3-1.5,0.7-2,1.4c-0.2,0.2,0.6,0.3,0.7,0.2c0.4-0.5,1.1-0.9,1.7-1.1
						c0.7-0.3,1.4-0.5,2.3-0.4C15.9,11.9,15.4,11.5,15.1,11.5z"/>
				</g>
			</g>
		</g>
	</g>
</g>
<g>
	<linearGradient id="SVGID_30_" gradientUnits="userSpaceOnUse" x1="45.0936" y1="7.037" x2="46.8325" y2="7.037">
		<stop  offset="0" style="stop-color:#FFFFFF"/>
		<stop  offset="1" style="stop-color:#000000"/>
	</linearGradient>
	<path class="st30" d="M45.1,6.2c0.6,0.6,1.2,1.2,1.7,1.8"/>
	<g>
		<g>
			<g>
				<path class="st1" d="M46.4,5.6c-0.1,0-0.3,0-0.5,0c-0.2,0-0.3,0.1-0.5,0.3c-0.1,0.1-0.2,0.2-0.2,0.4c-0.3,0.6-0.3,1-0.3,1.4
					c0,0.6,0.2,1.1,0.6,1.5"/>
				<g>
					<path d="M46.6,5.3c-0.5-0.1-1.3,0.3-1.7,1.2c-0.7,1.5-0.2,2.4,0.3,2.9c0.1,0.1,0.6-0.5,0.5-0.5c-0.3-0.3-0.5-0.7-0.5-1.3
						c-0.1-0.4,0-1.9,1.1-1.8C46.3,5.9,46.8,5.4,46.6,5.3z"/>
				</g>
			</g>
			<g>
				<path class="st1" d="M46.3,5.7c0.4-0.2,0.6-0.2,0.8-0.1c0.2,0.1,0.4,0.3,0.3,0.6c-0.1,0.1-0.2,0.3-0.3,0.5
					c-0.6,0.9-1.1,1.7-1.7,2.6"/>
				<g>
					<path d="M46.2,5.9c0.4-0.2,0.6-0.1,0.7-0.1C47.2,6,47.3,6.2,46.8,7c-0.5,0.8-1.1,1.6-1.6,2.4c-0.2,0.4,0.2,0,0.4-0.3
						c0.4-0.7,0.9-1.3,1.3-2c0.3-0.5,0.7-1,0.8-1.3c0.1-0.5-0.5-0.8-1.2-0.4C46.3,5.5,45.9,6.1,46.2,5.9z"/>
				</g>
			</g>
			<g>
				<path class="st1" d="M46.4,5.6c-0.3,0.5-0.5,1-0.7,1.4c-0.2,0.8-0.5,1.5-0.4,2.1"/>
				<g>
					<path d="M46.2,5.7c-0.5,0.7-0.6,1.3-0.8,1.9c-0.2,0.7-0.3,1.2-0.3,1.7c0,0.1,0.5-0.4,0.5-0.5c0-0.4,0.1-0.9,0.3-1.5
						c0.2-0.6,0.3-1.2,0.8-1.9C46.9,5.1,46.4,5.5,46.2,5.7z"/>
				</g>
			</g>
		</g>
	</g>
</g>
</svg>
