<?xml version="1.0" encoding="utf-8"?>
<!-- Generator: Adobe Illustrator 21.1.0, SVG Export Plug-In . SVG Version: 6.00 Build 0)  -->
<svg version="1.1" xmlns="http://www.w3.org/2000/svg" xmlns:xlink="http://www.w3.org/1999/xlink" x="0px" y="0px"
	 viewBox="0 0 2111 1000" style="enable-background:new 0 0 2111 1000;" xml:space="preserve">
<style type="text/css">
	.st0{fill:#FFFFFF;stroke:#000000;stroke-width:0.25;stroke-miterlimit:10;}
	.st1{fill:#FFFFFF;}
	.st2{font-family:'ComicSansMS';}
	.st3{font-size:94px;}
</style>
<g id="Слой_1">
	
		<image style="overflow:visible;" width="769" height="1024" xlink:href="5447FACA.jpg"  transform="matrix(0.935 0 0 0.935 124 42.58)">
	</image>
</g>
<g id="Слой_2">
	<g>
		<path d="M318.2,124.3c4.3-13.8,17-23.7,30.8-28.2c13.7-4.5,28.5-4.3,43-3.5c3.4,0.2,7.3,0.3,9.9-1.9c1.7-1.5,2.5-3.7,3.5-5.7
			c3.5-6.8,10.5-13,9.2-20.5c-0.9-5.6-6.1-9.4-11.1-12.1C367.4,32.8,319,39.5,289.6,68.1c-29.4,28.6-37.4,76.8-18.9,113.4
			c2.5,5,6.4,10.4,12,10.6c9.8,0.3,15.9-15.3,25.3-12.4c1.8,0.5,3.3,1.7,4.8,2.9c12.2,10,23.2,21.5,32.7,34.1
			c2.3,3.1,5.7,6.6,9.3,5.4c0.9-3.1-0.4-6.4-1.7-9.4c-8-18.8-16-37.6-24-56.4c5.5-2,11.9-5.1,12.8-10.9c0.8-5.6-4.2-10.4-9.2-12.9
			c-5.1-2.5-10.9-4-14.8-8.2"/>
		<g>
			<path d="M319.6,124c7.3-21.5,29.9-30.1,50.8-31.2c5.6-0.3,11.3-0.2,16.9,0.1c3.5,0.2,7.2,0.7,10.6-0.1c7.1-1.6,9-9,12.7-14.5
				c4.2-6.2,8.1-13.3,2.6-20.1c-4.9-6-13.4-9.3-20.5-11.9c-15.1-5.5-31.5-7-47.4-4.9c-31.7,4.1-60.3,22.4-75,51.2
				c-7.5,14.6-11.2,31.1-11.1,47.5c0.1,8.6,1.3,17.3,3.6,25.6c2.1,7.4,4.9,15.7,9.8,21.7c4.1,5.1,9.9,6.4,15.7,3.6
				c2.8-1.4,5.2-3.5,7.5-5.6c1.5-1.4,3.1-3,4.9-4c3.5-2.1,6.2-1.6,9.5,0.7c9.2,6.6,17.5,15.6,24.9,24.1c3.6,4.1,6.6,8.6,10.2,12.6
				c2.6,2.9,5.1,4.4,9,3.7c0.4-0.1,1.6-0.3,1.7-0.8c0.9-5-1.7-9.5-3.6-14.1c-2.5-5.8-4.9-11.5-7.4-17.3
				c-4.9-11.5-9.8-23.1-14.7-34.6c-0.3,0.2-0.6,0.5-0.9,0.7c6.3-2.4,15.7-6.7,13.5-15c-2.7-10.6-17-11.2-23.9-17.8
				c-0.5-0.5-3.2,0.5-2.7,1c5.8,5.6,14.4,6.3,20.1,11.9c3.1,3,5,7.1,3.1,11.3c-1.9,4.4-7,6.4-11.2,8c-0.2,0.1-1.1,0.4-0.9,0.7
				c4.6,10.9,9.3,21.8,13.9,32.8c2.2,5.2,4.4,10.3,6.6,15.5c2.2,5.3,6.2,11.5,5.2,17.4c0.6-0.3,1.1-0.5,1.7-0.8
				c-5.1,0.9-8.9-6.3-11.4-9.5c-2.9-3.7-5.9-7.2-9.1-10.7c-6.3-6.9-13-13.5-20.3-19.3c-10.1-8.1-16.8,1.3-24.9,7.1
				c-5.2,3.7-10.7,1.3-14.2-3.2c-2.6-3.4-4.4-7.5-6-11.4c-2.9-7.1-4.9-14.6-5.9-22.2c-2.2-15.5-0.7-31.4,4.2-46.2
				C278,73.9,304.7,50.2,338,43.6c16-3.1,32.7-2.4,48.3,2.5c7.4,2.3,15.8,5.5,21.8,10.6c7.9,6.8,4.8,14.7-0.3,22.1
				c-1.3,1.8-2.5,3.7-3.6,5.6c-0.4,0.8-0.8,1.6-1.2,2.5c-1.4,2.7-5.7,4.6-8.6,5c-5,0.8-10.9-0.6-16-0.6c-9.4,0-18.8,0.9-27.8,3.6
				c-14.9,4.4-28.7,14.4-33.8,29.5C316.5,125.1,319.3,124.8,319.6,124L319.6,124z"/>
		</g>
	</g>
	<g>
		<path d="M399,90.6c4-1.7,8.1-3.6,11.2-6.6c5-4.8,11.7-19.5,1.3-22.7"/>
		<g>
			<path d="M399.7,91.4c8-3.4,14.3-7.8,17.4-16.1c2.2-6,2-12.5-4.7-15c-1.2-0.4-3.4,1.2-1.7,1.9c6.6,2.5,5.1,9.7,2.8,14.8
				c-3.1,6.6-8.5,9.9-15.1,12.7C396.6,90.5,398.2,92,399.7,91.4L399.7,91.4z"/>
		</g>
	</g>
	<g>
		<path d="M466.6,520c-4.6-6.7-4.6-16.3,0.1-23c1.3-1.9,3-3.6,3.3-5.9c0.9-5.8-6.5-8.7-12.2-10.2c-11-2.8-22.2-14.2-32.5-20.2
			c-12.1-7.1-23.5-14.1-31.4-25.8c-9-13.3-17.9-26.7-26.4-40.4c-7.9-12.8-16-26-19.1-40.8c-2.5,0.7-2.5,5.3-5.4,4.7
			c-3-0.7-3.2-7.9-4-10.1c-3.7-10.3-10.1-19-12-30.1c-2.2-13.2,1.4-26.8,2.1-40.2c0.1-1.2,0.1-2.5-0.6-3.5s-2.3-1.4-3-0.5
			c-0.3,0.4-0.4,0.9-0.5,1.3c-0.7,4.3-0.4,8.7-1.3,12.9c-0.5,2.3-1.4,4.6-2,6.9c-4.4,16.6,0.7,37.9,2.5,54.7
			c0.8,7.9,1.6,15.8,4,23.4c2.3,7.4,5.9,14.2,9.9,20.8c4.2,7,8.8,13.9,14,20.2c7.5,9.2,16.2,17.3,24.9,25.4
			c15.4,14.3,30.8,28.7,46.2,43c13.3,12.4,26.8,24.9,42.9,33.1"/>
		<g>
			<path d="M467.9,519.4c-4.3-6.8-4.4-15.3,0-22c2.5-3.8,5.3-7.5,1.9-11.7c-3.2-3.9-8.7-4.7-13.2-6.2c-7-2.4-13-7.2-18.8-11.5
				c-11.2-8.4-24.3-14.3-34.5-24c-5.9-5.6-10.1-12.4-14.5-19.1c-4.8-7.2-9.6-14.5-14.3-21.8c-9.9-15.5-20.5-31.4-24.6-49.5
				c-0.2-0.9-1.5-0.7-2.1-0.5c-1.2,0.6-1.8,1.2-2.6,2.3c-1,1.4-1,3.5-2.8,0.4c-0.5-0.9-0.7-2.2-0.9-3.2c-1.1-5.3-3.1-10-5.5-15
				c-2.8-5.8-5.8-11.6-7.1-18c-1.6-7.7-1-15.5-0.1-23.3c0.7-6.2,2.8-13.5,2-19.8c-0.4-2.7-2.9-5.4-5.7-3.2
				c-3.4,2.6-1.8,11.4-2.6,15.2c-1.4,6.7-3.5,12.6-3.7,19.7c-0.4,13.1,2.3,26.1,3.8,39.1c1.7,14.1,3.3,27,10,39.8
				c6.6,12.6,14.9,24.5,24.5,35c10,10.8,21.2,20.6,31.9,30.6c12.8,11.9,25.5,23.9,38.4,35.7c11.6,10.7,23.7,21,37.8,28.4
				c1.1,0.6,3.6-0.9,2.2-1.7c-24.7-12.9-44.4-34.5-64.6-53.3c-21.4-19.9-44.7-38.8-60.5-63.7c-7.8-12.3-13.5-24.8-15.5-39.3
				c-1.7-13-3.7-26.1-4.8-39.1c-0.5-6.6-0.7-13.3,0.4-19.8c0.5-3.4,1.6-6.5,2.5-9.8c1-3.6,0.3-7.5,1.3-11c0.3-1.2,1.6-5.5,1.6-0.8
				c0,1.8-0.2,3.7-0.4,5.5c-0.3,3.1-0.7,6.1-1.1,9.2c-0.8,6.8-1.6,13.6-1.2,20.4c0.5,7.4,2.8,14.1,5.9,20.7c2.6,5.6,6,11.1,7.2,17.2
				c0.6,2.8,0.9,7.7,4.4,8.4c3.8,0.8,3.9-3.7,6.5-4.9c-0.7-0.2-1.4-0.3-2.1-0.5c3.5,15.3,11.6,28.7,19.7,41.9
				c8.9,14.4,17.8,29.5,28.2,42.8c8.9,11.3,21.4,17.3,33,25.1c6,4,11.5,8.7,17.5,12.5c5.2,3.3,10.6,4.6,16.3,6.9
				c3.8,1.6,8,4.3,6.4,8.9c-1.2,3.5-4.2,6-5.4,9.6c-2.1,6.3-1,13.1,2.5,18.7C465.9,521.8,468.7,520.7,467.9,519.4L467.9,519.4z"/>
		</g>
	</g>
	<g>
		<path d="M550,594c4.3-8.2,8.5-16.4,12.8-24.6c3.1,7,10.4,11.8,18,11.8c2.1,0,4.4-0.3,6.4,0.3c5.2,1.6,6.7,8.1,8,13.4
			c1.7,7.1,4.6,13.9,7.3,20.7c8.1,20.2,15.3,40.8,21.5,61.7c-1.6-0.1-2.5-1.7-3.2-3.2c-2.6-5.9-5.2-11.8-7.8-17.7
			c-2.3-5.3-4.6-10.5-7.9-15.3c-11.7-16.8-32.8-23.3-49.8-34.8c-3.9-2.6-8-6.9-6.3-11.3"/>
		<g>
			<path d="M551.4,593.7c4.3-8.2,8.5-16.4,12.8-24.6c-1,0.2-1.9,0.4-2.9,0.7c4,8.2,11.4,11.7,20.2,11.9c6.6,0.2,9.3,3.1,11.1,9.1
				c1.6,5.3,2.8,10.6,4.7,15.7c8.8,23.6,18,46.9,25.2,71.1c0.9-0.3,1.8-0.6,2.6-0.9c-2.8-0.8-3.8-5.1-4.9-7.5
				c-1.2-2.7-2.3-5.3-3.5-8c-2.2-4.9-4.2-9.9-6.7-14.7c-4.1-7.8-10-14.1-17.1-19.3c-7.1-5.1-15-9.1-22.6-13.3
				c-6.4-3.5-22.3-9.9-19.9-19.2c0.1-0.5-2.7-0.1-2.8,0.5c-2.2,8.7,10.1,14,16,17.4c8.5,4.8,17.4,9.1,25.4,14.7
				c8.6,6,15.2,13.6,19.7,23.1c2.7,5.6,5,11.3,7.5,16.9c1.5,3.4,2.6,9.2,6.5,10.4c0.4,0.1,2.8-0.3,2.6-0.9
				c-7.2-24.2-16.4-47.5-25.2-71.1c-1.9-5-3.1-10-4.5-15.1c-1-3.5-2.5-7.5-6-9.2c-4.4-2.2-9.8-0.2-14.5-2.1
				c-4.9-1.9-8.7-5.6-11-10.4c-0.3-0.6-2.6,0.2-2.9,0.7c-4.3,8.2-8.5,16.4-12.8,24.6C548.4,594.5,551.1,594.4,551.4,593.7
				L551.4,593.7z"/>
		</g>
	</g>
	<g>
		<path d="M586,581.8c16.7-3.8,34.4,0.1,49.8,7.6c0.9,0.4,1.9,1,2.1,2c-2,1.3-4.6,1.3-6.8,0.7c-2.3-0.6-4.4-1.7-6.5-2.6
			c-9.3-3.9-19.9-3.3-30-2.7"/>
		<g>
			<path d="M586.2,582.7c9-1.9,18.1-1.8,27.1,0.1c4,0.8,8,2,11.8,3.4c3.3,1.2,9.8,2.7,11.4,5.9c0.2-0.5,0.5-0.9,0.7-1.4
				c-4.7,2.3-9.3-1.2-13.6-2.7c-2.9-1-5.9-1.7-8.9-2.1c-6.6-0.9-13.4-0.5-20.1-0.1c-1.6,0.1-2.3,2.1-0.3,2c9.2-0.6,18.8-1.1,27.6,2
				c5.6,2,10.6,5.4,16.5,2.5c0.6-0.3,1-0.8,0.7-1.4c-1.5-2.9-6.3-4.1-9.1-5.2c-5-2-10.2-3.6-15.5-4.7c-9.6-2-19.3-2.1-29,0
				C583.9,581.2,584.4,583.1,586.2,582.7L586.2,582.7z"/>
		</g>
	</g>
	<g>
		<path d="M635.6,592.4c14.9-4.7,29.6-10.2,43.1-18.1c14.1-8.3,28.5-19.5,44.8-17.7c1.8,0.2,3.8,0.5,5.2-0.7
			c2.8-2.4-0.3-6.6-1.6-10.1c-1.9-5.5,2.1-11.6,7.4-14c5.3-2.4,11.3-2.1,17.1-1.7c1.2,0.1,2.4,0.2,3.4,0.8c1.2,0.8,1.8,2.3,2.3,3.7
			c1.7,4.9,2.9,9.9,3.6,15c1.7,12,0.6,24.2,0.9,36.3c0.5,17.6,3.9,35.1,10.2,51.6c1.6,4.3,3.4,9.1,1.5,13.3c-1.1,2.3-3.2,4-5.2,5.6
			c-4.5,3.6-9.1,7.2-13.6,10.7c-4.6,3.6-9.5,7.7-10.6,13.4c11.8-8.7,23.5-17.5,35.3-26.2c1.5,0.7,1.8,2.8,1.2,4.3s-2,2.6-3.2,3.7
			c-5.1,4.1-8.6,9.3-13.5,13.5c-3.6,3.1-7.8,5.6-11.9,8c-2.2,1.3-5.2,2.4-6.7,4.5c-0.4,0.6-3,7.7-1.6,7.4c6.5-1,12-5.9,18.2-8.4
			c0.1-0.4,0.2-0.7,0.2-1.1c0.3-1.5,7.8-6.3,9.4-8.2c3.3-3.8,5.5-8.3,10.7-9.9c1.7,3.8,3.4,7.6,5,11.4c1.2,2.7,2.4,5.6,2.2,8.5
			c-0.3,4.5-3.8,8-7,11.1c-8.8,8.4-17.6,16.9-26.4,25.3c-5.4,5.2-12.9,10.9-19.8,7.8c-7-3.1-10.5-12.7-14.2-18.7
			c-2.2-3.5-5.2-7.1-7-10.8c-1.4-3.1-1.9-6.2-3.8-9.3c-5.6-9-11.8-17.6-17.2-26.6c-6.3-10.5-11.8-24.1-20.4-32.8
			c-8.6-8.7-14.8-17.2-21.7-27.5c-4-6-12.3-15.6-20.4-13.4"/>
		<g>
			<path d="M636.1,592.8c19.1-6.1,36.5-14,53.6-24.5c4.6-2.8,9.2-5.6,14.2-7.7c6.7-2.9,12.8-3.5,20-3.2c5.3,0.2,8.6-2.3,6.4-7.8
				c-1.7-4.3-3.3-7.6-0.8-12.1c2.5-4.5,7.7-6.6,12.7-6.9c2.8-0.2,9-0.7,11.4,0.9c3.4,2.2,4.2,9.9,5,13.5c1.1,5.4,1.6,11,1.8,16.5
				c0.4,11.3-0.4,22.7,0.5,34c0.9,10.3,2.8,20.5,5.6,30.4c1.7,5.8,4.3,11.3,5.7,17.1c2.1,8.5-3.6,12.3-9.6,17
				c-7.1,5.6-17.6,11.5-20,20.9c-0.2,0.9,2.3,0,2.6-0.2c11.8-8.7,23.5-17.5,35.3-26.2c-0.8,0.1-1.7,0.3-2.5,0.4
				c3.7,3.2-1,6.6-3.3,8.7c-2.4,2.1-4.5,4.5-6.6,6.8c-4.9,5.4-10.5,9.5-16.9,13.1c-3.1,1.8-6.5,3-8,6.4c-0.6,1.3-2.2,5.1-1,6.3
				c1.3,1.2,6.7-1.5,8.1-2.1c2.6-1.2,5-2.7,7.6-4.1c1.6-0.9,4.2-1.3,5.3-2.7c1.3-1.6,1.6-2.8,3.4-4.2c1.4-1.1,2.9-2.2,4.4-3.4
				c4.3-3.5,6.3-9.1,11.8-11.1c-0.7,0-1.3,0-2,0c3.9,8.8,11,18.8,3.6,27.5c-6.3,7.4-14.2,13.9-21.2,20.6
				c-7.2,6.9-19.3,22.3-29.6,12.3c-5.4-5.2-8-12.9-12.2-19c-2.4-3.4-4.5-6.7-5.9-10.6c-1.8-4.9-4.3-8.9-7.1-13.2
				c-5.1-7.7-10.4-15.4-14.9-23.5c-4.1-7.3-7.6-15-12.4-21.9c-4.6-6.6-10.7-12-15.8-18.3c-5.7-7.2-10.1-15.5-16.3-22.2
				c-4.4-4.8-10-8.9-16.8-7.5c-1.2,0.2-2.5,1.6-0.5,1.2c9.4-1.9,16.7,9.6,21.1,16.1c5.1,7.6,10.6,14.9,16.8,21.6
				c13.3,14.2,20.6,32.2,31.3,48.3c2.7,4.1,5.6,8.3,8.2,12.5c2.7,4.3,3.6,9.3,6.3,13.6c2.1,3.5,4.7,6.6,6.7,10.2
				c2,3.6,3.8,7.3,6.2,10.6c10.5,14.4,24.1,2.7,33.5-6.3c8.4-8.1,17.9-15.7,25.4-24.6c2.9-3.4,4.6-7.1,3.6-11.7
				c-1.2-5.6-4.6-11.2-6.9-16.4c-0.2-0.6-1.6-0.1-2,0c-3.7,1.4-6.1,3.5-8.6,6.6c-2.7,3.4-5.4,5.8-8.8,8.5c-2,1.6-3.4,3.8-5.4,5.2
				c-1.9,1.3-4.3,2.3-6.3,3.5c-1.3,0.7-2.6,1.5-4,2.1c-4.9,2.1-3.9,2-3.6-0.7c0.5-4.8,4-6.7,7.9-8.9c4.6-2.6,9.1-5.4,13-8.9
				c4.5-4,8.3-8.9,12.8-12.9c2.5-2.2,5.5-5.5,2.1-8.4c-0.5-0.5-2,0.1-2.5,0.4c-11.8,8.7-23.5,17.5-35.3,26.2
				c0.9-0.1,1.7-0.1,2.6-0.2c1.5-5.8,5.8-9.5,10.3-13.1c4.9-3.9,10-7.6,14.8-11.7c2.7-2.3,4.8-4.6,5.1-8.3c0.5-5.7-3-11.7-4.7-16.9
				c-3.8-11.5-6.2-23.5-7.2-35.6c-1-12-0.1-23.9-0.6-35.9c-0.3-5.8-0.9-11.5-2.3-17.1c-0.9-3.8-1.6-10.1-5.7-11.7
				c-3.3-1.3-8.2-0.8-11.8-0.6c-3.8,0.2-7.7,1-11,2.9c-2.5,1.5-4.8,3.6-6.1,6.3c-2.3,4.7-0.3,7.9,1.3,12.5c0.7,2,1.5,3.9-1.9,5.1
				c-0.5,0.2-2.7-0.3-3-0.3c-2.2-0.1-4.5,0-6.7,0.2c-4.1,0.5-8.1,1.7-11.9,3.2c-11.1,4.4-20.7,11.8-31.1,17.4
				c-12.1,6.5-25,11.2-38,15.3C633.1,592.7,634.9,593.2,636.1,592.8L636.1,592.8z"/>
		</g>
	</g>
	<g>
		<path d="M744.4,740.2c19.6-10.6,37-25.3,50.7-42.8c0.6-0.8,1.3-1.6,2.3-1.7c1.1-0.1,2,0.9,2.7,1.8c5.7,7.5,11.3,14.9,17,22.4
			c1.3,1.7,2.7,3.5,3.3,5.6c1.8,6.1-2.9,12-6.5,17.3c-4.6,6.7-7.9,14.2-9.7,22.2c-2.2,10-2.6,21.7-10.6,28.1
			c-3.7,3-8.6,4.3-12.4,7.2c-9.5,7-11.3,22.1-21.8,27.6c-7.4,3.8-16.9,1.2-23.1-4.2c-6.3-5.5-10.1-13.2-13.3-20.9
			c-2.3-5.5-4.5-11.2-5.4-17.1c-0.8-5.2-0.6-10.5-1-15.7c-0.7-7.9-2.9-15.6-5.2-23.2c-6.5-21.5-13.7-42.9-25.1-62.3
			c-12.9-22-31-40.9-40.7-64.5c-3-7.4-5.3-15.2-10.1-21.6c13.6,10.1,19.7,27.2,29.7,40.9c3.8,5.1,8.1,9.8,12.1,14.8
			c21.6,27.3,31.2,64.1,58.2,86.1c2.6,2.1,5.6,4.2,9,4.4c3.4,0.2,7.1-2.1,7.3-5.5c-6.6,1.6-13.6,1.5-20.2-0.3"/>
		<g>
			<path d="M745.3,740.6c13.8-7.5,26.5-16.9,37.7-28c2.4-2.4,4.8-4.9,7.1-7.5c1.7-1.9,5.9-8.8,8.4-7.4c1.3,0.8,2.9,3.7,3.8,4.9
				c1.1,1.5,2.3,3,3.4,4.5c3,4,6,7.9,9.1,11.9c2.8,3.7,5.3,7.1,4.4,12c-0.8,4.4-4,8.2-6.5,11.8c-4.5,6.6-7.8,13.8-9.6,21.5
				c-1.6,6.7-2.1,13.7-4.6,20.2c-1.7,4.2-4.3,7.6-8.2,10c-3.2,2-6.9,3.2-9.9,5.5c-10.3,7.6-12.4,28.2-27.3,28.8
				c-18.5,0.7-27.8-22-32.2-36.6c-2.5-8.4-1.8-16.9-2.9-25.5c-1.1-8.8-3.9-17.3-6.5-25.7c-5.2-16.8-11-33.5-19.1-49.1
				c-8.3-15.9-19.4-29.9-29.5-44.7c-5.5-8.1-10.7-16.5-14.7-25.5c-3.6-8.1-5.9-16.8-11.2-24.1c-0.9,0.4-1.8,0.7-2.7,1.1
				c11,8.5,17.1,20.9,24.2,32.5c7.6,12.4,18.1,22.7,26,34.9c14.4,22.4,23.8,48.4,42.7,67.8c4.3,4.4,10.2,10.8,16.8,11.2
				c4.2,0.2,8.7-2.1,9.4-6.5c0.1-0.8-1.3-0.6-1.6-0.5c-6.4,1.4-12.8,1.2-19.1-0.4c-0.9-0.2-3.4,1.1-1.8,1.5
				c7.1,1.8,14.1,1.8,21.3,0.2c-0.5-0.2-1.1-0.3-1.6-0.5c-2.3,13-21-6.4-24.2-10.1c-4.9-5.6-9.2-11.8-13.2-18.2
				c-8-12.9-14.5-26.7-22.3-39.8c-3.7-6.1-7.6-12.1-12-17.8c-4.9-6.2-10.3-12-14.7-18.6c-8.5-12.8-14.6-27.5-27.1-37.1
				c-0.6-0.5-3.4,0.1-2.7,1.1c5.7,7.9,8,17.4,12.1,26c3.6,7.7,8.1,15,12.9,22.1c10.6,15.7,22.5,30.4,31.1,47.4
				c8.8,17.3,14.9,35.9,20.4,54.5c2.8,9.4,4.6,18.6,5,28.4c0.4,9.8,2.8,18.4,6.7,27.4c5.6,12.9,15.4,27.7,31.5,25.7
				c14-1.8,16.9-16.1,24.4-25.6c5.1-6.4,13.5-7.5,18.9-13.5c4.8-5.3,6.1-12.7,7.3-19.4c1.7-9.2,4.1-17.9,9-26
				c3.7-6,10.7-12.9,8.5-20.6c-1.2-4.3-5.3-8.2-7.9-11.7c-3.4-4.5-6.8-8.9-10.2-13.4c-1.5-2-3.1-5.3-6.1-5c-2.8,0.3-4.3,3.1-5.9,5
				c-13.3,16.3-29.8,29.7-48.2,39.8C741.8,740.7,744.4,741.1,745.3,740.6L745.3,740.6z"/>
		</g>
	</g>
	<g>
		<path d="M739.5,741.5c2.2-0.5,4.4-1,6.6-1.6c1.4-0.3,2.9-0.7,4.3-0.2c1.4,0.4,2.5,2,2,3.3c-0.5,1.3-2.1,1.7-3.5,2
			c-3.6,0.6-7.8,1-10.4-1.5"/>
		<g>
			<path d="M739.6,742c1.7-0.4,3.5-0.8,5.2-1.2c1.4-0.3,7.7-1,6.2,2.5c-0.6,1.5-4.2,1.5-5.4,1.5c-2.1,0-4-0.4-5.7-1.8
				c-0.6-0.5-3.2,0.6-2.7,1c2.5,2.1,5.7,2.3,8.8,2c2.3-0.2,5.5-0.4,7.2-2.2c2.1-2.1-0.3-4.6-2.7-4.8c-3.6-0.4-7.7,1.3-11.1,2.1
				C737.7,741.4,737.9,742.4,739.6,742L739.6,742z"/>
		</g>
	</g>
	<g>
		<path d="M657.9,465.6c-0.6-3.9,4-6.9,7.9-6.1s6.6,4.1,8.6,7.5c3,5.1,5,10.9,5.8,16.8c2.5,0.5,5.1,0.9,7.4,2.2
			c2.3,1.2,4.2,3.4,4.4,6c0.1,0.6,0,1.2-0.3,1.7c-0.3,0.4-0.7,0.6-1.1,0.8c-3.8,2-7.5,4.1-11.3,6.1c-0.8,0.4-1.6,0.9-2.5,0.8
			c-1.2,0-2.2-0.9-3-1.7c-8.6-8.5-14.7-19.7-17-31.6"/>
		<g>
			<path d="M659.3,465.2c-0.2-6.6,8.1-4.6,11.1-1.3c1.8,1.9,3,4.3,4.2,6.6c2.1,4.3,3.4,8.9,4.1,13.6c0,0.2,0.4,0.4,0.6,0.4
				c4.1,0.8,16.4,5.4,8.8,10.3c-2.1,1.3-5.7,3.8-8.1,4.4c-4.4,1-6.2-1.3-8.6-4.2c-6.6-7.9-11-17.3-13.2-27.3c-0.2-1-3.1-0.3-2.9,0.8
				c1.3,6.3,3.5,12.3,6.6,17.9c2.8,5,6.7,11.5,11.6,14.8c3.9,2.6,8.1-0.9,11.5-2.8c3.6-2,10-3.5,7.9-8.7c-0.8-2-2.4-3.4-4.2-4.5
				c-2.4-1.3-6.1-1-7.4-3.6c-0.7-1.5-0.7-3.6-1.2-5.2c-0.6-2-1.4-3.9-2.2-5.8c-1.3-2.7-2.8-5.5-4.8-7.8c-2.9-3.2-6.8-5.1-11-3.8
				c-3.3,1-5.7,3.5-5.6,7C656.5,466.9,659.4,466.3,659.3,465.2L659.3,465.2z"/>
		</g>
	</g>
	<g>
		<path d="M667,495.5c3,8.7,9.1,16,12.7,24.5c2.4,5.7,3.6,12,7.4,16.9c2.2,2.9,5.3,5.1,8.8,6.2c0.5-0.9-0.1-2-0.7-2.9
			c-8.4-12.7-14.7-26.8-18.6-41.5"/>
		<g>
			<path d="M665.5,495.9c3.6,9.9,10.5,18.2,14,28.1c3.1,8.8,6.2,16.5,15.4,20.1c0.8,0.3,2.3-0.1,2.3-1.1c0.1-3.1-2.1-5.3-3.7-7.9
				c-2.4-4-4.6-8-6.6-12.2c-3.8-7.9-6.7-16.1-9-24.5c-0.4-1.4-3.3-0.6-2.9,0.8c2.2,7.9,4.9,15.6,8.3,23.1c1.5,3.3,3.1,6.5,4.9,9.7
				c1.7,3.1,6.1,7.8,6,11.4c0.8-0.4,1.5-0.7,2.3-1.1c-10.5-4.1-11.9-14-15.9-23.2c-3.6-8.2-9.2-15.3-12.3-23.8
				C667.9,493.7,665,494.5,665.5,495.9L665.5,495.9z"/>
		</g>
	</g>
	<g>
		<path d="M667.1,496.1c-2.1-3.2-3.7-6.8-4.7-10.5"/>
		<g>
			<path d="M668.5,495.6c-2.1-3.2-3.6-6.7-4.6-10.3c-0.3-1-3.2-0.2-2.9,0.8c1.1,3.8,2.7,7.3,4.8,10.7
				C666.3,497.5,669.1,496.5,668.5,495.6L668.5,495.6z"/>
		</g>
	</g>
	<g>
		<path d="M664.2,488.8c-4-5.2-6.2-11.7-6.3-18.2c0-2.4,0.2-4.9-0.2-7.3c-1.5,0.7-2.2,2.5-2.1,4.1c0.1,1.6,0.9,3.2,1.6,4.6
			c1.4,2.7,2.7,5.3,4.1,8"/>
		<g>
			<path d="M665.6,488.4c-2.6-3.6-4.5-7.4-5.5-11.7c-1.1-4.6-0.4-9.2-1-13.8c-0.1-0.7-2.3,0.1-2.6,0.3c-5.9,4.2,1,12.7,3.3,17.2
				c0.4,0.8,3.2-0.2,2.9-0.8c-1.9-3.7-8.8-12.9-3.9-16.3c-0.9,0.1-1.7,0.2-2.6,0.3c0.6,4.6-0.1,9.2,1,13.8c1,4.3,2.9,8.2,5.5,11.7
				C663.3,489.9,665.9,488.8,665.6,488.4L665.6,488.4z"/>
		</g>
	</g>
	<g>
		<path d="M684.4,495.5c12.1-2.1,24.5,2.1,35.4,7.9c-4.7-5-11.5-7.3-18.1-9.3c-3.5-1.1-6.9-2.2-10.4-3.3"/>
		<g>
			<path d="M684.2,496.4c12.2-1.8,23.7,2.2,34.4,7.7c0.7,0.3,3.4-0.4,2.5-1.3c-7.6-7.5-19-9.8-28.9-12.9c-1-0.3-3.4,1.2-1.7,1.7
				c9.5,3,20.7,5.1,28,12.4c0.8-0.4,1.7-0.9,2.5-1.3c-11.3-5.9-23.5-10-36.3-8C683.1,494.9,682.2,496.7,684.2,496.4L684.2,496.4z"/>
		</g>
	</g>
	<g>
		<path d="M358.5,154.3c0.8-3.6,2.4-7,4.1-10.3c0.9-1.8,1.8-3.6,3.3-5c1.1-1,2.4-1.8,3.7-2.6c3.9-2.3,8-4.6,12.5-4.8
			c2.5-0.1,5,0.4,7.5,0.4s5.2-0.4,6.9-2.2c0.3-0.3,0.5-0.6,0.9-0.7c0.8-0.2,1.5,0.7,1.7,1.5c0.5,2.7-1.9,5.2-4.4,6.2
			c-4.9,2-10.5,0.5-15.7,1.3c-4.9,0.8-9.4,3.7-12.2,7.8c-1.1,1.6-1.9,3.4-3.1,5c-1.2,1.6-2.7,3-4.7,3.3"/>
		<g>
			<path d="M360,154.1c1-4.1,2.7-8,4.8-11.6c3.2-5.6,10.9-9.6,17.2-9.9c6.6-0.3,11.1,0.9,16.6-3.3c-0.8,0.2-1.5,0.3-2.3,0.5
				c1.6,0.8,2,2,1.1,3.7c-2.6,2.7-5.6,3.9-8.9,3.8c-2.4,0.2-4.7-0.1-7.1,0c-2.5,0.2-5,0.8-7.3,1.8c-2.5,1.1-4.8,2.6-6.7,4.6
				c-2.9,3.1-4.1,8.7-8.4,10c-1.7,0.5-1.4,1.6,0.3,1.1c3.4-1.1,5.3-2.9,7.2-6c2-3.4,4.2-6.8,7.9-8.5c4.3-2,8.5-1.6,13-1.7
				c3.6-0.1,7.4-0.5,10.4-2.7c1.8-1.3,4.7-5.1,2.1-7.1c-0.6-0.5-1.7-0.5-2.4-0.3c-0.3,0.1-0.6,0.3-0.8,0.4c-2.4,0.6-5.1,2.1-7.8,2.3
				c-4.7,0.2-8.2-0.5-12.7,1.3c-3.8,1.5-8.4,3.6-11.3,6.5c-3.8,3.8-6.2,10.4-7.5,15.5C356.9,155.3,359.8,154.9,360,154.1L360,154.1z
				"/>
		</g>
	</g>
	<g>
		<path d="M424.2,131.4c-1.1-0.2-2.1-1.2-2.3-2.3c-0.1-1.1,0.6-2.3,1.6-2.8c0.3-0.1,0.7-0.2,1-0.4c0.3-0.3,0.5-0.7,0.7-1.1
			c0.6-1.5,1.3-2.9,2.1-4.3c0.9-1.6,2-3.1,3.6-3.9c1.2-0.6,2.6-0.7,3.9-0.8c0.9-0.1,1.9-0.1,2.8-0.2c1-0.1,2.1-0.2,3.1,0.1
			c1,0.3,1.9,1.1,2.1,2.1c0.1,0.5-0.1,1-0.5,1.3c-0.4,0.2-0.8,0.2-1.2,0.1c-1.9-0.3-3.7-0.7-5.6-0.6c-1.9,0.2-3.8,1-4.7,2.6
			c-1.3,2.2-0.5,5.1-1.7,7.3c-1,1.8-3,2.6-5,3.2"/>
		<g>
			<path d="M425,130.5c-1.8-0.7,3.5-9.8,4.1-10.6c1.7-2.4,4-3.1,6.9-3.2c1.4,0,7.9,1.6,4.8,1.4c-1.2-0.1-2.3-0.4-3.5-0.5
				c-2.4-0.1-5.1,0.4-6.9,2.1c-3.7,3.5-0.7,9.1-6.6,11.1c-1.7,0.6-1.3,2.5,0.5,1.9c2.3-0.8,4.9-1.8,6.1-4c0.9-1.7,0.4-3.5,1-5.2
				c1.3-1.3,2.6-2.6,3.9-3.8c0.8,0,1.6,0.1,2.4,0.1c1,0.1,2.1,0.5,3.1,0.5c4.2,0.1,4.2-4.5,0.4-5.5c-3-0.8-7.7-0.3-10.6,0.9
				c-2.2,0.9-3.6,2.7-4.8,4.7c-1,1.7-1.5,3.8-3,5.2c-0.7,0.7-1.4,0.9-2,1.8c-1.3,2.3,0.2,4.2,2.4,5
				C424.5,132.8,426.7,131.2,425,130.5L425,130.5z"/>
		</g>
	</g>
	<g>
		<path d="M434,221c1.4-1.9,2.8-3.9,4.2-5.8c0.2-0.3,0.5-0.6,0.8-0.9c0.4-0.3,1-0.4,1.5-0.4c2.7-0.1,5.8,0.7,7.9-1
			c0.5-0.4,0.9-0.9,1.4-1.2c1.4-0.8,3.3-0.2,4.6-1.2c-0.2,2.7-1.6,5.3-3.6,7c-1.7,1.4-3.8,2.2-5.8,3c-1.4,0.5-2.7,1-4.1,1.3
			c-2.1,0.3-4.4,0-6.3-0.9"/>
		<g>
			<path d="M435.3,221c1.4-2,3.3-5.9,5.8-6.3c2.1-0.3,3.9,0.3,6-0.4c1.5-0.5,2.4-1.6,3.7-2.2c1.5-0.6,3-0.6,4.4-1.4
				c-0.8-0.1-1.6-0.1-2.3-0.2c-1,7.4-10.5,12.2-17.3,9.5c-0.8-0.3-3.5,0.9-2.3,1.3c8.2,3.3,21.2-1.8,22.5-11.2
				c0.1-1-1.9-0.4-2.3-0.2c-1.3,0.7-3.2,0.6-4.7,1.3c-1.8,0.8-3.3,1.7-5.3,1.8c-0.9,0.1-1.8-0.1-2.7,0c-4.1,0.5-5.9,4.7-8.1,7.8
				C431.9,222,434.8,221.7,435.3,221L435.3,221z"/>
		</g>
	</g>
	<g>
		<path d="M426.5,192.6c-0.9,0.1-1.9,0.2-2.7-0.2s-1.5-1.3-1.3-2.2c0.3-1,1.4-1.4,2.4-1.6c1.4-0.3,2.9-0.5,4.3-0.6
			c0.7-0.1,1.4-0.1,1.9,0.4c0.4,0.5,0.4,1.3,0,1.8c-0.4,0.5-1,0.9-1.5,1.2c-0.9,0.5-1.7,1-2.6,1.5"/>
		<g>
			<path d="M426.6,191.7c-0.7,0.1-1.6,0.2-2.2-0.2c-0.5-0.3-0.8-1.2-0.3-1.6c0.6-0.6,2.5-0.6,3.3-0.7c0.3,0,1.4-0.3,1.6-0.2
				c0.2,0.4,0.3,0.9,0.5,1.3c-0.2,0.2-0.5,0.4-0.7,0.5c-0.9,0.6-1.9,1.1-2.8,1.6c-0.5,0.3-0.7,0.9-0.2,1.3c0.5,0.5,1.6,0.1,2.1-0.2
				c1.6-0.9,5.7-2.5,4.9-5.1c-0.8-2.4-5.1-1.2-6.8-0.9c-1.8,0.3-5,0.9-5,3.3c0,2.7,3.5,2.9,5.4,2.7
				C427.9,193.4,428.6,191.5,426.6,191.7L426.6,191.7z"/>
		</g>
	</g>
	<g>
		<path d="M444.5,187.7c-1.3,0.2-2.9,0.3-3.5-0.8c-0.4-0.7-0.3-1.5,0.1-2.2c0.4-0.7,1-1.2,1.6-1.6c0.8-0.6,1.9-1.2,2.6-0.4
			c0.2,0.2,0.3,0.5,0.3,0.8c0.2,1,0.3,1.9,0.2,2.9"/>
		<g>
			<path d="M444.6,186.5c-0.6,0.1-1.4,0.3-2,0c-0.8-0.4-0.4-1.4,0.1-1.9c0.2-0.2,1.3-1.3,1.6-1.2c-0.4-0.1,0,1.1,0,1.3
				c0.1,0.6,0,1.1,0,1.7c-0.2,1.6,2.8,1.2,2.9-0.2c0.2-1.6,0.2-4.3-1.7-4.9c-1.8-0.6-3.6,0.8-4.8,1.9c-1.2,1.2-2.1,3-0.9,4.6
				c1,1.4,3.1,1.3,4.6,1.1c0.7-0.1,1.5-0.4,1.6-1.2C446,186.9,445.2,186.4,444.6,186.5L444.6,186.5z"/>
		</g>
	</g>
	<g>
		<path d="M384,161.5c-0.2-2.3,1.4-4.5,3.3-5.7c2-1.2,4.3-1.7,6.6-2.1c2.1-0.3,4.2-0.6,6.3-0.4c0.4,0,0.8,0.1,1.1,0.3s0.4,0.7,0.2,1
			c-0.2,0.3-0.5,0.3-0.9,0.3c-2.4,0.3-4.7,1.4-6.3,3.2c-0.3,0.3-0.6,0.7-0.6,1.1c0,0.4,0.2,0.7,0.3,1c1.1,2,1.5,4.8-0.2,6.4
			c-1.1,1.1-2.9,1.2-4.4,0.7c-1.5-0.5-2.7-1.5-4-2.5c-0.9-0.8-2-1.7-2-2.9"/>
		<g>
			<path d="M385.5,161.4c0.2-5.6,6.5-6.4,10.8-6.9c1.2-0.2,3.1,0.1,4.1-0.5c-0.5,0.3-1.7,0.3-2.2,0.5c-1.2,0.4-2.3,0.9-3.3,1.6
				c-1.4,1-2.8,2.2-2.4,4.1c0.2,0.8,0.7,1.6,0.9,2.4c0.4,1.6-0.7,3.5-2.5,3.9c-1.8,0.4-5.5-3.3-5.9-4.9c-0.3-1.4-3.2-0.6-2.9,0.8
				c0.9,4.3,7.7,7.8,11.7,5.7c2-1,2.9-3.1,2.6-5.3c-0.2-1.9-1.5-3.1-0.3-4.7c1.4-1.8,3.6-1.4,5.4-2.2c1.2-0.5,2-1.7,1-2.9
				c-1.5-1.8-6.2-0.8-8-0.5c-5.2,0.8-11.9,2.7-12.1,9.1C382.5,163.2,385.5,162.8,385.5,161.4L385.5,161.4z"/>
		</g>
	</g>
	<g>
		<path d="M432.5,144.3c1.5-0.3,3.2-0.6,4.6,0.2c0.7,0.4,1.2,1.1,1.8,1.7c1,1.1,2.2,2.2,3.7,2.5s3.2-0.5,3.5-2
			c0.2-1.1-0.4-2.2-1.1-3.2s-1.5-1.8-1.7-2.9c0-0.1,0-0.3,0-0.4c0.1-0.4,0.5-0.5,0.9-0.6c1-0.1,2.1,0.1,3.1-0.1
			c1-0.2,2.1-0.9,2.1-1.9c0-0.8-0.6-1.5-1.4-1.8s-1.6-0.2-2.4-0.1c-2.8,0.5-5.3,2-7.8,3.4c-2.3,1.3-4.7,2.9-5.4,5.4"/>
		<g>
			<path d="M432.2,144.8c5-0.9,5,3.6,9.1,4.4c1.4,0.3,3.3-0.1,4.5-0.9c2.2-1.4,1.9-3.3,0.5-5.3c-0.1-0.1-1.4-1.5-1.4-2.1
				c-0.1-1.1-0.5-0.4,0.5-0.8c0.8-0.3,2-0.1,2.9-0.5c1.3-0.5,3.1-1.6,2.3-3.3c-0.8-1.9-3.6-1.5-5.2-1.2c-4.9,1-12.7,4.5-14.5,9.6
				c-0.2,0.5,2.6,0.2,2.9-0.5c0.9-2.5,2.9-3.8,5-5.1c1.5-0.9,3.2-2.2,4.9-2.5c1.2,0,2.4,0,3.6,0c0,1.5-0.4,2.3-1.4,2.3
				c-1.2,0.5-3.6-0.2-4.2,1.6c-0.4,1.1,1.3,2.7,1.9,3.5c0.5,0.5,0.8,1.1,1,1.8c-0.8,0.5-1.6,1.1-2.4,1.6c-0.6,0-1.6-1.4-2-1.8
				c-2.3-2.4-4.2-2.5-7.4-1.9C431.6,144,430.2,145.2,432.2,144.8L432.2,144.8z"/>
		</g>
	</g>
	<g>
		<path d="M175.7,674.7c-0.1,4.4,0.7,9-0.8,13.2c0.7-1,1.6-1.7,2.5-2.6c2-2.1,3.5-4.6,4.8-7.2c1.9-3.6,3.5-7.4,4.8-11.3
			c0.1-0.2,0.1-0.4-0.1-0.5c-3.9,2.5-7.6,5.4-11.1,8.5"/>
		<g>
			<path d="M174.3,674.9c0,4.3,0.5,8.7-0.8,12.9c-0.5,1.6,1.9,1.4,2.6,0.6c3-3.5,5.7-6.6,7.8-10.7c1.6-3.1,4.9-8.2,4.5-11.7
				c-0.1-1.1-1.9-0.6-2.4-0.3c-3.9,2.6-7.6,5.4-11.1,8.5c-1.5,1.3,0.8,2.3,1.9,1.4c3.5-3.1,7.2-5.9,11.1-8.5
				c-0.8-0.1-1.6-0.2-2.4-0.3c0.2,1.6-1.5,4.3-2.1,5.7c-0.8,1.9-1.7,3.8-2.6,5.6c-1.9,3.7-4.5,6.4-7.1,9.5c0.9,0.2,1.7,0.4,2.6,0.6
				c1.3-4.4,0.9-8.9,0.9-13.4C177.2,673.1,174.3,673.5,174.3,674.9L174.3,674.9z"/>
		</g>
	</g>
	<g>
		<path d="M534,942C534,942,534,942,534,942c1-0.2,2.1-0.3,3-0.8c0.9-0.5,1.7-1.4,1.8-2.4c0-0.5,0-1,0.2-1.4
			c0.3-0.3,0.8-0.4,1.2-0.4c0.8,0,1.6-0.1,2.3-0.1c0.7,0,1.5-0.1,2.1-0.5c0.8-0.6,1-1.8,0.7-2.8c-0.3-1-1-1.8-1.6-2.5
			c1.1-0.2,2.3-0.5,3.2-1.1c0.9-0.7,1.6-1.9,1.2-3c-0.3-1.1-1.4-1.6-2.4-2.1c-1.2-0.6-2.5-1.2-3.8-1.3c-1.4-0.1-2.8,0.4-3.5,1.6
			c-0.3,0.5-0.4,1-0.8,1.4c-1.2,1.3-3.4-0.3-5.1,0.2c-0.5,0.1-1,0.4-1.4,0.7c-2.7,2.1-4.5,5.1-6.2,8c-0.5,0.8-0.9,2.1-0.1,2.6
			c-1.3-0.7-4,4.7,0.3,5.5c1,0.2,2-0.3,3-0.6C530.1,942.5,532.1,942.3,534,942z"/>
		<g>
			<path d="M533.9,943c1.8-0.3,3.9-0.7,5.2-2.1c0.6-0.6,0.5-0.8,0.9-1.3c0.3-0.5,0.4-1.1,0.2-1.6c0.8,0,1.6-0.1,2.3-0.1
				c4.7-0.6,5.5-3.9,2.6-7.5c-0.4,0.5-0.7,1.1-1.1,1.6c2.8-0.6,7.6-3,4.9-6.6c-1.9-2.6-7.2-3.7-10-2.2c-0.8,0.5-1,1-1.8,1.5
				c-0.2,0.3-0.4,0.6-0.5,1c-0.9,0.2-1.7,0.1-2.6-0.1c-2.1,0.1-3.4,0.7-5,2.1c-2.3,2-7.6,7.8-5.5,10.9c0.6-0.6,1.2-1.1,1.8-1.7
				c-2.4-0.5-4.3,2.4-4,4.6C522.3,947,531,943.4,533.9,943c1.6-0.2,2.2-2.4,0.3-2.1c-1.6,0.2-3.2,0.5-4.8,0.7
				c-1.7,0.5-3.3,0.4-5-0.5c0.3-0.7,0.3-1.4,0-2.1c0.8,0.2,2.5-0.7,1.8-1.7c-1.1-1.6,3.1-6.9,4-7.6c1.7-1.3,3.4-1.5,5.2-1.8
				c0.5-0.1,1.1,0.1,1.6-0.1c0.8-0.2,1.2-0.8,1.9-1.2c1.2-0.7,2.9-1.8,4.7-1.6c3,0.4,2.6,4.2-0.2,4.9c-0.6,0.1-1.6,0.9-1.1,1.6
				c1.4,1.1,1.5,2.5,0.3,4.2c-0.8,0-1.6,0.1-2.3,0.1c-0.6,0.1-1.2,0.1-1.8,0.5c-2,1.4-1.2,4-4.5,4.5
				C532.6,941.2,531.9,943.3,533.9,943z"/>
		</g>
	</g>
	<g>
		<path d="M502.6,968.4c3.7,0,7.2-1.2,10.9-1.9c4.7-0.9,9.5-1,14.4-1c6.7,0,13.7,0,19.7,3.1c3.9,2,7.3,5.4,11.7,6.1
			c5.9,1,12.3-3.1,17.8-4.8c7.6-2.3,15.3-4.2,23.2-5.5c2.9-0.5,5.7-0.9,8.4-2c6-2.4,10.1-7.7,13.3-13.1c2.7-4.6,4.9-11.2,8.5-15
			c0.3-0.3,0.6-0.6,1.1-0.7c0.8-0.1,1.5,0.8,1.8,1.6c2.4,6.3-0.2,13.2-2.8,19.4c-1.7,4-3.5,8.2-6.8,11.1c-3.2,2.7-7.4,3.7-11.4,4.8
			c-21.6,5.7-42.9,13.4-65.1,15.6c-8.2,0.8-16.4,0.9-24.7,1c-2.9,0-5.9,0.1-8.8-0.6c-4.8-1.1-9-4-13.1-6.9c-2.6-1.8-5.3-3.8-6.9-6.5
			c-0.9-1.5-2.6-7.4,0.4-7.8c0.8-0.1,2.6,1.9,3.4,2.3C499.2,968,500.9,968.4,502.6,968.4z"/>
		<g>
			<path d="M502.5,969.4c5.5-0.2,10.7-2.2,16.2-2.7c6.1-0.5,12.7-0.7,18.8,0.1c6,0.7,10.2,3.5,15.3,6.4c3.5,2,6.9,2.9,10.9,2.3
				c4-0.6,7.6-2.5,11.3-3.9c5.6-2.1,11.7-3.5,17.5-4.8c8.9-1.9,17.9-2.3,24.7-9.1c2.8-2.8,5.1-6.2,7-9.7c1.2-2.2,2.2-4.4,3.3-6.6
				c0.9-1.9,3-7.9,5.1-4.6c2.7,4.3-1.5,13.3-3.2,17.3c-2.6,6.4-5.6,11.4-12.6,13.8c-10.8,3.7-22.2,6.4-33.2,9.4
				c-11.5,3.2-23.2,6-35.1,7.3c-6.6,0.7-13.2,0.9-19.9,1c-7.8,0.1-14.8,0.3-21.8-4c-4.5-2.7-10.8-6.2-12.3-11.6
				c-0.1-0.5-0.7-2.3-0.4-2.8c1-1.8,0.8-0.1,2,0.3c2.1,0.7,3.8,1.6,6.2,1.7c1.4,0.1,3-1.9,1-2.1c-2.6-0.2-3.7-0.6-5.7-1.9
				c-0.6-0.4-1.1-1-1.8-1.2c-0.9-0.3-1.5-0.3-2.5,0.1c-2.6,1.1-2.4,4.3-1.7,6.6c1.2,4.2,4.7,6.8,8.1,9.2c4.7,3.4,9.6,6.6,15.4,7.4
				c6.1,0.9,12.7,0.3,18.8,0.1c7.5-0.2,15-0.8,22.5-2c13.3-2.2,26.3-5.9,39.2-9.6c6.2-1.8,12.4-3.5,18.6-5.2c4.9-1.4,9.5-3.1,12.8-7
				c3.2-3.9,5.2-9.3,6.8-14c1.4-4.1,3.6-11.3,0.8-15.4c-5.1-7.7-11.8,10.7-13.4,13.4c-3.3,6-7.8,11.9-14.5,14.1
				c-6.5,2.1-13.6,2.6-20.2,4.3c-6.9,1.7-13.2,4.5-20,6.6c-9,2.8-13.5-3.9-21.2-6.5c-6.1-2.1-12.8-1.9-19.1-1.8
				c-3.6,0-7.2,0.1-10.8,0.7c-4.3,0.6-8.3,2.1-12.6,2.2C501.2,967.4,500.5,969.5,502.5,969.4z"/>
		</g>
	</g>
	<g>
		<path d="M630.3,932.9c-1.2-3.1-1.1-6.7,0.5-9.6c0.8-1.5,1.9-2.8,2.8-4.2c1.2-1.9,2.1-4.1,3.6-5.8c1.9-2.1,4.5-3.2,7.1-4.4
			c1-0.4,2-0.8,3-0.8c1.1,0,2.2,0.6,2.5,1.6c0.3,1-0.3,2.1-0.9,3.1c-2.6,4-5.1,7.9-7.7,11.9c-2.3,3.6-4.8,7.4-8.6,9.3"/>
		<g>
			<path d="M631.8,932.5c-2-6.2,1.1-9.9,4.1-15c1.1-1.8,1.9-3.6,3.6-5.1c1.1-1,8.2-5.9,8.9-1c0.2,1.3-3.7,6-4.5,7.3
				c-1,1.5-1.9,3-2.9,4.5c-2.5,4-4.9,8-9.1,10.5c-1.7,1,0.9,1.2,1.8,0.7c6-3.6,9.2-10,12.9-15.7c1.6-2.5,8.7-10.8,1.6-11.3
				c-3.9-0.3-9.7,3.1-12.2,5.9c-2.4,2.6-4.9,6.8-6.5,10c-1.7,3.3-1.7,6.5-0.6,10C629.2,934.2,632,933.4,631.8,932.5L631.8,932.5z"/>
		</g>
	</g>
	<g>
		<path d="M494.8,965c-0.5-3.4,1.4-6.9,4.4-8.5c0.6-0.3,1.3-0.6,1.4-1.2c0.1-0.5-0.3-1-0.6-1.4c-1.8-2.8-0.7-6.8,1.5-9.3
			c2.2-2.5,5.3-4.1,8.2-5.9c6.8-4.3,12.3-10.1,17.8-15.9c1.9-2,3.8-4,5.1-6.4c-9.4,8.9-20,16.5-31.4,22.5c-1.9,1-4,2.1-5.2,3.9
			c-1.1,1.6-1.4,3.6-1.6,5.5c-0.5,3.3-0.9,6.6-1.4,9.9C492.3,961.9,492.1,961.5,494.8,965z"/>
		<g>
			<path d="M496.2,964.6c-0.1-2.3,0.4-4.6,2.1-6.3c0.7-0.7,2.1-1.1,2.8-1.9c0.8-0.9,0.9-1.1,0.8-2.3c-0.1-1.1-1-2-1.2-3.2
				c-0.2-1.8,0.3-3.6,1.3-5.1c1.9-2.9,5.2-4.5,8-6.2c4.7-2.9,8.8-6.5,12.7-10.4c4-3.9,8.3-8,11.2-12.8c0.8-1.3-2-0.8-2.5-0.4
				c-5.5,5.2-11.3,9.9-17.5,14.1c-5.4,3.7-11.9,6.2-17,10.2c-4.3,3.4-4.1,8.9-4.8,13.9c-0.7,5.1-1.6,7.2,1.5,11.3
				c0.6,0.9,3.4-0.2,2.7-1.2c-3.3-4.5-1.5-9.1-0.7-14.4c0.5-3.7,0.9-7.2,4.3-9.4c2.2-1.4,4.7-2.5,7-3.8c9.8-5.6,18.8-12.4,27-20.1
				c-0.8-0.1-1.7-0.2-2.5-0.4c-3.5,6-9.4,11.3-14.6,15.9c-4.8,4.3-11.3,7-15.8,11.6c-1.5,1.5-2.6,3.4-3,5.5c-0.4,2.1,1.2,4.3,0.7,6
				c-0.4,1.5-2.9,2.7-3.8,4.2c-1.1,1.9-1.4,3.8-1.3,5.9C493.4,966.4,496.3,965.8,496.2,964.6z"/>
		</g>
	</g>
	<g>
		<path d="M494.5,970.2c-0.5,0-0.9-0.5-1.1-0.9c-0.8-1.3-1.4-2.7-1.6-4.2s0.1-3.1,1-4.3"/>
		<g>
			<path d="M495.3,969.2c-1.3-0.4-1.9-3.1-2.1-4.2c-0.2-1.5,0.1-2.8,0.9-4.1c0.8-1.4-2.1-1.4-2.8-0.3c-1,1.8-1.3,3.8-0.9,5.8
				c0.4,1.7,1.4,4.1,3.2,4.7C494.9,971.5,497.1,969.8,495.3,969.2L495.3,969.2z"/>
		</g>
	</g>
	<g>
		<path d="M306.4,220.1c2.3,3.5,4.6,7,6.9,10.5c2.3,3.5,4.7,7.1,8,9.7c0.5,0.4,1.2,0.8,1.8,0.7c0.7-0.2,1.1-0.9,1.2-1.6
			c0-0.7-0.3-1.4-0.5-2.1c-0.9-2-1.7-4-2.6-6c-0.9-2-1.8-4.2-3.7-5.4c-0.9-0.6-1.9-0.9-2.9-1.2c-2.3-0.7-4.6-1.5-6.9-2.2
			c2.1,1,4.2,2.1,6.1,3.2c0.8,0.5,1.6,1,2.2,1.6c0.7,0.8,1.2,1.8,1.6,2.7c1.9,4.2,3.9,8.4,5.8,12.6c0.5-0.3,0.7-1,0.6-1.6
			c-0.1-0.6-0.5-1.1-0.9-1.6c-1.5-2-2.8-4.2-3.9-6.6c-0.6-1.2-1-2.5-1.9-3.5c-1.2-1.5-3-2.3-4.8-3.1c2.2,2.2,4,4.8,5.5,7.5"/>
		<g>
			<path d="M304.9,220.5c3.8,5.8,7.3,12.1,11.9,17.3c1.8,2,4.2,4.8,7.1,3.3c4.1-2-0.5-8.7-1.8-11.4c-2.7-5.4-7.8-6.1-13.1-7.8
				c-0.6-0.2-2.9,0.9-2.6,1c3.7,1.8,7.6,3.4,9.7,7.1c2.3,4.2,4,8.8,6,13.1c0.3,0.7,2.6-0.3,2.9-0.7c1.8-2.3-2.5-6.4-3.5-8.4
				c-2-4-3.2-6.1-7.4-8.1c-0.5-0.2-3.2,0.5-2.7,1c2.2,2.3,3.9,4.7,5.4,7.5c0.4,0.7,3.1-0.4,2.9-0.8c-1.5-2.8-3.3-5.3-5.5-7.6
				c-0.9,0.3-1.8,0.6-2.7,1c4,1.9,5.3,4.2,7.2,7.9c1,2,5.2,6.1,3.6,8.2c1-0.2,1.9-0.4,2.9-0.7c-2.1-4.6-3.8-9.8-6.5-14
				c-2-3.2-6-4.7-9.3-6.3c-0.9,0.3-1.7,0.7-2.6,1c4.4,1.4,9.5,2.1,12,6.3c1.2,1.9,5.8,10,3.2,11.8c0.8-0.2,1.7-0.4,2.5-0.7
				c-3.8-0.5-6.8-6.1-8.8-9c-2.6-3.9-5.1-7.8-7.7-11.6C307.4,219,304.7,220.2,304.9,220.5L304.9,220.5z"/>
		</g>
	</g>
	<g>
		<path d="M310.7,195.2c-1.8,1.2-2.7,3.6-2.5,5.7c0.2,2.2,1.4,4.2,3,5.7c0.3,0.3,0.7,0.6,1.2,0.7c0.7,0.1,1.5-0.3,1.9-0.9
			s0.6-1.4,0.7-2.1c0.4,1.5,1.1,2.9,2.3,3.8c1.2,0.9,2.9,1.3,4.3,0.6c1.4-0.7,2.1-2.5,1.4-3.9c-0.7-1.3-2.3-1.7-3.3-2.8
			c-1.2-1.2-1.5-3.2-3-4"/>
		<g>
			<path d="M309.8,194.6c-3.9,3.1-3.9,8.4-0.6,12c2.9,3.2,6.4,1.4,7.3-2.4c-1,0.2-1.9,0.3-2.9,0.5c0.8,2.5,2.2,4.7,4.9,5.3
				c2,0.4,4.4-0.2,5.6-2c1.2-1.8,0.7-3.7-0.8-5c-1.1-0.9-2.2-1.4-3-2.7c-0.8-1.2-1.2-2.2-2.4-3c-1-0.7-3.6,0.8-2.2,1.6
				c1.6,1.1,2,3.2,3.6,4.4c1,0.8,2.8,1.3,2.7,3c-2.1,1.4-3.5,1.3-4.4-0.3c-0.5-0.7-0.8-1.5-1-2.3c-0.4-1.3-2.7-0.5-2.9,0.5
				c-0.7,3.1-3.4-1.5-3.7-2.5c-0.6-2.3-0.1-4.6,1.8-6.1C313.2,194.6,310.9,193.7,309.8,194.6L309.8,194.6z"/>
		</g>
	</g>
	<g>
		<g>
			<path d="M308,211.9c-4.8-3.9-8.1-8.2-10.2-13.9c-0.8-2.3-1.7-4.5-2.3-6.9c-0.2-1-1-3.6-0.5-4.6c2-0.8,4-1.7,6.1-2.5
				c1.3,0.4,2.5,1.1,3.5,2c0.6,0.5,2.6-0.4,1.7-1.2c-4.2-3.4-13.3-4.3-13.5,3.1c-0.1,4.8,2.4,10.6,4.4,14.9c1.8,4,5.7,7.5,9.1,10.3
				C306.9,213.5,308.9,212.6,308,211.9L308,211.9z"/>
		</g>
	</g>
	<g>
		<g>
			<path d="M339.2,224.1c1.5,0.9,1.5,2-0.1,3.4c-0.4,2.4-1.9,3.3-4.5,2.5c-1.8,0-3.5-0.1-5.3-0.3c-3.6-0.4-7.1-1.1-10.7-1.9
				c-0.7-0.1-2.6,0.9-1.3,1.2c7.1,1.5,15,3.4,22.3,1.6c4.5-1.1,4.6-4.2,1.6-7.3C340.7,222.7,338.6,223.5,339.2,224.1L339.2,224.1z"
				/>
		</g>
	</g>
	<g>
		<g>
			<path d="M308,219.4c-8.9-7.5-18.5-14.1-19-26.8c0-1.2-2.2-0.8-2.2,0.2c0.5,13.3,10.2,20,19.5,27.9
				C307,221.3,308.9,220.2,308,219.4L308,219.4z"/>
		</g>
	</g>
	<g>
		<g>
			<path d="M333.1,166.6c8.1-4.8,19.2-6.1,28.3-8.2c5.8-1.3,12.1-2,15.5,4c1.5,2.6,2.2,5.6,3.6,8.3c5,9.8,23.4,11.6,29.8,2.3
				c3.2-4.7,5.5-13.1,3.3-18.7c-2.4-6.1-9.3-10.7-15.5-11.9c-12.5-2.4-25.4,8.6-20.3,21.6c0.4,1,2.6,0.4,2.2-0.6
				c-3.2-8.2,1.3-16.9,9.8-19.1c7.5-2,15.4,1.7,19.9,7.7c4.4,5.9,2.5,17.7-3.2,22.6c-5.5,4.7-18.4,3.1-22.7-2.7
				c-2.8-3.8-3.2-8.9-6.2-12.5c-2.5-3-6.2-3.9-10-3.7c-5.7,0.3-11.5,2.3-17,3.7c-6.2,1.5-12.8,2.6-18.4,5.9
				C330.8,165.9,332,167.2,333.1,166.6L333.1,166.6z"/>
		</g>
	</g>
	<g>
		<g>
			<path d="M412.5,155.1c1.1-2.3,2.2-4.7,4.7-5.6c1.8-0.6,7.4-1,9-0.1c0.8,0.5,2.7-0.7,1.7-1.3c-1.4-0.8-2.7-0.9-4.3-0.8
				c-2.2,0.1-4.6-0.2-6.7,0.4c-3.4,1-5.1,4.1-6.5,7.1C409.9,156,412.1,156,412.5,155.1L412.5,155.1z"/>
		</g>
	</g>
	<g>
		<g>
			<path d="M426.4,154.1c1,3.8,2.9,7.2,5.5,10c0.7,0.8,2.8-0.1,2-1c-2.5-2.8-4.3-6-5.3-9.6C428.2,152.4,426.1,153,426.4,154.1
				L426.4,154.1z"/>
		</g>
	</g>
	<g>
		<g>
			<path d="M415.5,190.5c-1.2-4.7-0.3-9.4,2.6-13.2c0.4-0.6-1.6-0.3-2,0.1c-3,4-4.1,8.8-2.8,13.7C413.4,191.6,415.6,191,415.5,190.5
				L415.5,190.5z"/>
		</g>
	</g>
	<g>
		<g>
			<path d="M418.4,227.1c4.4-0.1,8.2,0.9,12.1,2.9c1.5,0.8,2.9,1.7,4.5,2.2c4.4,1.2,9-1,13.2-2.3c3.4-1.1,8.6-1.7,11.4-4.1
				c0.8-0.7,1.2-1.2,1.3-2.3c0.1-1.1-0.6-1.6-0.8-2.5c-0.6-2.2-1-4-0.5-6.3c0.1-0.8-1.3-0.6-1.5,0.1c-0.3,1.8-0.4,3.3,0,5
				c0.3,0.9,0.7,1.8,1.1,2.7c-0.4,2.5-1.9,3.9-4.3,4c-4,1.4-8.1,2.8-12.2,3.9c-4.3,1.2-7,0.7-11-1.4c-1-0.5-1.9-1.1-3-1.5
				c-3.2-1.4-6.6-1.8-10.1-1.7C417.7,226,417.5,227.1,418.4,227.1L418.4,227.1z"/>
		</g>
	</g>
	<g>
		<g>
			<path d="M459.4,215.5c0.1-2.7,0.5-5,1.4-7.6c0.1-0.2,0-0.5-0.3-0.6c-2.5-0.7-6.2-2.6-8.8-1.6c-2,0.8-3.3,2.9-5.6,3.6
				c-2.4,0.7-4.8-0.6-7.1-0.1c-2.3,0.5-2.5,2.7-3.3,4.5c-2.8,6-11.4,9.6-16.7,12.7c-0.8,0.5-0.1,1.3,0.7,0.9
				c4.5-2.6,9.3-5.2,13.4-8.5c1.3-1,2.5-2.2,3.4-3.6c0.5-0.8,0.8-2.7,1.4-3.5c1.2-1.4,3.2-1.2,4.8-1.1c3.4,0.2,5.5-1.3,8.2-2.9
				c1.7-1,6.4-1.6,7.6,0.6c0.8,1.4-0.5,5.4-0.6,7C457.9,216.3,459.4,216.1,459.4,215.5L459.4,215.5z"/>
		</g>
	</g>
	<g>
		<g>
			<path d="M443,160.8c6.6,2.4,14.5,0.6,18.6-5.5c6.8-10.1-1.8-20.1-11-24.2c-7.5-3.3-13-2.8-18.3,3.8
				C424.1,144.9,433,156.7,443,160.8c0.4,0.2,1.5-0.4,1.4-0.5c-6.3-2.5-12.6-8-13.9-15c-0.6-3.4,0.4-6.6,2.3-9.4
				c3.7-5.3,9-7.3,15.2-4.8c5.6,2.2,11.5,5.9,13.7,11.8c3.9,10.5-5.7,21.6-17.2,17.4C444,160.2,442.9,160.7,443,160.8z"/>
		</g>
	</g>
	<g>
		<g>
			<path d="M454.4,132.5c1.7-2.1,1.5-5.3-1.1-6.7c-3.3-1.8-8.2,0.7-10.7-2.7c-0.4-0.5-1.7,0.1-1.3,0.6c1.4,1.8,3.5,2.2,5.7,2.3
				c1.6,0,3.4-0.2,4.9,0.5c2.2,1.1,2.8,3.7,1.2,5.6C452.7,132.9,454.1,133,454.4,132.5L454.4,132.5z"/>
		</g>
	</g>
	<g>
		<g>
			<path d="M416.5,77.9c3.5,6,8.6,10.8,12.6,16.4c3.7,5.2,4.3,12.7,9.3,16.9c0.4,0.4,1.8-0.2,1.3-0.6c-4.9-4.1-5.7-11.7-9.3-16.9
				c-4-5.7-9.1-10.4-12.6-16.4C417.6,76.8,416.2,77.3,416.5,77.9L416.5,77.9z"/>
		</g>
	</g>
	<g>
		<g>
			<path d="M358,234.2c3.1,5.5,7.9,9.3,13,12.8c6.1,4.2,12.4,8.3,19.4,11c13.5,5.2,28.7,6.1,43,5.2c11-0.7,22.6-3.5,30.5-11.8
				c4.6-4.9,6.7-10.6,7-17.3c0.4-7.2,0.5-14.5-1.9-21.3c-2.9-8.1-4.5-15.1-4.5-23.8c0-8.4,0.2-16.7-3.4-24.5c-0.3-0.7-2.5,0-2.2,0.6
				c3.3,7.3,3.4,15,3.4,22.8c0,8.2,0.6,15.5,3.6,23.1c5.7,14.9,5.3,35.2-9.3,44.7c-7.9,5.1-17.5,6.3-26.7,6.5
				c-8.6,0.2-17.3-0.2-25.8-1.8c-9-1.8-17.3-5.3-25-10.2c-7-4.4-14.8-9.1-18.9-16.6C359.8,232.9,357.7,233.7,358,234.2L358,234.2z"
				/>
		</g>
	</g>
	<g>
		<g>
			<path d="M262.5,311.6c-0.7,13.4-1.3,26.8-2,40.2c-0.3,6.5-0.6,13.1-1,19.6c-0.3,5.7-0.8,11.2,1.7,16.5c0.5,1,2.6,0.4,2.2-0.6
				c-2.8-6-1.8-12.6-1.5-19c0.3-6.2,0.6-12.4,0.9-18.6c0.6-12.7,1.2-25.5,1.9-38.2C264.8,310.3,262.6,310.6,262.5,311.6L262.5,311.6
				z"/>
		</g>
	</g>
	<g>
		<g>
			<path d="M381.7,336.9c-0.9-5.5-4.4-9.9-7.3-14.5c-3.7-5.9-7.3-11.8-10.8-17.9c-6.3-11.2-12-22.7-17.2-34.4
				c-0.4-1-3.3-0.1-2.9,0.8c5.2,11.7,10.9,23.2,17.2,34.4c2.7,4.8,5.6,9.6,8.5,14.4c3.5,5.7,8.4,11.3,9.6,18
				C378.9,338.6,381.9,338,381.7,336.9L381.7,336.9z"/>
		</g>
	</g>
	<g>
		<g>
			<path d="M449.2,350.3c-1.6-6,2.1-12.8,4.6-18.1c2.4-5.2,5.2-10.1,8.2-14.9c5.9-9.4,11.2-18.9,14.8-29.5c3.3-9.7,5.3-19.9,6-30.2
				c0.5-8.4,0.5-17.9-8-22.3c-0.8-0.4-3.1,0.6-2.2,1.6c1.5,1.7,3.2,3.1,5.4,3.9c1.1,0.4,2.2,0.5,3.3,0.8c0.1,0,0.2,0,0.4,0
				c2.2,0,2,0.1-0.5,0.2c-0.4,0.6-0.8,1.3-1.2,1.9c2.3-0.1,4.1,0.1,6.3,0.5c-0.2-0.5-0.5-1-0.7-1.5c-2.2,2.3-3.8,4.6-5.1,7.5
				c1,0,1.9,0.1,2.9,0.1c0.2-4.2-0.4-8.1-2.1-12c-0.6-1.3-3.4-0.5-2.9,0.8c1.6,3.7,2.3,7.3,2,11.4c-0.1,1.5,2.4,1.1,2.9,0.1
				c1.2-2.7,2.7-4.9,4.7-7c0.7-0.7,0-1.4-0.7-1.5c-2.4-0.5-4.7-0.6-7.1-0.6c-0.8,0-2.4,1.2-1.2,1.9c3.3,2,6.8,1.4,9.5-1.3
				c0.3-0.3,0.4-0.8,0.1-1.1c-0.9-1.1-1.6-1.4-3-1.7c-4.2-0.6-7.2-0.4-10.4-3.9c-0.7,0.5-1.4,1.1-2.2,1.6c10.2,5.2,7,21.7,5.5,30.9
				c-1.6,10.5-4.7,20.9-9.2,30.6c-4.3,9.4-10.5,17.6-15.3,26.7c-3.8,7-10.1,17.4-7.9,25.6C446.7,352.4,449.6,351.6,449.2,350.3
				L449.2,350.3z"/>
		</g>
	</g>
	<g>
		<g>
			<path d="M385,359.5c3.1-3.7,9.2-1.5,13.4-2.3c3.6-0.7,4.7-2.4,6.6-5.3c2.4-3.6,5.1-3.1,9-3.2c3.8-0.1,7.7-0.3,11.5-0.4
				c7-0.2,14-0.5,21-0.7c1.6-0.1,2.3-2.1,0.3-2c-8.3,0.3-16.6,0.5-24.9,0.8c-3.8,0.1-7.7,0.2-11.5,0.4c-1.9,0.1-3.9-0.1-5.5,1.1
				c-1.8,1.2-1.9,3.1-3.2,4.8c-2.3,3.1-5.8,2.7-9.2,2.7c-3.8,0-7.5,0.2-10,3.3C381.4,360.1,384.2,360.4,385,359.5L385,359.5z"/>
		</g>
	</g>
	<g>
		<g>
			<path d="M447.5,350.8c-12.5-1.2-24.9-1-37.5-1c-4.7,0,1.9-0.7,3.1-0.8c2-0.1,4.2,0.3,6.2,0.4c2.3,0.2,4.7,0.3,7,0.3
				c2.7,0,5.4-0.1,8.1-0.4c0,0,8.6-1.1,7.6,0.4c0.6-0.2,1.1-0.5,1.7-0.7c-2.5,0.5-5.3,0.3-7.9,0.4c-0.5,0.4-1.1,0.7-1.6,1.1
				c0.6,0,8.7-0.8,8.4,0.5c0.8-0.3,1.6-0.5,2.4-0.8c-5.5,0.2-10.4-2.5-15.8-2.8c-5.5-0.3-11.3,3.1-16.5,0.6c-0.7-0.4-3,0.9-2.7,1
				c4.1,1.9,7.6,0.9,11.9,0.1c7.7-1.3,13.8,2.5,21.3,2.2c0.5,0,2.2-0.2,2.4-0.8c0.9-3.1-8.8-1.1-9.9-1c-0.5,0-3,1.1-1.6,1.1
				c1.3,0,12.1,1.1,11.2-2.6c0-0.2-0.4-0.2-0.5-0.2c-2.5,0-4.4,0.5-6.4,2.1c-0.1,0.1-0.2,0.2-0.1,0.3c1.9,1.6,6.3,3,8.5,0.7
				c3-3.2-2.4-3.6-4.5-3.4c-8.8,1.1-16.8,1-25.6,0.6c-4.5-0.2-8.6,0.4-12.6,2.6c-0.4,0.2-0.4,0.6,0.1,0.6
				c13.7-0.7,27.3-0.5,40.9,0.8C445.8,351.9,448.2,350.8,447.5,350.8L447.5,350.8z"/>
		</g>
	</g>
	<g>
		<g>
			<path d="M384.8,356.3c0-9.1,16.1-13.9,22.3-18.8c6.4-5.1,10.7-12.1,14.9-19c5.2-8.5,10.9-17,15.6-25.9c4.6-8.7,5.5-17.7,5.7-27.4
				c0-0.5-2.9-0.1-2.9,0.8c-0.3,10.7-1.7,20-7,29.4c-5,8.9-10.6,17.6-16,26.2c-5.5,8.9-11.5,15.6-20.6,20.8
				c-5.4,3.1-14.9,7.2-14.9,14.5C381.9,357.6,384.8,357.2,384.8,356.3L384.8,356.3z"/>
		</g>
	</g>
	<g>
		<g>
			<path d="M351.8,354.4c0.8-1.7,1.7-4.3,3.2-5.5c3-2.3,7.2-1.6,10.5-1c4.2,0.8,8.4,1.9,12.5,3.2c0.6,0.2,2.6-0.2,2.6-1
				c-0.1-5.7-6.8-6.9-10.4-10.1c-4.7-4.1-7.4-10.1-9.5-15.9c-5-14.2-8.9-28.8-13.3-43.2c-0.2-0.7-3.1,0.1-2.9,0.8
				c4.4,14.4,8.3,29,13.3,43.2c1.7,4.9,3.9,9.7,7.3,13.7c1.8,2.1,3.9,3.8,6.3,5.2c3.1,1.7,6.2,3.1,6.3,7.1c0.9-0.3,1.8-0.6,2.6-1
				c-6.5-2.1-15.3-5.2-22.3-4c-4.8,0.9-7.3,4.9-9.2,9C348.7,355.4,351.5,355.1,351.8,354.4L351.8,354.4z"/>
		</g>
	</g>
	<g>
		<g>
			<path d="M191.9,598.8c5.8-27.4,26.4-48.4,36.2-74.3c10.1-26.4,11.4-55,11.5-82.9c0-14.2-0.3-28.4-0.1-42.6
				c0.2-15.5,1.5-29.7,8.6-43.8c3.1-6.1,6.6-12.1,9.3-18.4c2.4-5.6,4-11.5,5.6-17.4c3.3-11.9,7.2-24.2,18.1-31.3
				c18-11.6,45.4-7.2,58.4-26.8c0.8-1.2-2.1-1.1-2.7-0.2c-11.9,18.1-38.7,14.9-55.9,25c-9.1,5.3-14.4,13.9-17.8,23.7
				c-2,5.6-3.3,11.4-5,17.1c-2.2,7.2-5.2,13.9-8.7,20.6c-2.9,5.6-6,11.1-8.2,17c-2.7,7.1-3.8,14.5-4.2,22.1
				c-0.9,14.9-0.4,29.9-0.3,44.8c0.2,28.5,0,57.7-8.5,85.2c-4.7,15.2-12.6,28.6-20.8,42.2c-7.7,12.8-15.2,25.8-18.3,40.5
				C188.7,600.3,191.6,599.9,191.9,598.8L191.9,598.8z"/>
		</g>
	</g>
	<g>
		<g>
			<path d="M349.4,277.6c-2.9-6.7-5.8-13.3-8.8-20c-2.3-5.1-4.7-9.9-9-13.6c-0.7-0.6-3.4,0.5-2.7,1.1c4.6,4,7.1,9.4,9.5,14.8
				c2.7,6.1,5.4,12.3,8.1,18.4C346.9,279.2,349.7,278.3,349.4,277.6L349.4,277.6z"/>
		</g>
	</g>
	<g>
		<g>
			<path d="M405.4,404c1.9-3,0.8-6-0.2-9.2c-1.5-4.7-3.3-9.2-5.4-13.6c-4-8.4-8.9-16.2-14.8-23.4c-0.6-0.7-3.4,0.3-2.7,1.1
				c5.4,6.7,10,13.9,13.8,21.6c1.8,3.6,3.3,7.3,4.7,11.1c1.3,3.5,4.1,9,1.9,12.5C402,405.1,404.9,404.8,405.4,404L405.4,404z"/>
		</g>
	</g>
	<g>
		<g>
			<path d="M285.6,426.5c16.2,21,38.5,35.5,58.1,53c21.4,19.1,36.2,42.9,47.5,69.1c0.3,0.8,3.2-0.2,2.9-0.8
				c-11.1-25.7-25.6-49.3-46.5-68.2c-19.9-18-42.8-32.7-59.3-54.1C287.9,424.9,285.1,425.9,285.6,426.5L285.6,426.5z"/>
		</g>
	</g>
	<g>
		<g>
			<path d="M301.7,583.7c3.2-17,15.4-30.8,18.1-48c0.7-4.5,0.3-9.1,0.5-13.7c0.1-5.7,2-10.3,5-15.2c5.7-9.2,11.4-18.3,17.1-27.4
				c0.7-1.2-2.2-1-2.7-0.1c-5.7,9.1-11.5,18.2-17.1,27.4c-2.4,3.9-4.4,7.5-4.9,12.1c-0.6,5.2,0.1,10.5-0.5,15.7
				c-2.1,17.8-15.1,32-18.3,49.5C298.6,585.2,301.5,584.8,301.7,583.7L301.7,583.7z"/>
		</g>
	</g>
	<g>
		<g>
			<path d="M188.5,602.8c9.5,0.1,18.9,0.1,28.4,0.2c8.7,0,19.6-1.4,26.8,4.6c0.8,0.7,3.6-0.4,2.7-1.2c-6.4-5.3-14.6-5.1-22.5-5.2
				c-11.4-0.1-22.9-0.1-34.3-0.2C188.4,601,186.5,602.8,188.5,602.8L188.5,602.8z"/>
		</g>
	</g>
	<g>
		<g>
			<path d="M196.5,612.9c0-3.7,0-7.3,0-11c0-1.5-2.9-1.1-2.9,0.2c0,3.7,0,7.3,0,11C193.5,614.6,196.5,614.2,196.5,612.9L196.5,612.9
				z"/>
		</g>
	</g>
	<g>
		<g>
			<path d="M195.5,611.5c15.3-1.1,30.5,0.4,45.3,4.4c0.7,0.2,3.3-0.9,2.4-1.2c-15.2-4.1-30.7-5.6-46.4-4.5
				C195.9,610.3,193.5,611.7,195.5,611.5L195.5,611.5z"/>
		</g>
	</g>
	<g>
		<g>
			<path d="M288.5,590.9c-6.3,0.2-12,2.1-17.8,4.5c-2.9,1.2-5.9,2.6-8.9,3.6c-4.2,1.5-8.1,1.8-12.5,2.4c-3.5,0.5-6.3,2.2-6.6,6
				c-0.3,3.6,1.7,7.7,2.8,11.1c1.4,4.1,2.7,8.1,4.1,12.2c2.7,8.1,5.6,16.2,8.1,24.4c1.5,4.8,2.3,9.3,7.7,11
				c4.5,1.4,9.7-2.9,13.5-4.7c4.5-2.2,9-4.9,14-5.5c4.1-0.5,8.3,0,12.4,0.2c1.2,0.1,3.1-1.6,1.1-1.7c-5-0.3-10.1-0.9-15.1,0.1
				c-6.1,1.2-11.6,4.6-17.1,7.3c-2.9,1.4-5.3,3.4-8.5,1.9c-2.9-1.4-3.6-4.4-4.5-7.3c-1.8-6.4-4.1-12.7-6.2-19
				c-2.2-6.6-4.4-13.2-6.6-19.7c-1-2.9-2.4-6-2.7-9c-0.6-5.1,3.6-5.4,7.4-5.9c12-1.4,22-9.9,34.2-10.2
				C288.6,592.6,290.5,590.8,288.5,590.9L288.5,590.9z"/>
		</g>
	</g>
	<g>
		<g>
			<path d="M315.4,658.1c-6.5,1.6-12-0.1-12.1-7.3c-0.1-4.1,0.9-8.1,0.6-12.2c-0.6-8.7-3.9-17-7-25.1c-1.6-4.1-3.1-8.3-4.3-12.6
				c-1.1-3.9-3.4-10.7-1.4-14.5c3-5.7,18.1-3,23.3-2.4c4.4,0.5,8.7,1.1,13.1,1.1c17.8,0.2,35.4-8.9,51.7-14.8
				c19.9-7.3,39.8-14.6,59.7-21.8c6.7-2.4,13.9-4.6,19.4-9.3c6.3-5.2,8.5-13.1,10-20.8c3.9-20.4,7.3-41,10.9-61.5
				c1.8-10,3.4-20,5.5-29.9c2-9.3,4.9-18.2,7.8-27.2c5.3-16.1,8.9-32.8,15.6-48.3c7.3-16.9,19.1-33.2,36-41.4
				c10.6-5.1,23.3-6.3,34.4-1.7c7.5,3.2,14,8.8,19.4,14.8c20.5,23.1,19.4,55.3,12.8,83.6c-3.3,14.2-7.5,28.7-13.1,42.2
				c-3.1,7.6-7.2,15.1-8.4,23.3c-1.5,10.6,0.8,20.8-1.7,31.4c-2.2,9.4-5.8,18.4-10,27c-3.8,7.9-8.8,15.2-12.2,23.3
				c-5.8,13.8-8.2,29.7-17.5,41.9c-12.3,16.1-33.3,14.9-51.4,13.5c-17.4-1.4-34.5-1.8-51.8,1.2c-17.2,3-34.3,8.5-49.8,16.7
				c-7.6,4-14.4,9.3-21.9,13.6c-9.3,5.3-19.7,8-30,10.5C333.8,653.8,324.6,655.7,315.4,658.1c-1.7,0.4-1.5,1.3,0.2,0.9
				c18.4-4.8,38.5-7,55.6-15.7c8.2-4.1,15.4-9.8,23.3-14.4c10.1-5.8,21.4-10,32.6-13.3c20.6-5.9,41.6-7.2,62.9-5.4
				c15,1.3,31.1,3,45.3-2.9c14.6-6.1,21.2-19.8,26-34c2.7-7.9,5-16,8.7-23.5c4.3-8.8,9.5-17,13.5-26c3.8-8.8,7.2-18.2,8.4-27.7
				c1.3-10.8-1.4-21.3,2.2-31.9c3-8.7,7.1-16.8,10-25.5c2.5-7.3,4.8-14.7,6.9-22.1c7.8-28.3,12.5-61.8-5.2-87.6
				c-9.2-13.4-23.3-24.4-40.1-24.6c-16.1-0.1-31,8-42.1,19.3c-12.5,12.8-19.6,29.3-24.8,46.1c-2.7,8.6-5,17.3-7.7,25.9
				c-2.9,9.4-6.3,18.6-8.5,28.2c-4.9,21.6-8,43.7-11.9,65.5c-1.9,10.8-3.4,21.8-5.8,32.5c-2.4,10.6-7.6,18-17.8,22.4
				c-20.6,8.7-42.2,15.5-63.2,23.2c-10.4,3.8-20.9,7.7-31.3,11.5c-6.1,2.2-12.3,4.2-18.8,4.7c-6.6,0.5-13.1-0.5-19.6-1.3
				c-7-0.8-15.2-1.6-21.9,1.3c-7.7,3.3-4,13.3-2.1,19.4c2.7,9,6.8,17.5,9.2,26.6c1.1,4.1,1.8,8.4,1.7,12.7
				c-0.1,4.1-1.7,9.1-0.1,13.1c2.5,5.9,9.7,4.5,14.6,3.3C317.3,658.5,317.1,657.7,315.4,658.1z"/>
		</g>
	</g>
	<g>
		<g>
			<path d="M666,466c-11.6-18.7-21.9-37.8-28-59c-6-20.6-10.2-41.8-16.1-62.4c-4.4-15.5-10.5-31.2-21.6-43.1
				c-12.6-13.5-31.3-21.3-47.8-29c-23-10.8-46.5-20.5-69.9-30.7c-1.3-0.6-3.4,1.3-1.6,2.1c20.2,8.7,40.5,17.3,60.5,26.4
				c9.6,4.3,19.2,8.9,28.6,13.8c8.7,4.6,17.6,9.2,24.8,16c12.5,11.8,19.1,27.9,23.8,44c5.9,20.2,10.1,40.9,15.8,61.1
				c6.3,22.4,16.8,42.6,29.1,62.3C664.1,468.5,666.8,467.4,666,466L666,466z"/>
		</g>
	</g>
	<g>
		<g>
			<path d="M455.3,151.2c-2.3-3.3-4.7-6.5-6.4-10.2c-1.5-3.2-3.5-5.6-5.9-8.2c-0.1-0.2-0.8,0.1-0.7,0.3c2.9,3.2,4.8,6.4,6.8,10.1
				c1.5,2.9,3.6,5.5,5.5,8.2C454.7,151.7,455.4,151.4,455.3,151.2L455.3,151.2z"/>
		</g>
	</g>
	<g>
		<g>
			<path d="M497.2,955.1c5.6,1.4,11.1,1.3,16.8,0.9c7.1-0.5,13.9-0.2,20.9,0.7c11.5,1.4,24.1,4.3,35.7,1.6
				c10.4-2.4,20.7-6.1,30.7-9.6c10.2-3.6,20.2-7.9,29.2-14c2.5-1.7-3.3-1.3-4.5-0.5c-15.9,10.8-36,16.6-54.4,21.4
				c-11,2.9-23.8-0.6-34.9-1.9c-5.2-0.6-10.4-1.1-15.6-0.8c-6.4,0.3-12.8,1.4-19.2-0.3C500.4,952.2,495.2,954.6,497.2,955.1
				L497.2,955.1z"/>
		</g>
	</g>
	<g>
		<g>
			<path d="M624.8,937.4c-9.6-7.2-18.9-15.3-29.6-20.9c-1.4-0.7-6.8,1.4-4.7,2.5c10.4,5.4,19.5,13.4,28.9,20.5
				C620.8,940.5,626,938.3,624.8,937.4L624.8,937.4z"/>
		</g>
	</g>
	<g>
		<g>
			<path d="M628.8,928.2c-5.5-1.7-10.4-5.3-15.3-8.3c-5.4-3.3-10.8-6.6-16.2-9.9c-1.5-0.9-6.9,1.3-4.6,2.7
				c5.4,3.3,10.8,6.6,16.2,9.9c4.9,3,9.8,6.6,15.3,8.3C625.9,931.5,631.1,928.9,628.8,928.2L628.8,928.2z"/>
		</g>
	</g>
	<g>
		<g>
			<path d="M600,907.8c8.9,5.9,18.2,11.1,27.8,15.8c2.1,1,7.3-1.9,4.5-3.2c-9.6-4.7-18.9-9.9-27.8-15.8
				C602.4,903.2,597.3,906,600,907.8L600,907.8z"/>
		</g>
	</g>
	<g>
		<g>
			<path d="M608.8,900.7c7.2,4.2,14.2,8.7,21,13.5c1.6,1.2,6.9-1.2,5.4-2.2c-7-5-14.3-9.7-21.7-14
				C611.8,897,606.5,899.4,608.8,900.7L608.8,900.7z"/>
		</g>
	</g>
	<g>
		<g>
			<path d="M611.3,894.5c4.9,1.3,8.2,5.2,11.9,8.4c4,3.3,8.3,6.2,12.9,8.7c0.7,0.4,3.1-0.8,2.7-1c-5-2.8-9.8-6.1-14.2-9.8
				c-3.4-3-6.4-6.2-10.9-7.4C613,893.2,610.5,894.3,611.3,894.5L611.3,894.5z"/>
		</g>
	</g>
	<g>
		<g>
			<path d="M612,887.3c5.8,2.1,11.5,4.6,17,7.5c5.2,2.8,12.7,6.1,15.5,11.6c0.5,0.9,3.3-0.1,2.9-0.8c-2.6-5-8.3-7.7-13-10.4
				c-6.4-3.7-13.2-6.7-20.1-9.2C613.5,885.7,610.9,886.9,612,887.3L612,887.3z"/>
		</g>
	</g>
	<g>
		<g>
			<path d="M649.2,910.1c5.2-2.9,11.3-5.4,16.1-9c3.5-2.7,4.7-7.5,6.3-11.3c4-9.5,10.9-20.2,3.1-29.6c-0.7-0.8-3.4,0.2-2.7,1.2
				c7.2,8.6,1.1,18.2-2.6,26.9c-2.2,5.2-3.5,10.2-8.4,13.4c-4.3,2.8-9.1,5-13.6,7.5C645.7,910.1,648.2,910.7,649.2,910.1
				L649.2,910.1z"/>
		</g>
	</g>
	<g>
		<g>
			<path d="M645.2,908.6c-2.2-15.2,15.4-21.6,23.5-31.3c8.7-10.4,5.9-26,5.5-38.6c0-0.8-2.9-0.3-2.9,0.8c0.2,7.8,1.1,15.9,0.3,23.7
				c-0.8,8.2-4.7,14.1-11,19.3c-8.4,7-20.1,14.3-18.3,26.9C642.4,910.2,645.3,909.6,645.2,908.6L645.2,908.6z"/>
		</g>
	</g>
	<g>
		<g>
			<path d="M643.3,896.1c-5.4-5-10.3-10.4-14.7-16.2c-0.4-0.6-3.2,0.4-2.7,1c4.4,5.9,9.3,11.3,14.7,16.2
				C641.2,897.6,643.8,896.5,643.3,896.1L643.3,896.1z"/>
		</g>
	</g>
	<g>
		<g>
			<path d="M625.2,874.1c4.8,8,11,14.8,18.6,20.2c0.9,0.6,3.5-0.6,2.3-1.5c-7.4-5.3-13.6-12-18.2-19.9
				C627.3,872,624.5,872.9,625.2,874.1L625.2,874.1z"/>
		</g>
	</g>
	<g>
		<g>
			<path d="M667.5,839.2c6.2,5,13.8,8,21.9,8.2c5.1,0.1,10.4-1.7,15.4-0.6c3.9,0.8,6.6,4.3,10.6,4.9c3.3,0.5,6.5-0.7,9.7-1.4
				c4.4-0.9,8.7,1.3,13,0.2c7.2-1.9,9.9-13.2,11.7-19.2c0.5-1.6-2.4-1.7-2.8-0.4c-1.1,3.9-2.5,7.7-4.3,11.3
				c-1.7,3.5-2.8,6.3-8.2,6.2c-1.5,0-3.1-0.7-4.6-0.7c-2.6-0.1-5.1,0.6-7.6,1.2c-3.6,0.9-5.8,1.2-9.2-0.7c-1.2-0.7-2.3-1.7-3.6-2.3
				c-5.3-2.6-11.1-1-16.7-0.6c-8.6,0.5-16.5-2.3-23.2-7.6C668.7,836.6,666.2,838.1,667.5,839.2L667.5,839.2z"/>
		</g>
	</g>
	<g>
		<g>
			<path d="M517.2,890.5c2.5,12.4,7.1,22.3,20.2,25.7c10.4,2.7,22,1.2,32.3-1.4c22.9-5.7,44.4-22.9,45.1-48.2c0-0.4-2.9-0.1-2.9,0.8
				c-0.7,23.9-20.4,41.1-42.4,46.5c-10.3,2.5-22.1,3.9-32.3,0.4c-11.3-3.9-14.9-13.7-17-24.5C519.9,889.1,517,889.8,517.2,890.5
				L517.2,890.5z"/>
		</g>
	</g>
	<g>
		<g>
			<path d="M609.6,888.2c4.5-14.7,19.8-21.4,27.6-33.9c4.6-7.4,6.1-16.4,7.6-24.9c1.6-9.1,2.3-18.3,0.5-27.5
				c-0.3,0.3-0.6,0.6-0.9,0.9c7.4-3,12.6,12.9,14.8,17.5c3.3,6.8,6.7,13.6,10,20.4c0.4,0.9,3.3-0.1,2.9-0.8
				c-5.1-10.3-10-20.6-15.2-30.8c-2.8-5.5-7.2-9.9-13.7-7.3c-0.3,0.1-1,0.4-0.9,0.9c2,10.3,0.8,20.6-1.2,30.8
				c-1.7,8.5-3.6,17.1-9,24.2c-8.2,10.6-21.3,17.5-25.5,31C606.5,889.5,609.4,889.1,609.6,888.2L609.6,888.2z"/>
		</g>
	</g>
	<g>
		<g>
			<path d="M621.1,869.2c-1-0.6-1.4-1.7-1.2-2.8c0.3-1.3-2.7-0.9-2.9,0.3c-0.3,1.6,0.4,3.3,1.8,4.1c0.6,0.4,1.5,0.2,2.1-0.2
				C621.4,870.2,621.8,869.5,621.1,869.2L621.1,869.2z"/>
		</g>
	</g>
	<g>
		<g>
			<path d="M517,890.8c9.6,8.9,23,10.6,35.5,8.2c14.5-2.8,26.8-11.2,38.3-20.1c6.7-5.1,13.5-10.1,20.2-15.2
				c6.4-4.8,8.9-10.8,11.4-18.3c3-9.1,6-18.2,8.9-27.4c2.6-8.1,4.6-16.4,1.9-24.8c-1,0.3-1.9,0.5-2.9,0.8c4.1,8,9.3,15.3,15.6,21.8
				c0.6,0.6,3.3-0.4,2.7-1.1c-6.2-6.4-11.3-13.6-15.4-21.5c-0.4-0.8-3.2,0-2.9,0.8c2.5,7.9,0.8,15.9-1.6,23.6
				c-2.3,7.3-4.7,14.6-7.1,21.8c-2.3,7.2-4,15.8-9.5,21.3c-4.9,4.8-11.3,8.4-16.7,12.6c-11.4,8.8-23.1,18.7-37.1,23
				c-13.1,4-28.1,3-38.5-6.7C519,889.1,516.4,890.2,517,890.8L517,890.8z"/>
		</g>
	</g>
	<g>
		<g>
			<path d="M634.8,792.6c-4.5-3.8-9.4-7.1-14.8-9.6c-5.6-2.6-11.6-4.3-16-8.8c-0.7,0.4-1.3,0.8-2,1.2c6.1-0.5,11.6-2.5,17.2-4.7
				c8.2-3.2,16.5-4.8,25.2-5.7c1.7-0.2,6.5-1.1,7.9,0.5c1.7,1.9,0.5,3.9-0.3,5.6c-1.7,3.9-3.3,7.7-4.5,11.8c-2,7-2.7,14.3-2.5,21.5
				c0,0.7,2.9,0.2,2.9-0.8c-0.3-9.6,1.2-19.1,4.8-28c1.7-4.4,6.6-11.6-1.2-12.4c-6.8-0.7-14.9,1.2-21.4,2.7
				c-9.1,2.1-17.5,7.4-26.9,8.2c-0.3,0-2.6,0.6-2,1.2c3.8,3.8,8.5,5.6,13.4,7.6c6.4,2.7,12.1,6.3,17.4,10.8
				C632.7,794.2,635.3,793.1,634.8,792.6L634.8,792.6z"/>
		</g>
	</g>
	<g>
		<g>
			<path d="M508.3,697.4c7.8,4.9,16.3,8.5,25.3,10.3c5.3,1.1,10.8,1.4,15.7,3.6c5.6,2.5,8.9,7.6,12.5,12.3
				c14.1,18.4,28.3,36.9,42.4,55.3c0.8,1,3.5-0.1,2.7-1.3c-14.5-19-29.1-37.9-43.6-56.9c-2.9-3.8-5.6-7.8-9.8-10.2
				c-3.4-2-7.2-2.9-11-3.6c-11.6-2.2-21.9-4.9-32-11.3C509.5,695.1,507,696.6,508.3,697.4L508.3,697.4z"/>
		</g>
	</g>
	<g>
		<g>
			<path d="M559.9,714.6c-3.3-4.6-6.4-10.3-11.6-13.1c-0.8-0.4-3.2,0.8-2.7,1c5.1,2.7,8.1,8.3,11.4,12.9
				C557.6,716.1,560.2,715,559.9,714.6L559.9,714.6z"/>
		</g>
	</g>
	<g>
		<g>
			<path d="M651.8,766.5c1-17.3,1.9-35.7-5.5-51.9c-7.1-15.6-23-28.2-21.3-46.8c0-0.5-2.8-0.1-2.9,0.8
				c-1.7,18.7,14.2,31.2,21.3,46.8c7.4,16.2,6.4,34.6,5.5,51.9C648.8,767.8,651.7,767.4,651.8,766.5L651.8,766.5z"/>
		</g>
	</g>
	<g>
		<g>
			<path d="M503.9,677.3c8.2-6.5,22.7-3.9,32.5-3.9c10.5,0.1,21.1,0.1,31.6,0.2c10.7,0.1,20.8,1,31.1,4.3c7.8,2.4,15.4,4.7,23.6,3.8
				c1.3-0.2,2.5-1.6,0.5-1.3c-11.5,1.4-22-4.7-33.1-6.6c-10.6-1.9-21.6-1.5-32.3-1.5c-11.6-0.1-23.1-0.1-34.7-0.2
				c-7.6,0-15.3,0.2-21.5,5.1C500.4,678,503.3,677.8,503.9,677.3L503.9,677.3z"/>
		</g>
	</g>
	<g>
		<g>
			<path d="M502.7,677.2c18.4-12.5,41-10.6,61.9-7.1c19.6,3.3,39.2,6.9,58.8,10.3c0.7,0.1,3.2-1,2.4-1.1c-23.5-4.1-47-9.3-70.7-12.1
				c-18.8-2.2-38.6-1-54.6,9.9C499.3,677.9,502.2,677.6,502.7,677.2L502.7,677.2z"/>
		</g>
	</g>
	<g>
		<g>
			<path d="M519.4,671.7c15.8,1.5,31.6,2.2,47.5,2c2.3,0,6.1-3.6,2.2-3.5c-15.9,0.2-31.7-0.5-47.5-2
				C519.2,667.9,515.5,671.3,519.4,671.7L519.4,671.7z"/>
		</g>
	</g>
	<g>
		<g>
			<path d="M489,687.1c3-2.4,6-4.9,9-7.3c1.8-1.5,4.3-3.5,3.4-6.1c-0.2-0.7-3.1,0.1-2.9,0.8c1,3-2.7,5.3-4.7,6.9c-2.4,2-4.9,4-7.3,6
				C485.7,687.8,488.4,687.6,489,687.1L489,687.1z"/>
		</g>
	</g>
	<g>
		<g>
			<path d="M490,691.8c1.7,17.4,8.4,33,17.6,47.6c9.2,14.5,20.1,27.9,28.2,43.1c4.2,7.9,7.3,16.5,12.5,23.9
				c5.3,7.6,11.5,14.4,16.7,22.1c5.2,7.8,10.1,15.9,14.8,24.1c5.1,8.7,9.8,17.7,9.5,28.1c0,1.4,2.9,1,2.9-0.3
				c0.3-8.3-2.5-15.8-6.4-23.1c-4.5-8.4-9.6-16.6-14.7-24.7c-5.2-8.2-11-15.7-17-23.3c-6.1-7.6-9.6-16.3-14-25
				c-7.5-15-17.9-28.2-27.1-42.1c-10.4-15.7-18.2-32.3-20.1-51.2C492.8,689.8,489.9,690.5,490,691.8L490,691.8z"/>
		</g>
	</g>
	<g>
		<g>
			<path d="M413.4,952.6c22.5,1.6,46.2,2.2,68.2-3.6c9-2.4,20.3-5.6,26.3-13.2c3.4-4.3,5.5-9.9,7.8-14.8c2.8-5.6,5.5-11.3,8.3-16.9
				c1.9-3.9-6.8-3.2-8.2-0.4c-4.4,8.9-8.5,18-13.1,26.8c-4.9,9.5-16.1,12.3-25.9,14.5c-19.5,4.4-40.4,3.6-60.2,2.2
				C413.1,947.1,407.5,952.2,413.4,952.6L413.4,952.6z"/>
		</g>
	</g>
	<g>
		<g>
			<path d="M419.3,952.7c-2.9-4.8-5.9-9.8-7.4-15.3c-1.3-4.8-2.1-12.7,2.2-16.2c-1,0.5-2.1,0.9-3.1,1.4c0.4,0,0.7-0.1,1.1-0.1
				c-0.7-0.1-1.5-0.1-2.2-0.2c2.6,1.5,4.4,4.4,6.9,6.2c2.5,1.8,5.4,3.2,8.3,4.2c6.2,2.2,12.8,2.7,19.3,2
				c14.9-1.5,28.8-8.5,41.8-15.5c12-6.4,25.3-14.2,24.5-29.8c-0.2-3.1-0.7-4.3-3.6-5.4c-4.2-1.6-9-2.4-13.3-3.5
				c-8.9-2.3-17.7-4.7-26.6-7c-1.4-0.4-6.6,1.9-4.7,2.4c9.5,2.5,19,5,28.5,7.5c3.2,0.8,11.6,1.4,13.5,4.6c2,3.4-0.3,10.2-1.7,13.5
				c-3.9,8.7-12.8,12.9-20.8,17.1c-8.4,4.5-17.2,9-26.4,11.7c-8.9,2.6-18.4,2.9-27.1-0.6c-3.6-1.4-6.9-3.5-9.6-6.2
				c-1.7-1.6-2.6-3.4-5-3.6c-5.9-0.5-8.1,5.4-8.5,10.2c-0.8,8.9,3.9,16.9,8.3,24.2C414.4,955.8,419.9,953.7,419.3,952.7L419.3,952.7
				z"/>
		</g>
	</g>
	<g>
		<g>
			<path d="M508,896.7c-13.8-6.4-28.3-11.2-43.2-14.3c-1.8-0.4-6.8,2.4-3.6,3.1c14.6,3.1,28.6,7.8,42.1,14
				C505.1,900.3,510.4,897.8,508,896.7L508,896.7z"/>
		</g>
	</g>
	<g>
		<g>
			<path d="M511.8,877c-5.9-3.7-13.9-3.9-20.5-5.9c-8.1-2.4-15.9-5.6-23.5-9.3c-1.5-0.8-6.2,1.6-5.5,2c6.7,3.3,13.6,6.2,20.7,8.5
				c3.5,1.1,7,2.1,10.6,3c4.2,1,8.9,1.4,12.7,3.7C507.7,879.8,512.6,877.5,511.8,877L511.8,877z"/>
		</g>
	</g>
	<g>
		<g>
			<path d="M462.9,854.4c5.9,3.3,11.8,6.7,17.7,10c2,1.1,7.2-1.6,4.5-3.2c-5.9-3.3-11.8-6.7-17.7-10
				C465.4,850,460.2,852.8,462.9,854.4L462.9,854.4z"/>
		</g>
	</g>
	<g>
		<g>
			<path d="M413.9,921.9c-0.7-6.7,6.5-8.4,11.4-10.3c3.6-1.3,6.7-3.2,9.7-5.5c3.3-2.6,6.3-5.9,10.2-7.8c3.3-1.7,7.3-1.9,10.3-4.3
				c5.9-4.7,6.1-15.6,7.3-22.4c1.8-10.5,3.1-21.2,3.9-31.8c0.2-2.5-4.8-0.8-5.6,0.3c-8.9,13.5-19.1,26.1-30.5,37.5
				c-2.7,2.7-5.4,5.3-8.2,7.9c-3.3,3-6.7,7.7-11.9,6.5c-3.9-0.9-8.4-4.2-12-6c-3.7-1.9-7.5-3.7-11.1-5.6c-3.2-1.7-7.6-4.3-6.9-8.7
				c0.7-4.2,5.7-6.4,8.7-8.5c5.8-4,10.9-8.9,15.9-13.9c12.3-12.3,24.5-24.6,36.7-36.9c2.4-2.4-3.3-2.3-4.6-0.9
				c-11.6,11.7-23.2,23.4-34.8,35c-5.5,5.5-11,11.1-17.5,15.5c-4,2.7-9.8,5.7-10.3,11.1c-0.5,5.3,4.7,8.3,8.7,10.4
				c7.3,3.9,14.8,8,22.4,11.3c4.6,2,9,1.5,13.1-1.4c5.7-4,10.7-9.3,15.6-14.2c11.9-11.9,22.5-25,31.8-39c-1.9,0.1-3.7,0.2-5.6,0.3
				c-0.8,10.7-2.1,21.3-3.9,31.8c-0.9,5-1.7,10.1-3,15c-0.9,3.4-2.5,5.3-5.9,6.6c-1.8,0.7-3.7,1.1-5.5,2
				c-7.7,3.8-12.8,10.8-21.1,13.7c-6.3,2.2-14.1,5.6-13.3,13.6C408.2,925.4,414.1,924.1,413.9,921.9L413.9,921.9z"/>
		</g>
	</g>
	<g>
		<g>
			<path d="M433.9,820.4c2.5,0,6-3.9,2.1-3.9C433.5,816.6,430,820.4,433.9,820.4L433.9,820.4z"/>
		</g>
	</g>
	<g>
		<g>
			<path d="M431.1,819.6c3.4,0.3,6.3,5.2,8.3,7.6c2.6,3,5.1,6,7.7,8.9c0.6,0.7,3.3-0.4,2.7-1.1c-3.1-3.6-6.3-7.3-9.4-10.9
				c-2.1-2.4-4-5.6-7.5-5.9C432.1,818.1,429.5,819.5,431.1,819.6L431.1,819.6z"/>
		</g>
	</g>
	<g>
		<g>
			<path d="M520.3,891.8c-4-8.3-8.1-16.8-14.4-23.7c-6.8-7.6-16.4-10.9-24.3-17.1c-8.2-6.4-14.5-14.9-20.2-23.5
				c-6.5-9.7-13-19.3-19.7-28.8c-6.5-9.3-13-18.8-19.6-28c-6-8.3-14.5-14.5-20-23.1c-6-9.3-11.1-19.2-17.7-28.2
				c-5.4-7.4-10.5-14.6-14.1-23c-4.3-9.9-7.1-21.3-3-31.7c2.2-5.5,5-11,7.8-16.2c3.1-6,7.8-9.7,12.5-14.5c0.6-0.7-2.1-0.4-2.6,0.2
				c-3.1,3.2-6.8,5.8-9.5,9.4c-3.4,4.6-5.6,10.1-8,15.2c-4.4,9-6.2,16.8-4,26.7c4.4,19.7,18.8,34.7,28.8,51.6
				c2.7,4.5,5.2,9.1,8.2,13.3c2.8,4,6.5,7,10,10.5c8.5,8.5,14.8,19.2,21.6,29c7.1,10.1,14.2,20.1,21.1,30.4c5.4,8,10.5,16.3,17,23.5
				c3.8,4.2,8,8,12.7,11.1c4.8,3.2,10.1,5.4,14.6,8.9c9.5,7.2,14.8,18.3,19.9,28.8C517.8,893.3,520.6,892.4,520.3,891.8L520.3,891.8
				z"/>
		</g>
	</g>
	<g>
		<g>
			<path d="M408.8,755.1c-12-4.6-25.3-2.1-37.7-0.9c-7.8,0.8-15.6,1.4-23-1.7c-7-2.9-13.7-6.7-20.5-10.1
				c-11.5-5.9-24.2-11.8-37.4-11.2c-13.2,0.7-25.1,7.4-38.4,7.3c-3.3,0-4.4,4.2-0.5,4.2c12.8,0.1,24.3-6.1,36.9-7.2
				c14.6-1.3,28.7,6.9,41.2,13.3c5.8,3,11.7,6.4,17.9,8.5c6.1,2,12.5,1.9,18.8,1.4c12.9-0.9,26.9-4.6,39.4,0.1
				C407.9,759.9,412.2,756.4,408.8,755.1L408.8,755.1z"/>
		</g>
	</g>
	<g>
		<g>
			<path d="M374.4,872.1c-12.2-4.2-24.4-8.4-36.2-13.6c-11.6-5.1-22.9-11.1-34.1-17c-21.7-11.4-43.6-22.5-65.7-32.9
				c-21.4-10.1-43.8-18.6-64.5-30.1c-19.1-10.7-34.9-25.6-42.2-46.7c-3.9-11.1-5.3-23.1-4-34.8c1.3-11.5,5.2-25.3,17.1-29.8
				c1.8-0.7,0.2-2.4-1.3-1.8c-18.2,6.9-20.5,32.6-18.7,49.1c2.2,21.2,12.9,40.5,29.3,54c18.1,14.7,40.7,22.9,61.7,32.4
				c24.8,11.3,49.4,23.3,73.6,35.8c13.4,6.9,26.6,14.3,40.2,20.7c14,6.6,28.6,11.7,43.2,16.7C374.1,874.6,376.2,872.7,374.4,872.1
				L374.4,872.1z"/>
		</g>
	</g>
	<g>
		<g>
			<path d="M147.2,660c-1.7,2.2-3.3,4.4-5,6.5c-1.1,1.4,1.7,1.7,2.4,0.8c1.7-2.2,3.3-4.4,5-6.5C150.7,659.3,147.9,659.1,147.2,660
				L147.2,660z"/>
		</g>
	</g>
	<g>
		<g>
			<path d="M200.5,712.9c5.8-2.2,10.2-6.2,14.2-10.8c5.4-6.1,10.4-12.5,15.4-18.9c1.1-1.4-1.6-1.7-2.4-0.8
				c-4.3,5.6-8.8,11.1-13.3,16.5c-4.3,5.1-8.8,10-15.1,12.4C197.4,712.1,199.1,713.5,200.5,712.9L200.5,712.9z"/>
		</g>
	</g>
	<g>
		<g>
			<path d="M201.3,712.1c-3,7,7.3,7.8,11.7,7.1c7.8-1.3,15-5.9,20.7-11.3c3-2.9,5.8-6.1,8-9.6c2.6-4,4.2-8.9,7.3-12.5
				c2.9-3.5,5.7-5.4,7.8-9.6c2.5-4.8,6.2-7.3,10.4-10.5c1.2-0.9-1.6-0.8-2.3-0.3c-4.3,3.3-8.2,5.7-10.7,10.5
				c-3.2,6.1-8.4,9.9-11.6,16c-3.6,6.8-7.7,12.9-13.7,17.8c-3.2,2.7-6.8,5.1-10.6,6.7c-3.4,1.4-17.5,3.4-14.1-4.8
				C204.5,711,201.7,711.3,201.3,712.1L201.3,712.1z"/>
		</g>
	</g>
	<g>
		<g>
			<path d="M200.3,712.2c-3.8-2.3-7-5.6-9.7-9c-0.7-0.8-3.4,0.2-2.7,1.2c2.8,3.6,6.2,7,10.1,9.3
				C198.9,714.2,201.5,712.9,200.3,712.2L200.3,712.2z"/>
		</g>
	</g>
	<g>
		<g>
			<path d="M210.5,674.6c-3.3,8-10.6,14.9-16.1,21.5c-2.9,3.4-5.7,6.4-9.3,9.1c-2.3,1.7-4.3,3.3-5.9,5.7c-2,3.1-4.1,5-8,5.2
				c-3.5,0.1-6.8-0.4-8.8-3.4c-2.8-4.2-0.4-9.1,2.6-12.5c5.2-5.8,10.6-10.4,14.7-17.1c0.3-0.4-2.4-0.3-2.9,0.5
				c-3.3,5.4-7.2,9.8-11.8,14.1c-3,2.8-6.1,5.9-6.7,10.2c-1.3,9.8,10.3,10.4,17.1,8.7c2.7-0.7,4-2.1,5.5-4.3
				c3.1-4.7,7.3-7,11.2-10.8c4.4-4.3,8.1-9.5,12-14.2c3.4-4.1,7-8.1,9.1-13.1C213.6,673.5,210.9,673.8,210.5,674.6L210.5,674.6z"/>
		</g>
	</g>
	<g>
		<g>
			<path d="M177.1,697.6c0.9,0.6,1.6,1.5,1.9,2.6c0.4,1.3,3.3,0.5,2.9-0.8c-0.4-1.4-1.3-2.6-2.5-3.4c-0.6-0.4-1.5-0.2-2.1,0.2
				C176.8,696.5,176.5,697.2,177.1,697.6L177.1,697.6z"/>
		</g>
	</g>
	<g>
		<g>
			<path d="M152.9,670.1c1.2,0.7,2.2,1.6,3.1,2.7c0.5,0.5,3.1-0.5,2.7-1c-0.9-1-2-1.9-3.1-2.7c-0.5-0.3-1.4,0-1.9,0.2
				C153.7,669.4,152.5,669.9,152.9,670.1L152.9,670.1z"/>
		</g>
	</g>
	<g>
		<g>
			<path d="M175.1,675.2c-8.6,1-15.2,6.8-24.1,7.3c-3.5,0.2-9.1,0.9-10.7-3.6c-1.2-3.4,1.1-6.6,3.6-8.7c2.9-2.5,6.5-3.9,9.4-6.4
				c3.3-2.7,5.8-5.8,9.3-8.2c2.9-1.9,4.7-4.3,7-6.9c6.3-7.3,14.4-12.6,22.5-17.9c1.6-1.1-0.7-2.3-2-1.4c-4.9,3.2-9.8,6.4-14.3,10.1
				c-4.4,3.6-7.7,7.7-11.5,11.8c-1.9,2-4.3,3.1-6.5,4.8c-1.8,1.4-3.3,3.2-4.9,4.9c-3.6,3.6-8.6,5.3-12.2,8.9
				c-4.8,4.8-5,13.2,2.8,14.7c4.7,0.9,10.6,0.4,15.2-1c5.6-1.6,10.3-5.5,16.3-6.2C176.5,677.2,177.1,674.9,175.1,675.2L175.1,675.2z
				"/>
		</g>
	</g>
	<g>
		<g>
			<path d="M193.4,608.1c-4.1,3.2-7.4,5.4-12.9,5.8c-1.8,0.1-3.6,0-5.4,0.4c-2.7,0.6-5.4,2-7.2,4.1c-1.9,2.2-2.9,4.7-5.2,6.6
				c-1.6,1.3-3.4,2.2-5,3.6c-3.1,2.7-4.3,5.3-5.1,9.3c-1,5.1-4.7,7.1-7.4,11.2c-1.1,1.6-2.6,4.1-0.2,5.2c1.9,0.9,5.9-0.9,7.4-1.8
				c2.7-1.5,4.3-3.8,3.5-6.9c-0.2-1-3.1-0.2-2.9,0.8c0.8,2.6-0.2,4.4-3,5.6c-1.1-0.3-2.2-0.5-3.2-0.8c-0.4-1.3,3.4-4.7,4-5.4
				c1.5-1.5,3-3,3.9-5c1.3-3,0.7-6,2.6-8.8c2-3.1,5.3-4.6,8.1-6.7c1.3-1,2.1-2,3-3.4c2.6-4.1,3.2-5.5,9.3-6.3c1.2-0.1,2.4,0,3.6-0.1
				c5.7-0.5,10.1-3.5,14.4-6.9C197,607.5,194.1,607.6,193.4,608.1L193.4,608.1z"/>
		</g>
	</g>
	<g>
		<g>
			<path d="M143.7,653c-1.9,1.9-1.4,5.2,1.3,6.1c3.2,1.1,7.6,0.8,10.6-0.7c1.8-0.9,0.2-2.2-1.2-1.5c-1.9,0.9-4.1,0.9-6.2,0.6
				c-1.2-0.1-2.2-0.2-2.6-1.5c-0.3-0.8-0.1-1.7,0.5-2.3C147.3,652.5,144.5,652.2,143.7,653L143.7,653z"/>
		</g>
	</g>
	<g>
		<g>
			<path d="M146.9,685.6c-0.8,12.4,0.7,28.1,8.8,38.2c7,8.7,18.4,12.6,29.3,11.2c0.8-0.1,2.4-1.1,1.2-1.9c-3.8-2.8-8.8-3.5-12.4-6.5
				c-3.9-3.3-6.4-7.8-8.8-12.2c-0.6-1.2-3.4-0.1-2.6,1.3c2.3,4.2,4.6,8.4,8.1,11.6c4,3.7,9.2,4.4,13.5,7.5c0.4-0.6,0.8-1.3,1.2-1.9
				c-10.8,1.5-22.4-3-28.4-12.5c-6.3-9.9-7.7-23.5-7-34.9C149.9,683.9,146.9,684.3,146.9,685.6L146.9,685.6z"/>
		</g>
	</g>
	<g>
		<g>
			<path d="M162.1,702.6c-0.3-5.2-0.2-10.4,0.3-15.6c0.1-1-2.8-0.4-2.9,0.4c-0.5,5.3-0.7,10.6-0.3,15.9
				C159.2,704.2,162.1,703.6,162.1,702.6L162.1,702.6z"/>
		</g>
	</g>
	<g>
		<g>
			<path d="M181.1,732.1c2.6,0.5,4.9,1.5,7.1,3c0.9,0.7,3.5-0.6,2.3-1.5c-2.3-1.7-4.9-2.7-7.6-3.2c-0.7-0.1-1.6,0-2,0.5
				C180.5,731.3,180.4,732,181.1,732.1L181.1,732.1z"/>
		</g>
	</g>
	<g>
		<g>
			<path d="M180.4,719.6c1.9,1.8,3.8,3.4,5.8,5c2,1.5,4.4,2.8,6,4.7c0.7,0.8,3.5-0.2,2.7-1.2c-1.5-1.7-3.5-2.8-5.3-4.1
				c-2.3-1.7-4.5-3.6-6.6-5.5C182.3,717.7,179.5,718.8,180.4,719.6L180.4,719.6z"/>
		</g>
	</g>
	<g>
		<g>
			<path d="M190.4,723.7c1.5,2.2,3.6,3.9,6.2,4.7c1.7,0.6,4.7,1.3,6.2-0.1c4.4-4.1-3.3-12.9-4-17c-0.2-1.4-3.1-0.7-2.9,0.8
				c0.6,3.7,3.1,6.5,4.4,10c0.9,2.4,0.9,5.3-2.4,4.1c-2-0.8-3.5-2.1-4.8-3.9C192.3,721.2,189.5,722.4,190.4,723.7L190.4,723.7z"/>
		</g>
	</g>
	<g>
		<g>
			<path d="M600.6,580.7c10.9-6,23.8-7.6,35.9-10.1c12.1-2.5,24.2-5,36.2-7.5c7.5-1.5,17.9-2,23.8-7.6c4.1-3.8,4.6-11.6-1.4-13.8
				c-0.8-0.3-3.4,0.9-2.3,1.3c3.9,1.4,4.9,6,3.3,9.6c-2.5,5.9-10.8,6.6-16.3,7.7c-9.9,2-19.7,4.1-29.6,6.1
				c-9.3,1.9-18.6,3.8-27.8,5.7c-8.2,1.7-16.2,3.8-23.6,7.8C597.1,581,599.7,581.2,600.6,580.7L600.6,580.7z"/>
		</g>
	</g>
	<g>
		<g>
			<path d="M756.1,530.7c-14.9-9.3-29.8-18.7-42.2-31.2c-0.6-0.6-3.2,0.5-2.7,1c12.5,12.5,27.3,21.9,42.2,31.2
				C754.1,532.2,756.6,531,756.1,530.7L756.1,530.7z"/>
		</g>
	</g>
	<g>
		<g>
			<path d="M698.7,546.7c8.6,0.9,19.7,0.4,26.5,6.5c0.3,0.2,0.9-0.1,0.6-0.4c-7-6.3-18.1-5.7-26.8-6.6
				C698.5,546.1,698.2,546.7,698.7,546.7L698.7,546.7z"/>
		</g>
	</g>
	<ellipse class="st0" cx="822.4" cy="180.3" rx="49.5" ry="28.8"/>
	<ellipse class="st0" cx="1005.4" cy="144.1" rx="73.5" ry="33.2"/>
	<g>
		<path class="st1" d="M1131.5,136.6c3.2-26.3,22.8-50,48.1-58.1c25.3-8.1,54.9-0.1,72.8,19.5c41.8-51.9,120.6-70,180.8-41.4
			c7.5,3.5,15,7.8,23.3,8.1c8.8,0.4,17-3.7,24.9-7.4c27.3-12.4,56.5-20.7,86.2-24.2c26-3.1,53.7-2.4,76.6,10.3
			c22.9,12.7,39.2,40.2,32,65.4c44,0.5,88.1,1,132.1,1.5c17,0.2,36,1.3,47.5,13.8c6.7,7.4,9.5,17.5,11.1,27.3
			c4.4,28.3-0.1,57.9-12.7,83.6c26.6,10.1,53.4,24.2,68.4,48.4c15,24.2,13.4,60.5-10.1,76.6c-11.8,8.1-26.7,9.8-41,11.4
			c-38.3,4.1-76.7,8.1-115,12.2c-4.3,0.5-8.8,1-12.5,3.3c-5.3,3.4-7.7,9.8-10.2,15.6c-20.6,47.9-70,79.3-121.4,87.9
			s-104.4-3-152.8-22.3c-7.6-3-15.5-6.3-23.7-5.8c-6,0.4-11.7,2.9-17.3,5.2c-45.5,18.7-95.1,27.3-144.2,25c-24.7-1.2-51-5.9-68.9-23
			c-17.9-17.1-22.1-50.1-2.7-65.5c-45.2-10-93.1-21.4-125.3-54.6c-32.2-33.2-38.3-95.7,0-121.7c6.1-4.1,13.1-7.3,17.6-13.1
			c6.3-8.2,5.9-19.5,6.7-29.8c2-28.7,18.1-59.1,45.8-66.7"/>
		<g>
			<path d="M1132.9,136.4c3.4-25.2,20.9-48.1,45.1-56.7c25.4-9,54.9-0.6,73,18.9c0.5,0.6,2.3-0.1,2.7-0.6
				c37.7-46.3,103.9-65.4,160.7-47.6c6.9,2.2,13.5,4.9,20,8c7.1,3.4,14.3,7,22.3,7c7.8,0,15.1-3,22-6.2c8.3-3.8,16.7-7.4,25.3-10.5
				c18.2-6.6,37-11.3,56.1-14.1c18-2.6,36.5-3.8,54.5-0.6c18.7,3.3,36.3,11.8,48.4,26.8c10.8,13.5,16.4,31.1,11.9,48.1
				c-0.1,0.5,0.6,0.5,0.8,0.5c42.4,0.5,84.8,1,127.2,1.5c16.4,0.2,35.9-0.4,49.1,11.2c13.4,11.7,15,33.1,15.2,49.8
				c0.2,21.9-4.8,43.6-14.3,63.4c-0.1,0.2,0.1,0.3,0.3,0.4c28.1,10.8,59.3,26.7,72.1,55.7c11.3,25.5,6.4,60.9-21.8,72.8
				c-16.7,7.1-36.6,7-54.4,8.9c-19.8,2.1-39.6,4.2-59.5,6.3c-9.6,1-19.2,2-28.7,3.1c-6.5,0.7-13.7,0.9-19,5.1
				c-5.2,4.1-7.4,10.7-9.9,16.5c-3.1,7.1-6.9,13.8-11.3,20.2c-17.1,24.9-42.4,43.4-70.1,54.8c-32.8,13.3-68.7,15.9-103.6,11.6
				c-18.5-2.3-36.8-6.5-54.6-12c-8.8-2.7-17.5-5.8-26.2-9.1c-7.7-3-15.5-6.8-23.8-7.7c-7.2-0.8-14,1.3-20.6,3.9
				c-8.5,3.4-17.1,6.8-25.8,9.7c-18.1,6-36.8,10.4-55.7,13.2c-18.4,2.7-37.1,3.9-55.7,3.6c-16.8-0.3-34-1.7-50.1-7.2
				c-14.2-4.8-27.8-13.3-35.5-26.5c-6.4-11.1-9.1-25-5.6-37.4c1.9-6.7,5.6-12.5,10.9-16.9c0.2-0.2,0.5-0.6,0-0.8
				c-52.6-11.6-119.2-26.9-143.2-81.6c-9.3-21.2-12-46.9-2.7-68.7c5-11.8,13.4-20.9,24.2-27.6c5.5-3.4,11.3-6.7,14.9-12.2
				c3.8-5.7,4.8-12.6,5.3-19.3c1.2-15.2,2.8-29.5,9.7-43.4c7.3-14.7,19.3-27.3,35.4-31.9c1.7-0.5,1.4-1.6-0.3-1.2
				c-31.6,9.1-45.6,42-47.4,72.3c-0.6,10.1-1.4,20.8-9.4,28c-6.4,5.8-14.6,9.1-21,15c-10,9.2-16.1,21.6-18.7,34.8
				c-5.4,28.3,4.4,59.8,23.9,80.8c25,26.9,61.1,39.9,95.8,48.8c9.2,2.4,18.8,3.9,27.9,6.6c2.1,0.6,2.1,0.2,1,1.8
				c-0.9,1.3-2.4,2.4-3.3,3.7c-2.2,2.8-3.9,5.9-5.1,9.2c-5.1,13.8-2.1,30.1,5.7,42.3c19.2,30.4,62.5,32.8,94.6,32.7
				c41.9-0.2,83.7-8.2,122.7-23.5c5.5-2.2,10.9-4.9,16.7-6.3c7.2-1.7,14.3-0.1,21.1,2.4c10,3.6,19.8,7.8,30,11.1
				c20.2,6.7,41,11.9,62.1,14.6c37.6,4.8,76.5,1.6,111.5-13.6c30.1-13.1,57.1-34.6,73.5-63.5c4.3-7.6,6.7-17.2,12.2-24
				c4.6-5.7,11.4-6.1,18.1-6.8c6.3-0.7,12.6-1.3,18.8-2c23.1-2.5,46.3-4.9,69.4-7.4c19.2-2,40.7-2,58.5-10.2
				c13.7-6.3,22.9-18.2,26.2-32.8c7.8-34.2-14.2-63.6-42.1-80.6c-7.4-4.5-15.2-8.4-23.2-11.9c-2.2-0.9-4.3-1.8-6.5-2.7
				c-3.2-1.3-4.3-1.1-3.3-4.7c1.3-5,4.1-9.8,5.8-14.7c6.2-18.9,8.4-39.2,6.4-59c-1.8-17.5-6.9-35.3-24.3-43
				c-16.4-7.2-36.2-5.4-53.7-5.6c-23-0.3-46-0.5-69-0.8c-11.8-0.1-23.7-0.3-35.5-0.4c-1.3,0-7,0.7-7.9-0.1c-1.3-1.3-0.1-4.2,0.2-5.9
				c0.5-4,0.5-8.1,0-12.2c-2-16.4-12-31.5-24.9-41.5c-14.8-11.5-33.7-16.3-52.1-17.4c-39.8-2.4-81.6,8.3-117.8,24.3
				c-12.2,5.4-23.3,11.4-36.9,6.5c-8.7-3.1-16.6-7.9-25.3-11c-14.9-5.3-30.7-8.1-46.5-8.4c-31.2-0.7-62.8,7.9-89.2,24.5
				c-13.4,8.4-25.3,18.9-35.2,31.1c0.9-0.2,1.8-0.4,2.7-0.6c-18.6-20-48.5-27.8-74.5-19.5c-25.9,8.3-45.6,31.9-49.2,58.8
				C1129.9,137.8,1132.8,137.2,1132.9,136.4L1132.9,136.4z"/>
		</g>
	</g>
	<text transform="matrix(1 0 0 1 1158.3937 280.7893)" class="st2 st3">Кредит хошь?</text>
</g>
</svg>
